<svg id="classic_phone" data-name="classic phone" xmlns="http://www.w3.org/2000/svg" width="48" height="48" viewBox="0 0 48 48">
  <rect id="矩形_49492" data-name="矩形 49492" width="48" height="48" fill="none"/>
  <path id="路径_160251" data-name="路径 160251" d="M10.773,18A7.463,7.463,0,0,0,16.735,6h13.53a7.412,7.412,0,0,0-1.537,4.5,7.5,7.5,0,1,0,15,0A7.617,7.617,0,0,0,37,3H10a7.629,7.629,0,0,0-6.728,7.5,7.5,7.5,0,0,0,7.5,7.5Zm29.955-7.5c0,5.932-9,5.877-9,0a4.5,4.5,0,0,1,9,0ZM10.773,6a4.5,4.5,0,0,1,4.5,4.5c0,5.885-9,5.927-9,0a4.5,4.5,0,0,1,4.5-4.5ZM40.389,22.881l-9.91-2.576L27.793,15.74A1.5,1.5,0,0,0,26.5,15h-6a1.5,1.5,0,0,0-1.293.74l-2.685,4.566L6.612,22.881A7.5,7.5,0,0,0,1,30.14V37.5A4.5,4.5,0,0,0,5.5,42h36A4.5,4.5,0,0,0,46,37.5V30.139a7.5,7.5,0,0,0-5.612-7.259ZM43,37.5A1.5,1.5,0,0,1,41.5,39H5.5A1.5,1.5,0,0,1,4,37.5V30.139a4.5,4.5,0,0,1,3.368-4.35l10.51-2.731a1.5,1.5,0,0,0,.915-.692L21.358,18h4.284l2.565,4.361a1.5,1.5,0,0,0,.915.692l10.51,2.731A4.5,4.5,0,0,1,43,30.139ZM23.5,24a6.75,6.75,0,1,0,6.75,6.75A6.75,6.75,0,0,0,23.5,24Zm0,10.5a3.75,3.75,0,1,1,3.75-3.75A3.75,3.75,0,0,1,23.5,34.5Z" transform="translate(0.5 1.5)"/>
</svg>
