<svg xmlns="http://www.w3.org/2000/svg" width="23.406" height="21.943" viewBox="0 0 23.406 21.943">
  <g id="classify" transform="translate(0 -2)">
    <g id="XMLID_1305_" transform="translate(0 2)">
      <path id="路径_179026" data-name="路径 179026" d="M23.041,20.185h-5.72a.364.364,0,1,1,0-.727h5.354V2.727H.731v16.73H5.354a.364.364,0,1,1,0,.727H.366A.365.365,0,0,1,0,19.821V2.364A.365.365,0,0,1,.366,2H23.041a.365.365,0,0,1,.366.364V19.821A.365.365,0,0,1,23.041,20.185Z" transform="translate(0 -2)" fill="#93f6f6"/>
    </g>
    <g id="XMLID_1319_" transform="translate(0 5.007)">
      <path id="路径_179027" data-name="路径 179027" d="M23.041,10.752H.366a.376.376,0,0,1,0-.752H23.041a.376.376,0,0,1,0,.752Z" transform="translate(0 -10)" fill="#93f6f6"/>
    </g>
    <g id="XMLID_81_" transform="translate(18.144 3.508)">
      <g id="XMLID_1318_">
        <path id="路径_179028" data-name="路径 179028" d="M50.376,6.759a.379.379,0,0,1-.267-.109A.4.4,0,0,1,50,6.384a.386.386,0,0,1,.109-.267.377.377,0,1,1,.267.643Z" transform="translate(-50 -6.012)" fill="#93f6f6"/>
      </g>
      <g id="XMLID_1317_" transform="translate(1.503 0)">
        <path id="路径_179029" data-name="路径 179029" d="M54.376,6.76a.4.4,0,0,1-.267-.109A.388.388,0,0,1,54,6.384a.394.394,0,0,1,.109-.267.39.39,0,0,1,.534,0,.38.38,0,0,1,.109.263.389.389,0,0,1-.109.267A.4.4,0,0,1,54.376,6.76Z" transform="translate(-54 -6.014)" fill="#93f6f6"/>
      </g>
      <g id="XMLID_1316_" transform="translate(3.007)">
        <path id="路径_179030" data-name="路径 179030" d="M58.376,6.759a.372.372,0,1,1,.267-.109A.4.4,0,0,1,58.376,6.759Z" transform="translate(-58 -6.012)" fill="#93f6f6"/>
      </g>
    </g>
    <g id="XMLID_1296_" transform="translate(16.808 2)">
      <path id="路径_179031" data-name="路径 179031" d="M46.376,5.759A.376.376,0,0,1,46,5.383V2.376a.376.376,0,1,1,.752,0V5.383A.376.376,0,0,1,46.376,5.759Z" transform="translate(-46 -2)" fill="#93f6f6"/>
    </g>
    <g id="XMLID_872_" transform="translate(9.824 10.365)">
      <path id="路径_179032" data-name="路径 179032" d="M28.879,28.759a1.879,1.879,0,1,1,1.879-1.879A1.881,1.881,0,0,1,28.879,28.759Zm0-3.007a1.128,1.128,0,1,0,1.128,1.128A1.129,1.129,0,0,0,28.879,25.752Z" transform="translate(-27 -25)" fill="#93f6f6"/>
    </g>
    <g id="XMLID_339_" transform="translate(10.576 8.557)">
      <path id="路径_179033" data-name="路径 179033" d="M30.879,22.834a.376.376,0,0,1-.376-.376V21.128a.361.361,0,0,0-.108-.261.367.367,0,0,0-.268-.115.376.376,0,0,0-.376.376v1.331a.376.376,0,1,1-.752,0V21.128A1.129,1.129,0,0,1,30.128,20a1.133,1.133,0,0,1,1.128,1.128v1.331A.376.376,0,0,1,30.879,22.834Z" transform="translate(-29 -20)" fill="#93f6f6"/>
    </g>
    <g id="XMLID_338_" transform="translate(10.576 12.841)">
      <path id="路径_179034" data-name="路径 179034" d="M30.128,43.563A1.129,1.129,0,0,1,29,42.435v-9.6a.376.376,0,1,1,.752,0v9.6a.376.376,0,1,0,.752,0v-9.6a.376.376,0,1,1,.752,0v9.6A1.129,1.129,0,0,1,30.128,43.563Z" transform="translate(-29 -32.46)" fill="#93f6f6"/>
    </g>
    <g id="XMLID_363_" transform="translate(6.929 20.734)">
      <path id="路径_179035" data-name="路径 179035" d="M20.128,56.67A1.129,1.129,0,0,1,19,55.542V53.836a.376.376,0,0,1,.752,0v1.706a.376.376,0,0,0,.752,0V53.836a.376.376,0,0,1,.752,0v1.706A1.129,1.129,0,0,1,20.128,56.67Z" transform="translate(-19 -53.46)" fill="#93f6f6"/>
    </g>
    <g id="XMLID_208_" transform="translate(6.929 8.418)">
      <path id="路径_179036" data-name="路径 179036" d="M20.879,30.727a.376.376,0,0,1-.376-.376V21.128a.361.361,0,0,0-.108-.261.367.367,0,0,0-.268-.115.376.376,0,0,0-.376.376v9.224a.376.376,0,1,1-.752,0V21.128A1.129,1.129,0,0,1,20.128,20a1.133,1.133,0,0,1,1.128,1.128v9.224A.376.376,0,0,1,20.879,30.727Z" transform="translate(-19 -20)" fill="#93f6f6"/>
    </g>
    <g id="XMLID_375_" transform="translate(14.222 8.501)">
      <path id="路径_179037" data-name="路径 179037" d="M40.879,26.968a.375.375,0,0,1-.188-.05,1.123,1.123,0,0,0-1.128,0A.376.376,0,0,1,39,26.593V21.128A1.129,1.129,0,0,1,40.128,20a1.133,1.133,0,0,1,1.128,1.128v5.465a.376.376,0,0,1-.376.376Zm-.752-.955a1.874,1.874,0,0,1,.376.039V21.128a.361.361,0,0,0-.108-.261.367.367,0,0,0-.268-.115.376.376,0,0,0-.376.376v4.925A1.874,1.874,0,0,1,40.128,26.014Z" transform="translate(-39 -20)" fill="#93f6f6"/>
    </g>
    <g id="XMLID_376_" transform="translate(14.222 16.975)">
      <path id="路径_179038" data-name="路径 179038" d="M40.128,50.428A1.129,1.129,0,0,1,39,49.3V43.836a.376.376,0,0,1,.563-.326,1.123,1.123,0,0,0,1.128,0,.376.376,0,0,1,.563.326V49.3A1.129,1.129,0,0,1,40.128,50.428Zm-.376-6.052V49.3a.376.376,0,0,0,.752,0V44.376A1.878,1.878,0,0,1,39.752,44.376Z" transform="translate(-39 -43.46)" fill="#93f6f6"/>
    </g>
    <g id="XMLID_205_" transform="translate(6.185 17.93)">
      <path id="路径_179039" data-name="路径 179039" d="M18.879,49.759a1.879,1.879,0,1,1,1.879-1.879A1.881,1.881,0,0,1,18.879,49.759Zm0-3.007a1.128,1.128,0,1,0,1.128,1.128A1.129,1.129,0,0,0,18.879,46.752Z" transform="translate(-17 -46)" fill="#93f6f6"/>
    </g>
    <g id="XMLID_337_" transform="translate(13.507 14.571)">
      <path id="路径_179040" data-name="路径 179040" d="M38.127,39.893a.377.377,0,0,1-.187-.05,1.877,1.877,0,0,1,0-3.253.376.376,0,0,1,.375.652,1.124,1.124,0,0,0,0,1.949.376.376,0,0,1-.188.7Z" transform="translate(-37 -36.54)" fill="#93f6f6"/>
    </g>
    <g id="XMLID_209_" transform="translate(15.697 14.571)">
      <path id="路径_179041" data-name="路径 179041" d="M43.376,39.893a.376.376,0,0,1-.188-.7,1.124,1.124,0,0,0,0-1.949.376.376,0,1,1,.375-.652,1.877,1.877,0,0,1,0,3.253A.377.377,0,0,1,43.376,39.893Z" transform="translate(-43 -36.54)" fill="#93f6f6"/>
    </g>
  </g>
</svg>
