<svg xmlns="http://www.w3.org/2000/svg" width="44" height="44" viewBox="0 0 44 44">
  <g id="email" transform="translate(-0.085)">
    <rect id="矩形_350" data-name="矩形 350" width="44" height="44" transform="translate(0.085)" fill="none"/>
    <path id="路径_153350" data-name="路径 153350" d="M42.707,32.414V7.39A1.45,1.45,0,0,0,41.317,6H2.39A1.419,1.419,0,0,0,1,7.39V32.414A1.444,1.444,0,0,0,2.39,33.8H41.317a1.425,1.425,0,0,0,1.39-1.39Zm-38.926-22L15.432,20.4,3.78,29.555ZM21.853,22.242,6.144,8.78H37.563Zm-4.269,0,3.364,2.883a1.39,1.39,0,0,0,1.807,0l3.364-2.883L37.3,31.024H6.409ZM28.276,20.4l11.65-9.983V29.553Z" transform="translate(0.386 2.341)"/>
  </g>
</svg>
