<svg id="fax" xmlns="http://www.w3.org/2000/svg" width="48" height="48" viewBox="0 0 48 48">
  <rect id="矩形_49493" data-name="矩形 49493" width="48" height="48" fill="none"/>
  <path id="路径_160252" data-name="路径 160252" d="M43,10H41.5V5.5A4.5,4.5,0,0,0,37,1H31a4.5,4.5,0,0,0-4.5,4.5V10H18.166A5.947,5.947,0,0,0,7.834,10H5.5A4.5,4.5,0,0,0,1,14.5v24A4.5,4.5,0,0,0,5.5,43H7.834a5.948,5.948,0,0,0,10.332,0H43a3,3,0,0,0,3-3V13A3,3,0,0,0,43,10ZM7,40H5.5A1.5,1.5,0,0,1,4,38.5v-24A1.5,1.5,0,0,1,5.5,13H7Zm9,0a3,3,0,0,1-6,0V13a3,3,0,0,1,6,0ZM29.5,5.5A1.5,1.5,0,0,1,31,4h6a1.5,1.5,0,0,1,1.5,1.5V10h-9ZM19,40V13H43V40Zm6-22.5A1.5,1.5,0,1,0,26.5,19,1.5,1.5,0,0,0,25,17.5Zm6,0A1.5,1.5,0,1,0,32.5,19,1.5,1.5,0,0,0,31,17.5Zm6,0A1.5,1.5,0,1,0,38.5,19,1.5,1.5,0,0,0,37,17.5ZM25,25a1.5,1.5,0,1,0,1.5,1.5A1.5,1.5,0,0,0,25,25Zm6,0a1.5,1.5,0,1,0,1.5,1.5A1.5,1.5,0,0,0,31,25Zm6,0a1.5,1.5,0,1,0,1.5,1.5A1.5,1.5,0,0,0,37,25ZM25,32.5A1.5,1.5,0,1,0,26.5,34,1.5,1.5,0,0,0,25,32.5Zm6,0A1.5,1.5,0,1,0,32.5,34,1.5,1.5,0,0,0,31,32.5Zm6,0A1.5,1.5,0,1,0,38.5,34,1.5,1.5,0,0,0,37,32.5Z" transform="translate(0.5 0.5)"/>
</svg>
