<svg xmlns="http://www.w3.org/2000/svg" width="56" height="56" viewBox="0 0 56 56">
  <g id="ic-group" transform="translate(-106 -918.197)">
    <rect id="矩形_203" data-name="矩形 203" width="56" height="56" transform="translate(106 918.197)" fill="#93f6f6" opacity="0"/>
    <g id="_05_workgroup_people" data-name="05_workgroup_people" transform="translate(109.5 918.197)">
      <g id="Group_94610" data-name="Group 94610">
        <g id="Group_94609" data-name="Group 94609">
          <g id="Group_94608" data-name="Group 94608">
            <rect id="Rectangle_30972" data-name="Rectangle 30972" width="1.75" height="18.375" transform="translate(23.625 37.625)" fill="#93f6f6"/>
            <path id="Path_110509" data-name="Path 110509" d="M134.25,2081.5a5.25,5.25,0,1,1,5.25-5.25,5.25,5.25,0,0,1-5.25,5.25Zm0-8.75a3.5,3.5,0,1,0,3.5,3.5A3.5,3.5,0,0,0,134.25,2072.75Z" transform="translate(-109.75 -2071)" fill="#93f6f6"/>
            <path id="Path_110510" data-name="Path 110510" d="M144,2092h-1.75v-.875a4.38,4.38,0,0,0-4.375-4.375h-8.75a4.38,4.38,0,0,0-4.375,4.375V2092H123v-.875a6.132,6.132,0,0,1,6.125-6.125h8.75a6.132,6.132,0,0,1,6.125,6.125Z" transform="translate(-109 -2072.769)" fill="#93f6f6"/>
            <rect id="Rectangle_30973" data-name="Rectangle 30973" width="1.75" height="14.875" transform="translate(8.75 41.125)" fill="#93f6f6"/>
            <path id="Path_110511" data-name="Path 110511" d="M117.375,2088.75a4.375,4.375,0,1,1,4.375-4.375A4.375,4.375,0,0,1,117.375,2088.75Zm0-7a2.625,2.625,0,1,0,2.625,2.625,2.625,2.625,0,0,0-2.625-2.625Z" transform="translate(-107.75 -2072.125)" fill="#93f6f6"/>
            <path id="Path_110512" data-name="Path 110512" d="M122.75,2129.625H121V2111.25h3.5v-14a3.5,3.5,0,0,0-3.5-3.5h-8.75a3.5,3.5,0,0,0-3.5,3.5v14h3.5v18.375H110.5V2113H107v-15.75a5.255,5.255,0,0,1,5.25-5.25H121a5.255,5.255,0,0,1,5.25,5.25V2113h-3.5Z" transform="translate(-107 -2073.698)" fill="#93f6f6"/>
            <rect id="Rectangle_30974" data-name="Rectangle 30974" width="1.75" height="14.875" transform="translate(38.5 41.125)" fill="#93f6f6"/>
            <path id="Path_110513" data-name="Path 110513" d="M151.375,2088.75a4.375,4.375,0,1,1,4.375-4.375A4.375,4.375,0,0,1,151.375,2088.75Zm0-7a2.625,2.625,0,1,0,2.625,2.625A2.625,2.625,0,0,0,151.375,2081.75Z" transform="translate(-112 -2072.125)" fill="#93f6f6"/>
            <path id="Path_110514" data-name="Path 110514" d="M156.75,2129.625H155V2111.25h3.5v-14a3.5,3.5,0,0,0-3.5-3.5h-8.75a3.5,3.5,0,0,0-3.5,3.5v14h3.5v18.375H144.5V2113H141v-15.75a5.255,5.255,0,0,1,5.25-5.25H155a5.255,5.255,0,0,1,5.25,5.25V2113h-3.5Z" transform="translate(-111.25 -2073.698)" fill="#93f6f6"/>
            <rect id="Rectangle_30975" data-name="Rectangle 30975" width="1.75" height="1.75" transform="translate(23.625 15.802)" fill="#93f6f6"/>
            <rect id="Rectangle_30976" data-name="Rectangle 30976" width="1.75" height="1.75" transform="translate(23.625 19.297)" fill="#93f6f6"/>
            <rect id="Rectangle_30977" data-name="Rectangle 30977" width="1.75" height="1.75" transform="translate(38.5 21.918)" fill="#93f6f6"/>
            <rect id="Rectangle_30978" data-name="Rectangle 30978" width="1.75" height="1.75" transform="translate(8.75 21.918)" fill="#93f6f6"/>
          </g>
          <rect id="Rectangle_30979" data-name="Rectangle 30979" width="1.75" height="17.5" transform="translate(17.5 38.5)" fill="#93f6f6"/>
          <rect id="Rectangle_30980" data-name="Rectangle 30980" width="1.75" height="17.5" transform="translate(29.75 38.5)" fill="#93f6f6"/>
        </g>
      </g>
    </g>
  </g>
</svg>
