<svg xmlns="http://www.w3.org/2000/svg" width="56" height="56" viewBox="0 0 56 56">
  <g id="ic-mps" transform="translate(-760 -918.281)">
    <rect id="矩形_206" data-name="矩形 206" width="56" height="56" transform="translate(760 918.281)" fill="#93f6f6" opacity="0"/>
    <g id="travel-place-on-map" transform="translate(761.75 922.583)">
      <path id="路径_919" data-name="路径 919" d="M49.405,21.358,39.343,16.1c-.019-.01-.04-.008-.059-.016a.862.862,0,0,0-.181-.049.85.85,0,0,0-.18-.025c-.014,0-.026-.006-.04-.005a.823.823,0,0,0-.138.037.842.842,0,0,0-.143.025l-3.115,1.295a.875.875,0,0,0,.672,1.616l1.982-.824,1.633,26.113L27.125,48.874V30.707a.875.875,0,1,0-1.75,0V48.874L12.726,44.267l1.633-26.113,1.982.824a.875.875,0,1,0,.672-1.616L13.9,16.067a.855.855,0,0,0-.142-.025A.832.832,0,0,0,13.617,16c-.014,0-.026.006-.04.006a.849.849,0,0,0-.186.026.868.868,0,0,0-.169.045c-.021.009-.045.007-.066.018L3.095,21.358a.875.875,0,0,0-.466.694L0,50.042a.875.875,0,0,0,1.25.87l10.606-5.1L25.95,50.946a.87.87,0,0,0,.6,0L40.64,45.814l10.606,5.1a.875.875,0,0,0,1.25-.87l-2.625-27.99A.875.875,0,0,0,49.405,21.358ZM4.327,22.689l8.266-4.32L10.971,44.3l-9.08,4.366Zm37.2,21.61-1.622-25.93,8.266,4.32,2.436,25.976Z" transform="translate(0 -3.754)" fill="#93f6f6"/>
      <path id="路径_920" data-name="路径 920" d="M32.145,2.661a9.1,9.1,0,0,0-6.791,0,8.738,8.738,0,0,0-2.78,1.806,8.411,8.411,0,0,0-1.882,2.689,8.231,8.231,0,0,0-.378,5.56,8.406,8.406,0,0,0,.725,1.7L28,26.074a.875.875,0,0,0,1.5,0L36.478,14.38a8.306,8.306,0,0,0,.707-1.664,8.231,8.231,0,0,0-.378-5.56,8.419,8.419,0,0,0-1.882-2.689A8.745,8.745,0,0,0,32.145,2.661Zm3.6,7.8a6.465,6.465,0,0,1-.247,1.775,6.551,6.551,0,0,1-.546,1.282l-6.207,10.4L22.562,13.55A6.652,6.652,0,0,1,22,12.235a6.484,6.484,0,0,1,.3-4.375,6.674,6.674,0,0,1,1.494-2.132,7,7,0,0,1,2.226-1.445,7.306,7.306,0,0,1,5.471,0,7,7,0,0,1,2.226,1.445,6.682,6.682,0,0,1,1.494,2.132A6.431,6.431,0,0,1,35.75,10.46Z" transform="translate(-2.5 -2.004)" fill="#93f6f6"/>
      <path id="路径_921" data-name="路径 921" d="M29.375,7a4.375,4.375,0,1,0,4.375,4.375A4.38,4.38,0,0,0,29.375,7Zm0,7A2.625,2.625,0,1,1,32,11.378,2.628,2.628,0,0,1,29.375,14Z" transform="translate(-3.125 -2.629)" fill="#93f6f6"/>
    </g>
  </g>
</svg>
