<svg xmlns="http://www.w3.org/2000/svg" width="56" height="56" viewBox="0 0 56 56">
  <g id="ic-open" transform="translate(-98 -433)">
    <rect id="矩形_50027" data-name="矩形 50027" width="56" height="56" transform="translate(98 433)" fill="#93f6f6" opacity="0"/>
    <g id="startup-open-web-store" transform="translate(102.308 435.585)">
      <path id="路径_175252" data-name="路径 175252" d="M46.938,17.234H42.13L29.495,4.6a3.4,3.4,0,0,0,.213-1.153,3.446,3.446,0,1,0-6.892,0A3.405,3.405,0,0,0,23.029,4.6L10.393,17.234H5.585A2.587,2.587,0,0,0,3,19.818V49.108a2.587,2.587,0,0,0,2.585,2.585H46.938a2.587,2.587,0,0,0,2.585-2.585V19.818A2.587,2.587,0,0,0,46.938,17.234ZM26.262,1.723a1.723,1.723,0,1,1-1.723,1.723A1.725,1.725,0,0,1,26.262,1.723Zm-2.24,4.32a3.379,3.379,0,0,0,4.48,0L39.693,17.234H12.83ZM5.585,18.957H46.938a.863.863,0,0,1,.862.862v4.308H4.723V19.818A.863.863,0,0,1,5.585,18.957ZM46.938,49.969H5.585a.863.863,0,0,1-.862-.862V25.85H47.8V49.108A.863.863,0,0,1,46.938,49.969Z" transform="translate(-3 0)" fill="#93f6f6"/>
      <path id="路径_175253" data-name="路径 175253" d="M7.862,25.726a.853.853,0,0,0,.612-.25.863.863,0,0,0,0-1.215.893.893,0,0,0-1.223,0,.869.869,0,0,0-.25.6.889.889,0,0,0,.25.612A.853.853,0,0,0,7.862,25.726Z" transform="translate(-3.554 -3.326)" fill="#93f6f6"/>
      <path id="路径_175254" data-name="路径 175254" d="M11.862,25.725a.868.868,0,0,0,.612-.25.891.891,0,0,0,.25-.612.882.882,0,0,0-.25-.612.893.893,0,0,0-1.223.008.863.863,0,0,0,0,1.215A.853.853,0,0,0,11.862,25.725Z" transform="translate(-4.108 -3.325)" fill="#93f6f6"/>
      <path id="路径_175255" data-name="路径 175255" d="M15.862,25.726a.868.868,0,0,0,.612-.25.853.853,0,0,0,.25-.612.834.834,0,0,0-.25-.6.893.893,0,0,0-1.223,0,.869.869,0,0,0-.25.6.889.889,0,0,0,.25.612A.867.867,0,0,0,15.862,25.726Z" transform="translate(-4.662 -3.326)" fill="#93f6f6"/>
      <path id="路径_175256" data-name="路径 175256" d="M35.3,39.715a.862.862,0,1,0,0-1.723H31.86a.862.862,0,0,0-.862.862v6.891a.862.862,0,0,0,.862.862H35.3a.862.862,0,0,0,0-1.723H32.721V43.161H35.3a.862.862,0,1,0,0-1.723H32.721V39.715H35.3Z" transform="translate(-6.877 -5.26)" fill="#93f6f6"/>
      <path id="路径_175257" data-name="路径 175257" d="M44.164,37.992a.862.862,0,0,0-.862.862V42.74L40.588,38.4A.861.861,0,0,0,39,38.854v6.891a.862.862,0,0,0,1.723,0V41.858L43.433,46.2a.846.846,0,0,0,.1.125c.01.011.018.024.028.034a.848.848,0,0,0,.24.162c.02.01.041.016.062.024a.861.861,0,0,0,.3.06h0a.857.857,0,0,0,.3-.06.818.818,0,0,0,.079-.035.832.832,0,0,0,.08-.036.816.816,0,0,0,.068-.065.838.838,0,0,0,.127-.121.815.815,0,0,0,.191-.454.811.811,0,0,0,.018-.092V38.854A.862.862,0,0,0,44.164,37.992Z" transform="translate(-7.984 -5.26)" fill="#93f6f6"/>
      <path id="路径_175258" data-name="路径 175258" d="M25.454,37.992H22.87l-.008,0-.008,0a.862.862,0,0,0-.862.862v6.893a.862.862,0,0,0,1.723,0V43.161h1.738a2.585,2.585,0,1,0,0-5.169Zm0,3.446H23.716V39.715h1.738a.862.862,0,1,1,0,1.723Z" transform="translate(-5.63 -5.26)" fill="#93f6f6"/>
      <path id="路径_175259" data-name="路径 175259" d="M16.59,37.992a2.587,2.587,0,0,0-2.584,2.584v3.447a2.584,2.584,0,1,0,5.168,0V40.576A2.587,2.587,0,0,0,16.59,37.992Zm.861,6.031a.861.861,0,1,1-1.722,0V40.576a.861.861,0,1,1,1.722,0Z" transform="translate(-4.524 -5.26)" fill="#93f6f6"/>
    </g>
  </g>
</svg>
