<svg xmlns="http://www.w3.org/2000/svg" width="56" height="56" viewBox="0 0 56 56">
  <g id="ic-people" transform="translate(282.478 -359.609)">
    <rect id="矩形_50028" data-name="矩形 50028" width="56" height="56" transform="translate(-282.478 359.609)" fill="#93f6f6" opacity="0"/>
    <g id="bl-641-skills-employee-career-business-company-avatar-work" transform="translate(-279.893 361.331)">
      <g id="组_94379" data-name="组 94379" transform="translate(14.646 23.264)">
        <g id="组_94377" data-name="组 94377">
          <path id="路径_175262" data-name="路径 175262" d="M-249.478,402.777v-1.723a3.45,3.45,0,0,0,3.446-3.446h1.723A5.175,5.175,0,0,1-249.478,402.777Z" transform="translate(260.678 -389.856)" fill="#93f6f6"/>
          <path id="路径_175263" data-name="路径 175263" d="M-240.94,417.039a.861.861,0,0,1-.862-.862v-8.161a3.459,3.459,0,0,0-2.254-3.233l-4.89-1.488a.861.861,0,0,1-.61-.824v-2.682a.864.864,0,0,1,.345-.691,3.441,3.441,0,0,0,1.378-2.738v-2.583c0-.112-.006-.226-.017-.338a3.418,3.418,0,0,0-1.243-2.326,3.412,3.412,0,0,0-2.524-.765,3.559,3.559,0,0,0-3.108,3.6v2.413a3.44,3.44,0,0,0,1.377,2.737.862.862,0,0,1,.346.69v2.682a.863.863,0,0,1-.614.825l-4.919,1.473a3.443,3.443,0,0,0-2.221,3.223v8.185a.861.861,0,0,1-.862.862.861.861,0,0,1-.862-.862v-8.185a5.182,5.182,0,0,1,3.4-4.857l4.352-1.305V400.2a5.178,5.178,0,0,1-1.723-3.832v-2.4a5.279,5.279,0,0,1,4.639-5.326A5.143,5.143,0,0,1-248,389.782a5.136,5.136,0,0,1,1.866,3.489q.025.252.025.507v2.585a5.183,5.183,0,0,1-1.723,3.835v1.636l4.327,1.317a5.205,5.205,0,0,1,3.427,4.867v8.161A.861.861,0,0,1-240.94,417.039Z" transform="translate(262.478 -388.61)" fill="#93f6f6"/>
        </g>
        <path id="路径_175264" data-name="路径 175264" d="M-256.616,420.5a.861.861,0,0,1-.862-.862V414.47a.861.861,0,0,1,.862-.862.862.862,0,0,1,.862.862v5.169A.861.861,0,0,1-256.616,420.5Z" transform="translate(261.786 -392.072)" fill="#93f6f6"/>
        <path id="路径_175265" data-name="路径 175265" d="M-242.616,420.5a.861.861,0,0,1-.862-.862V414.47a.861.861,0,0,1,.862-.862.862.862,0,0,1,.861.862v5.169A.861.861,0,0,1-242.616,420.5Z" transform="translate(259.847 -392.072)" fill="#93f6f6"/>
        <g id="组_94378" data-name="组 94378" transform="translate(10.334 15.503)">
          <path id="路径_175266" data-name="路径 175266" d="M-249.62,408.332a.856.856,0,0,1-.6-.258.82.82,0,0,1-.25-.6.853.853,0,0,1,.06-.327.8.8,0,0,1,.19-.284.874.874,0,0,1,.276-.189.884.884,0,0,1,.663,0,.873.873,0,0,1,.276.189.934.934,0,0,1,.19.284.861.861,0,0,1,.069.327.859.859,0,0,1-.069.328.761.761,0,0,1-.19.276.764.764,0,0,1-.276.19A.867.867,0,0,1-249.62,408.332Z" transform="translate(250.482 -406.605)" fill="#93f6f6"/>
          <path id="路径_175267" data-name="路径 175267" d="M-249.62,412.334a.857.857,0,0,1-.327-.068.764.764,0,0,1-.276-.19.761.761,0,0,1-.19-.276.851.851,0,0,1-.06-.328.852.852,0,0,1,.06-.327.73.73,0,0,1,.19-.284.893.893,0,0,1,1.215,0,.839.839,0,0,1,.19.284.852.852,0,0,1,.06.327.82.82,0,0,1-.25.6A.86.86,0,0,1-249.62,412.334Z" transform="translate(250.482 -407.161)" fill="#93f6f6"/>
          <path id="路径_175268" data-name="路径 175268" d="M-249.621,416.332a.856.856,0,0,1-.6-.258.761.761,0,0,1-.19-.276.859.859,0,0,1-.069-.328.879.879,0,0,1,.258-.612,1.064,1.064,0,0,1,.276-.189.881.881,0,0,1,.939.189.84.84,0,0,1,.19.284.852.852,0,0,1,.06.327.85.85,0,0,1-.06.328.761.761,0,0,1-.19.276A.86.86,0,0,1-249.621,416.332Z" transform="translate(250.483 -407.713)" fill="#93f6f6"/>
        </g>
      </g>
      <path id="路径_175269" data-name="路径 175269" d="M-276.032,390.6a3.45,3.45,0,0,1-3.446-3.446,3.45,3.45,0,0,1,3.446-3.446,3.45,3.45,0,0,1,3.446,3.446A3.45,3.45,0,0,1-276.032,390.6Zm0-5.169a1.724,1.724,0,0,0-1.723,1.723,1.724,1.724,0,0,0,1.723,1.723,1.725,1.725,0,0,0,1.723-1.723A1.725,1.725,0,0,0-276.032,385.432Z" transform="translate(279.478 -364.668)" fill="#93f6f6"/>
      <path id="路径_175270" data-name="路径 175270" d="M-237.032,368.5a3.45,3.45,0,0,1-3.446-3.446,3.45,3.45,0,0,1,3.446-3.446,3.45,3.45,0,0,1,3.446,3.446A3.45,3.45,0,0,1-237.032,368.5Zm0-5.169a1.725,1.725,0,0,0-1.723,1.723,1.724,1.724,0,0,0,1.723,1.723,1.725,1.725,0,0,0,1.723-1.723A1.725,1.725,0,0,0-237.032,363.331Z" transform="translate(274.078 -361.608)" fill="#93f6f6"/>
      <path id="路径_175271" data-name="路径 175271" d="M-263.032,368.5a3.45,3.45,0,0,1-3.446-3.446,3.45,3.45,0,0,1,3.446-3.446,3.45,3.45,0,0,1,3.446,3.446A3.45,3.45,0,0,1-263.032,368.5Zm0-5.169a1.725,1.725,0,0,0-1.723,1.723,1.724,1.724,0,0,0,1.723,1.723,1.725,1.725,0,0,0,1.723-1.723A1.725,1.725,0,0,0-263.032,363.331Z" transform="translate(277.678 -361.608)" fill="#93f6f6"/>
      <path id="路径_175272" data-name="路径 175272" d="M-264.834,388.549h-7.575a.861.861,0,0,1-.862-.862.861.861,0,0,1,.862-.862h7.575a.861.861,0,0,1,.862.862A.861.861,0,0,1-264.834,388.549Z" transform="translate(278.618 -365.1)" fill="#93f6f6"/>
      <path id="路径_175273" data-name="路径 175273" d="M-227.863,388.549h-7.754a.861.861,0,0,1-.862-.862.861.861,0,0,1,.862-.862h7.754a.861.861,0,0,1,.862.862A.861.861,0,0,1-227.863,388.549Z" transform="translate(273.524 -365.1)" fill="#93f6f6"/>
      <path id="路径_175274" data-name="路径 175274" d="M-273.83,382.446a.857.857,0,0,1-.393-.095.862.862,0,0,1-.373-1.161l4.023-7.829a.862.862,0,0,1,1.16-.373.862.862,0,0,1,.372,1.161l-4.023,7.829A.861.861,0,0,1-273.83,382.446Z" transform="translate(278.815 -363.171)" fill="#93f6f6"/>
      <path id="路径_175275" data-name="路径 175275" d="M-243.726,375.465a.856.856,0,0,1-.435-.118.861.861,0,0,1-.308-1.179l3.769-6.425a.86.86,0,0,1,1.179-.308.86.86,0,0,1,.308,1.179l-3.769,6.425A.859.859,0,0,1-243.726,375.465Z" transform="translate(274.647 -362.399)" fill="#93f6f6"/>
      <path id="路径_175276" data-name="路径 175276" d="M-226.142,382.124a.86.86,0,0,1-.762-.457l-4.308-8.113a.862.862,0,0,1,.358-1.165.859.859,0,0,1,1.165.357l4.308,8.113a.861.861,0,0,1-.358,1.165A.848.848,0,0,1-226.142,382.124Z" transform="translate(272.809 -363.087)" fill="#93f6f6"/>
      <path id="路径_175277" data-name="路径 175277" d="M-256.325,375.406a.862.862,0,0,1-.768-.469l-3.338-6.533a.861.861,0,0,1,.376-1.159.862.862,0,0,1,1.159.375l3.338,6.533a.862.862,0,0,1-.375,1.16A.864.864,0,0,1-256.325,375.406Z" transform="translate(276.854 -362.375)" fill="#93f6f6"/>
      <path id="路径_175278" data-name="路径 175278" d="M-247.654,366.331h-9.477a.861.861,0,0,1-.862-.862.862.862,0,0,1,.862-.862h9.477a.862.862,0,0,1,.862.862A.861.861,0,0,1-247.654,366.331Z" transform="translate(276.503 -362.023)" fill="#93f6f6"/>
      <path id="路径_175279" data-name="路径 175279" d="M-269.806,399.838a.863.863,0,0,1-.748-.431l-4.023-6.968a.863.863,0,0,1,.316-1.177.863.863,0,0,1,1.177.315l4.022,6.968a.863.863,0,0,1-.315,1.178A.866.866,0,0,1-269.806,399.838Z" transform="translate(278.815 -365.698)" fill="#93f6f6"/>
      <path id="路径_175280" data-name="路径 175280" d="M-230.45,400.377a.858.858,0,0,1-.439-.121.861.861,0,0,1-.3-1.18l4.308-7.252a.859.859,0,0,1,1.18-.3.861.861,0,0,1,.3,1.18l-4.308,7.252A.86.86,0,0,1-230.45,400.377Z" transform="translate(272.809 -365.733)" fill="#93f6f6"/>
      <path id="路径_175281" data-name="路径 175281" d="M-224.032,390.6a3.45,3.45,0,0,1-3.446-3.446,3.45,3.45,0,0,1,3.446-3.446,3.45,3.45,0,0,1,3.446,3.446A3.45,3.45,0,0,1-224.032,390.6Zm0-5.169a1.724,1.724,0,0,0-1.723,1.723,1.724,1.724,0,0,0,1.723,1.723,1.725,1.725,0,0,0,1.723-1.723A1.725,1.725,0,0,0-224.032,385.432Z" transform="translate(272.278 -364.668)" fill="#93f6f6"/>
    </g>
  </g>
</svg>
