<svg xmlns="http://www.w3.org/2000/svg" width="56" height="56" viewBox="0 0 56 56">
  <g id="ic-rocket" transform="translate(-321 -918.281)">
    <rect id="矩形_204" data-name="矩形 204" width="56" height="56" transform="translate(321 918.281)" fill="#93f6f6" opacity="0"/>
    <g id="startup-space-rocket" transform="translate(323.625 920.833)">
      <path id="路径_916" data-name="路径 916" d="M51.743,1.257A.857.857,0,0,0,51.113,1c-10.466.131-19.794,3.124-27.33,8.706A16.92,16.92,0,0,0,3.073,27.76a.877.877,0,0,0,.567.74.886.886,0,0,0,.3.054.875.875,0,0,0,.608-.246,17.344,17.344,0,0,1,6.909-4.1,44.8,44.8,0,0,0-3.178,7.975.874.874,0,0,0,.221.864l1.465,1.465L4.9,37.345a.875.875,0,0,0-.192,1.382l9.528,9.537a.875.875,0,0,0,1.383-.191L18.459,43l1.492,1.492a.875.875,0,0,0,.864.221,44.766,44.766,0,0,0,7.957-3.168,17.375,17.375,0,0,1-4.08,6.9.875.875,0,0,0,.549,1.478q.8.075,1.6.075a16.826,16.826,0,0,0,11.945-4.947A17.094,17.094,0,0,0,43.3,29.206c5.578-7.534,8.567-16.857,8.7-27.319A.877.877,0,0,0,51.743,1.257ZM4.754,25.806A15.125,15.125,0,0,1,9.192,15.453a15.292,15.292,0,0,1,12.759-4.3c-.995.827-1.96,1.695-2.883,2.618A41.625,41.625,0,0,0,12.62,22.1,19.013,19.013,0,0,0,4.754,25.806Zm9.9,20.4-7.894-7.9L11.257,35.8l5.916,5.916Zm22.889-2.392a15.078,15.078,0,0,1-10.359,4.429,19.077,19.077,0,0,0,3.7-7.856,41.64,41.64,0,0,0,8.347-6.459c.926-.926,1.8-1.893,2.625-2.891A15.328,15.328,0,0,1,37.547,43.817ZM38,32.694A40.738,40.738,0,0,1,20.82,42.888L10.112,32.181A40.747,40.747,0,0,1,20.306,15c7.669-7.669,18-11.889,29.924-12.235C49.885,14.694,45.665,25.026,38,32.694Z" transform="translate(-1.25 -1)" fill="#93f6f6"/>
      <path id="路径_917" data-name="路径 917" d="M4.862,47.168a.874.874,0,0,0-1.223.19,12.636,12.636,0,0,0-2.511,9.287.874.874,0,0,0,.726.726A10.356,10.356,0,0,0,3.5,57.5a13.138,13.138,0,0,0,7.647-2.64.875.875,0,1,0-1.032-1.412,11.127,11.127,0,0,1-7.332,2.273,11.125,11.125,0,0,1,2.275-7.331A.875.875,0,0,0,4.862,47.168Z" transform="translate(-1 -6.75)" fill="#93f6f6"/>
      <path id="路径_918" data-name="路径 918" d="M31.753,34.5a8.75,8.75,0,1,0-6.187-2.563A8.7,8.7,0,0,0,31.753,34.5ZM26.8,20.8a7,7,0,1,1,0,9.9A6.954,6.954,0,0,1,26.8,20.8Z" transform="translate(-3.751 -3)" fill="#93f6f6"/>
    </g>
  </g>
</svg>
