<svg id="map" xmlns="http://www.w3.org/2000/svg" width="48" height="48" viewBox="0 0 48 48">
  <rect id="矩形_49490" data-name="矩形 49490" width="48" height="48" fill="none"/>
  <path id="路径_160249" data-name="路径 160249" d="M45.955,42.143l-6-24a1.5,1.5,0,1,0-2.91.729l1.886,7.545L31,31.707l-17.55-11.7H26.5a1.5,1.5,0,0,0,0-3H8.5a1.531,1.531,0,0,0-1.455,1.135l-6,24A1.5,1.5,0,0,0,2.5,44.007h42a1.5,1.5,0,0,0,1.455-1.865ZM4.421,41.007,9.439,20.936,39.55,41.007Zm29.278-7.5,6-4,2.4,9.6ZM31,13.794v7.713a1.5,1.5,0,0,0,3,0V13.794a6,6,0,1,0-3,0Zm1.5-8.787a3,3,0,1,1-3,3A3,3,0,0,1,32.5,5.007Z" transform="translate(0.5 0.993)"/>
</svg>
