<svg xmlns="http://www.w3.org/2000/svg" width="22" height="22" viewBox="0 0 22 22">
  <g id="_10-flag_on_the_moon" data-name="10-flag on the moon" transform="translate(-1 -1)" opacity="0.7">
    <path id="路径_179043" data-name="路径 179043" d="M56.548,54.774a3.918,3.918,0,0,0-1.774,1.774A3.918,3.918,0,0,0,53,54.774,3.918,3.918,0,0,0,54.774,53,3.918,3.918,0,0,0,56.548,54.774Z" transform="translate(-33.548 -33.548)" fill="#fff"/>
    <path id="路径_179044" data-name="路径 179044" d="M16.548,7.774a3.918,3.918,0,0,0-1.774,1.774A3.918,3.918,0,0,0,13,7.774,3.918,3.918,0,0,0,14.774,6,3.918,3.918,0,0,0,16.548,7.774Z" transform="translate(-7.742 -3.226)" fill="#fff"/>
    <path id="路径_179045" data-name="路径 179045" d="M4.548,23.774a3.918,3.918,0,0,0-1.774,1.774A3.918,3.918,0,0,0,1,23.774,3.918,3.918,0,0,0,2.774,22,3.918,3.918,0,0,0,4.548,23.774Z" transform="translate(0 -13.548)" fill="#fff"/>
    <path id="路径_179046" data-name="路径 179046" d="M19.742,25a6.742,6.742,0,1,0,6.742,6.742A6.742,6.742,0,0,0,19.742,25Zm-5.323,6.032A1.065,1.065,0,1,1,15.484,32.1,1.065,1.065,0,0,1,14.419,31.032Zm2.129,4.613a.71.71,0,1,1,.71-.71A.71.71,0,0,1,16.548,35.645Zm1.774-2.129a.71.71,0,1,1,.71.71A.71.71,0,0,1,18.323,33.516ZM20.1,37.065a.71.71,0,1,1,.71-.71A.71.71,0,0,1,20.1,37.065Zm2.839-6.742h-.71v-.71h.71Zm0-2.484h-.71v-.71h.71Zm.71.71h.71v.71h-.71Zm.71,2.839v-.71h.71v.71Z" transform="translate(-7.742 -15.484)" fill="#fff"/>
    <path id="路径_179047" data-name="路径 179047" d="M31.419,8.842v-3.6c.114.008.231.014.355.014,1.065,0,1.419-.355,2.484-.355a2.074,2.074,0,0,1,1.419.355V4.315a11.2,11.2,0,0,0-1.419-.121,3.942,3.942,0,0,0-1.07.156,5.319,5.319,0,0,1-1.414.2c-.123,0-.241-.005-.355-.012V3.825c.114.008.231.014.355.014,1.065,0,1.419-.355,2.484-.355a2.074,2.074,0,0,1,1.419.355V2.774a2.074,2.074,0,0,0-1.419-.355,5.259,5.259,0,0,0-1.419.22V1.91h.005a5.319,5.319,0,0,1,1.414-.2,3.587,3.587,0,0,1,1.419.248v-.6A2.074,2.074,0,0,0,34.258,1c-1.065,0-1.419.355-2.484.355A4.305,4.305,0,0,1,30,1V8.842c.234-.022.47-.036.71-.036s.476.014.71.036Z" transform="translate(-18.71 0)" fill="#fff"/>
  </g>
</svg>
