<svg xmlns="http://www.w3.org/2000/svg" width="212.68" height="194.642" viewBox="0 0 212.68 194.642">
  <g id="footer-3" transform="translate(-1168.583 -2544)" opacity="0.85">
    <g id="father" transform="translate(1207.119 2575.741)">
      <g id="legs" transform="translate(0 44.895)">
        <rect id="矩形_108643" data-name="矩形 108643" width="4.89" height="7.558" rx="2.445" transform="translate(2.634 63.223)" fill="#fbb486"/>
        <g id="组_95865" data-name="组 95865" transform="translate(0 67.001)">
          <path id="路径_178950" data-name="路径 178950" d="M1289.067,3084.387a5,5,0,0,1-1.311,2.289,5.193,5.193,0,0,1-3.2,1.4,4.282,4.282,0,0,1-2.977-.474c-1.458-1-1.242-2.981-1.748-2.983-.524,0-1.317,2.105-.883,4.138a4.983,4.983,0,0,0,1.922,3.089,5.351,5.351,0,0,0,4.091.683,5.284,5.284,0,0,0,4.1-8.139Z" transform="translate(-1278.826 -3077.496)" fill="#0c3879"/>
          <path id="路径_178951" data-name="路径 178951" d="M1287.5,3055.639c-.377-.028-.32,1.606-1.442,2.265a2.779,2.779,0,0,1-2.746-.206,3.141,3.141,0,0,1-1.373-2.128,21.385,21.385,0,0,0-1.179,3.166,23.322,23.322,0,0,0-.561,2.556,11.363,11.363,0,0,0-.319,2.516c.251,1.805,2.539,3.841,5.148,3.707a5.285,5.285,0,0,0,4.393-3.089,4.289,4.289,0,0,0,.412-1.991,6.025,6.025,0,0,0-.549-1.99c-.326-.835-.484-1.028-.755-1.648C1287.722,3056.938,1287.838,3055.663,1287.5,3055.639Z" transform="translate(-1279.621 -3055.57)" fill="#0c3879"/>
        </g>
        <path id="路径_178952" data-name="路径 178952" d="M1300.414,2793.095c-.557,2.04-1.488,5.251-2.856,9.141-1.887,5.363-2.784,6.834-3.618,10.093-1.257,4.912-.724,7.458-.952,12a52.331,52.331,0,0,1-4.189,17.71l-9.465-.4a62.458,62.458,0,0,1-.372-11.809,71.607,71.607,0,0,1,1.077-8.353c1.424-7.9,2.738-8.692,3.428-14.854.981-8.768-1.266-10.869,0-17.71a31.186,31.186,0,0,1,6.284-13.52l22.28,5.713q1.463,2.793,2.856,5.713a178.725,178.725,0,0,1,16.461,61.213l-8.5,2.517c-5.445-16.3-11.769-32.977-19.113-49.925Q1302.089,2796.822,1300.414,2793.095Z" transform="translate(-1278.833 -2775.385)" fill="#0c3879"/>
        <g id="组_95866" data-name="组 95866" transform="translate(43.636 72.672)">
          <path id="路径_178953" data-name="路径 178953" d="M1482.853,3085.431a2.108,2.108,0,0,0-.458-1.062c-.334-.389-.812-.6-2.746-.788a16.544,16.544,0,0,1-2.858-.3,7.441,7.441,0,0,1-1.811-.8,46.957,46.957,0,0,1-4.775-3.192l-8.516,2.453a8.486,8.486,0,0,0-.385,2.729,8.22,8.22,0,0,0,.318,2.074,11.731,11.731,0,0,0,2.48.455c1.681.125,2.176-.206,3.993-.162a30.881,30.881,0,0,1,3.415.44c2.291.333,3.436.5,3.588.517C1476.743,3087.993,1479.225,3087.7,1482.853,3085.431Z" transform="translate(-1461.303 -3079.286)" fill="#0040a3"/>
          <path id="路径_178954" data-name="路径 178954" d="M1484.555,3106.638a11.447,11.447,0,0,1-2.3,1.194,12.317,12.317,0,0,1-4.513.754c-2.429-.044-3.069-.9-5.924-1.012a14.54,14.54,0,0,0-2.675.144,8.979,8.979,0,0,1-4.685-.273,8.67,8.67,0,0,1-1.4-.619q-.007-.573-.014-1.146a5.974,5.974,0,0,0,2.4.92c1.6.229,2.568-.359,3.984-.592,2.117-.348,3.479.387,5.012.755,2.045.49,5.154.508,9.725-1.716Z" transform="translate(-1462.627 -3098.887)" fill="#fff"/>
        </g>
      </g>
      <g id="hand" transform="translate(43.729 17.148)">
        <path id="路径_178955" data-name="路径 178955" d="M1481.3,2693.263c.891,1.68,2.675,1.561,6.9,3.386,3.61,1.56,3.158,2.015,6.3,3.423,4.363,1.955,8.21,2.409,12.239,2.884a61.6,61.6,0,0,0,8.169.414l1.516-3.892a25.912,25.912,0,0,1-6.438-1.725c-2.512-1.037-3.4-1.875-5.519-2.5a14.94,14.94,0,0,0-6.9-.31c-1.861-1.292-4.244-2.919-7.043-4.765-4.98-3.284-6.17-3.892-7.324-3.421C1481.245,2687.552,1480.165,2691.129,1481.3,2693.263Z" transform="translate(-1476.258 -2680.094)" fill="#dd966c"/>
        <path id="路径_178956" data-name="路径 178956" d="M1463.353,2659.513c1.475-.68,3.515.921,5.838,2.786a37.022,37.022,0,0,1,6.763,7.135,13.447,13.447,0,0,1-2.79,2.761,13.919,13.919,0,0,1-6.963,2.59c-1.713-1.888-4.671-5.777-4.5-10.709C1461.734,2662.979,1461.827,2660.216,1463.353,2659.513Z" transform="translate(-1461.69 -2659.354)" fill="#b7e5f9"/>
      </g>
      <path id="torso" d="M1336.51,2684.429c-.918-3.644-.173-5.9.381-7.046.463-.957.988-1.54,4.761-5.141,3.989-3.809,3.872-3.6,4.19-4,3.237-4.024,2.769-9.464,2.666-10.664-.044-.511-1.028-10.426-7.617-12.759-3.035-1.075-6.191-.162-9,.651a14.914,14.914,0,0,0-6.045,2.777c-3.719,3.169-2.45,6.654-6.094,12.568-1.893,3.073-2.6,2.731-5.332,6.284a42.145,42.145,0,0,0-6.665,12.949,19.538,19.538,0,0,0,5.713,5.142,20,20,0,0,0,8.76,2.666A24.216,24.216,0,0,0,1336.51,2684.429Z" transform="translate(-1300.838 -2630.775)" fill="#fff"/>
      <g id="head" transform="translate(38.918 0)">
        <g id="组_95867" data-name="组 95867" transform="translate(0 3.56)">
          <path id="路径_178957" data-name="路径 178957" d="M1443.967,2639.472a18.4,18.4,0,0,1,11.292-7.824l-7.75-12.346a20.638,20.638,0,0,1-5.231,6.656,16.947,16.947,0,0,0,1.689,13.515Z" transform="translate(-1441.574 -2615.291)" fill="#dd966c"/>
          <path id="路径_178958" data-name="路径 178958" d="M1471.171,2615.111c-2.62,4.537-7.54,6.6-10.988,4.609a5.4,5.4,0,0,1-.747-.518c-2.786-2.284-3.173-7.114-.755-11.3,2.481-4.3,7.025-6.377,10.428-4.892a5.48,5.48,0,0,1,.56.281C1473.119,2605.28,1473.791,2610.573,1471.171,2615.111Z" transform="translate(-1453.375 -2602.531)" fill="#dd966c"/>
          <path id="路径_178959" data-name="路径 178959" d="M1469.864,2614.311c-2.481,4.3-7.025,6.375-10.428,4.891-2.786-2.284-3.173-7.114-.755-11.3,2.481-4.3,7.025-6.377,10.428-4.892C1471.9,2605.292,1472.282,2610.123,1469.864,2614.311Z" transform="translate(-1453.375 -2602.531)" fill="#fbb486"/>
        </g>
        <path id="路径_178960" data-name="路径 178960" d="M1465.128,2593.582a3.91,3.91,0,0,1,.938,1.875,2.961,2.961,0,0,1-.216,1.8,3.112,3.112,0,0,1-2.164,1.587,3.285,3.285,0,0,1-2.164-.433c-2.3-1.262-2.377-4.62-2.38-4.905l-3.823,8.007a7.311,7.311,0,0,0,.505,1.948c.376.908,1.1,2.653,2.813,3.246a4.519,4.519,0,0,0,3.607-.5,1.233,1.233,0,0,1,.216.721,1.43,1.43,0,0,1-.505.938,8.306,8.306,0,0,1-2.957,1.875,7.846,7.846,0,0,1-5.05.072,4.385,4.385,0,0,1-2.669-7.214c.667-.987,1.232-1.039,1.875-2.308a3.6,3.6,0,0,0,.505-2.525c-.257-1.041-1.184-1.96-1.659-1.8-.286.094-.21.512-.505,1.226a4.986,4.986,0,0,1-2.164,2.308,5.5,5.5,0,0,1-2.38.721,6.95,6.95,0,0,0,2.453-2.525,10.174,10.174,0,0,0,.866-2.669c.686-2.9.385-3.135.793-4.04,1.027-2.275,3.946-3.016,4.689-3.174a7.736,7.736,0,0,1,6.709,1.731C1463.7,2590.7,1463.219,2591.243,1465.128,2593.582Z" transform="translate(-1445.664 -2587.644)" fill="#000370"/>
      </g>
    </g>
    <g id="telescope" transform="translate(1211.997 2578.122)">
      <path id="路径_178961" data-name="路径 178961" d="M1679.345,2635.666a10.062,10.062,0,0,0-1.255,3.268c-.938,4.926,1.9,11.111,6.416,12.316a6.952,6.952,0,0,0,3.437,0Z" transform="translate(-1587.355 -2626.563)" fill="#0c3879"/>
      <path id="路径_178962" data-name="路径 178962" d="M1708.888,2613.641l-16.383,8.821a27.419,27.419,0,0,1-8.6-15.584l16.388-9.048a20.811,20.811,0,0,0,1.833,7.561A21.054,21.054,0,0,0,1708.888,2613.641Z" transform="translate(-1591.917 -2597.775)" fill="#0c3879"/>
      <g id="组_95868" data-name="组 95868" transform="translate(92.376 2.263)" opacity="0.5">
        <path id="路径_178963" data-name="路径 178963" d="M1685.522,2615.73l16.231-8.667.845,3.429-15.933,8.8Z" transform="translate(-1685.522 -2607.064)" fill="#fff"/>
      </g>
      <path id="路径_178964" data-name="路径 178964" d="M1758.37,2605.919c1.276,2.8,2.5,7.023,1.551,7.545-1.039.569-4.585-3.3-6.645-7.39-1.642-3.262-2.949-7.877-1.948-8.42C1752.42,2597.061,1756.266,2601.31,1758.37,2605.919Z" transform="translate(-1642.949 -2597.599)" fill="#0c3879"/>
      <path id="路径_178965" data-name="路径 178965" d="M1421.841,2683.073l61.407-33.74a19.66,19.66,0,0,0,6.416,12.316l-60.719,32.88a12.035,12.035,0,0,1-7.1-11.456Z" transform="translate(-1392.512 -2636.962)" fill="#fff"/>
      <path id="路径_178966" data-name="路径 178966" d="M1395.04,2806.391l6.407-4.468,4.935,8.707-7.676,2.635a14.826,14.826,0,0,1-3.666-6.874Z" transform="translate(-1372.127 -2753.063)" fill="#0c3879"/>
      <rect id="矩形_108644" data-name="矩形 108644" width="11.342" height="6.301" rx="3.151" transform="translate(0 60.202)" fill="#0c3879"/>
      <path id="路径_178967" data-name="路径 178967" d="M1342.114,2828.049l12.656-7.442,3.666,6.874-16.09,5.534Q1342.23,2830.532,1342.114,2828.049Z" transform="translate(-1331.857 -2767.279)" fill="#0c3879"/>
      <rect id="矩形_108645" data-name="矩形 108645" width="5.733" height="5.733" transform="translate(28.311 41.831) rotate(-27.947)" fill="#0c3879"/>
      <rect id="矩形_108646" data-name="矩形 108646" width="16.322" height="3.325" transform="translate(22.141 43.999) rotate(-30)" fill="#0c3879"/>
      <path id="路径_178968" data-name="路径 178968" d="M1543.078,2753.108v3.037l12.946,16.21v1.965s8.707.133,8.707,0v-2.652l-15.81-15.522-.229-2.35-1.489-2.176Z" transform="translate(-1484.765 -2714.788)" fill="#0c3879"/>
      <circle id="椭圆_1520" data-name="椭圆 1520" cx="3.838" cy="3.838" r="3.838" transform="translate(56.274 39.513) rotate(-76.717)" fill="#0e2e7f"/>
      <rect id="矩形_108647" data-name="矩形 108647" width="3.348" height="87.707" transform="matrix(0.988, 0.156, -0.156, 0.988, 71.968, 59.569)" fill="#0e2e7f"/>
      <path id="路径_178969" data-name="路径 178969" d="M1476.942,2948.042l-3.212-.944,29.369-99.885,3.226.251Q1491.633,2897.753,1476.942,2948.042Z" transform="translate(-1432 -2787.522)" fill="#0c3879"/>
      <path id="路径_178970" data-name="路径 178970" d="M1653.542,2940.113l3.212-.944-30.334-92.334-3.972-.039Z" transform="translate(-1545.155 -2787.205)" fill="#0c3879"/>
      <rect id="矩形_108648" data-name="矩形 108648" width="14.282" height="4.353" transform="translate(68.739 59.095)" fill="#0c3879"/>
    </g>
    <g id="mother" transform="translate(1339.024 2544)">
      <path id="路径_178971" data-name="路径 178971" d="M1881.869,2595.472c-.383-.114-.585-.23-.82-.137a1.085,1.085,0,0,0-.513.82,1.058,1.058,0,0,0-.752.1,1.479,1.479,0,0,0-.324,1.832c1.642-.662,2.588-.488,3.161-.157.716.413.771,1.023,1.572,1.265.913.275,2.087-.142,2.222-.718.015-.062.033-.192-.308-.82a4.05,4.05,0,0,0-1.094-1.538,3.772,3.772,0,0,0-1.538-.444A12.331,12.331,0,0,1,1881.869,2595.472Z" transform="translate(-1861.87 -2589.729)" fill="#b98b74"/>
      <path id="路径_178972" data-name="路径 178972" d="M1883.636,2586.053q-.337-2.926-.673-5.853a4.853,4.853,0,0,1,3.3-1.213l-.425-6.342a.605.605,0,0,1,1.208-.081l.447,6.663c0,.005,0,.01,0,.016a1.918,1.918,0,0,0,.579,1.494,1.6,1.6,0,0,0,1.615.269,10.293,10.293,0,0,1-2.422,4.036,41.5,41.5,0,0,0-1.009,6.054c-.194,2.154-.089,2.939-.4,5.247s-.576,2.677-.807,4.44a23.778,23.778,0,0,0,0,6.055,3.137,3.137,0,0,1-3.431,0,3.077,3.077,0,0,1-1.211-2.018,25.929,25.929,0,0,0,.4-4.036,31.015,31.015,0,0,0-.4-5.247C1880.18,2593.46,1880.6,2590.361,1883.636,2586.053Z" transform="translate(-1865.391 -2572.001)" fill="#ffbc92"/>
      <path id="路径_178973" data-name="路径 178973" d="M1897.91,2729.084c-1.894-.014-4.385-4.891-4.132-7.739a24.986,24.986,0,0,1,.821-4.307c.676-2.112.147-1.385,1.641-8.614.617-2.986.882-3.955,1.846-4.717a4.627,4.627,0,0,1,3.487-.82,4.861,4.861,0,0,1,3.692,3.281C1902.223,2724.531,1899.751,2729.1,1897.91,2729.084Z" transform="translate(-1884.171 -2671.542)" fill="#e4f9fb"/>
      <path id="路径_178974" data-name="路径 178974" d="M1836.532,2789.729a56.57,56.57,0,0,1,.163,7.534,12.605,12.605,0,0,0,2.653,3.2,12.062,12.062,0,0,0,1.687,1.213c5.131,3.065,11.33,1.705,12.461,1.439a17.12,17.12,0,0,1-.476-10.066c1.487-5.218,5.185-6.868,4.432-9.879-.517-2.069-3.073-3.308-8.2-5.743-3.935-1.868-5.793-2.322-6.824-2.433-.13-.014-.247-.023-.354-.028-1.935-.1-4.7-.231-6.19,1.419C1833.917,2778.553,1835.844,2781.947,1836.532,2789.729Z" transform="translate(-1822.411 -2726.389)" fill="#fff"/>
      <path id="路径_178975" data-name="路径 178975" d="M1895.347,2789.729a56.57,56.57,0,0,1,.163,7.534,12.605,12.605,0,0,0,2.653,3.2,12.062,12.062,0,0,0,1.687,1.213c.151.008.292.011.422.011-.308-4.445-.428-8.13-.476-10.814-.091-5.045.075-6.12.2-6.8.907-4.812,2.935-6.116,2.109-7.958a3.259,3.259,0,0,0-.87-1.119c-.13-.014-.247-.023-.354-.028-1.935-.1-4.7-.231-6.19,1.419C1892.732,2778.553,1894.659,2781.947,1895.347,2789.729Z" transform="translate(-1881.226 -2726.389)" fill="#e4f9fb"/>
      <g id="组_95869" data-name="组 95869" transform="translate(8.574 100.462)">
        <path id="路径_178976" data-name="路径 178976" d="M1889.738,3044.343a39.971,39.971,0,0,1-.41,5.469,4.676,4.676,0,0,0,1.64,2.188c2.019,1.416,4.959.74,6.7-.684a6.1,6.1,0,0,0,1.777-2.461,4.989,4.989,0,0,1-5.059-2.05c-1.142-1.719-.636-3.894-.274-5.47.617-2.678,1.1-4.792,1.471-6.417.5-2.224.778-3.53.854-4.111.593-4.576-.376-5.4.82-8.751.723-2.025,1.312-2.385,2.051-4.649a21.618,21.618,0,0,0,.958-7.11,85.414,85.414,0,0,1,1.23-13.126l-13.4-5.059a100.584,100.584,0,0,0,2.325,15.313,15.194,15.194,0,0,1,.547,5.2,19.862,19.862,0,0,1-1.367,5.333s-.256.768-.6,2c-.177.646-.379,1.418-.579,2.274-.268,1.15-.535,2.449-.739,3.792C1886.637,3032.916,1889.8,3035.186,1889.738,3044.343Z" transform="translate(-1887.473 -2992.113)" fill="#ffab79"/>
        <path id="路径_178977" data-name="路径 178977" d="M1890.508,3233.4a7.08,7.08,0,0,0,3.418.41c1.131-.158,1.347-.5,2.871-1.094,3.3-1.281,4.992-.718,5.743-2.051a4.072,4.072,0,0,0,.41-1.777,2.684,2.684,0,0,0-.39-1.815c-.594-.674-1.992-.68-3.389.049.982.05,1.711.422,1.779.86.089.57-.958,1.136-1.512,1.353a5.589,5.589,0,0,1-3.513-.071c-1.073-.277-1.231-.516-2.41-.786a11.19,11.19,0,0,0-2.051-.274,6.264,6.264,0,0,0-.957,2.051A6.343,6.343,0,0,0,1890.508,3233.4Z" transform="translate(-1889.61 -3170.504)" fill="#000370"/>
        <path id="路径_178978" data-name="路径 178978" d="M1888.977,3017.955s-.256.768-.6,2a2.777,2.777,0,0,1,1.964-1.591c1.659-.209,2.937,2.007,3.076,2.256,1.217,2.173.428,4.3.205,6.563a15.676,15.676,0,0,0,1.334,7.735c.5-2.224.778-3.53.854-4.111.593-4.576-.376-5.4.82-8.751.723-2.025,1.312-2.385,2.051-4.649a21.618,21.618,0,0,0,.958-7.11,85.414,85.414,0,0,1,1.23-13.126l-13.4-5.059a100.584,100.584,0,0,0,2.325,15.313,15.194,15.194,0,0,1,.547,5.2A19.862,19.862,0,0,1,1888.977,3017.955Z" transform="translate(-1886.849 -2992.113)" fill="#e28b69"/>
      </g>
      <g id="组_95870" data-name="组 95870" transform="translate(20.683 105.247)">
        <path id="路径_178979" data-name="路径 178979" d="M1838.142,3023.076c.388,4.152.878,8.117,1.436,11.881a28.017,28.017,0,0,0-.809,3.317,26.743,26.743,0,0,0-.421,4.613c-.008,2.5.348,2.8,1.368,9.3,1.07,6.815,1.146,9.449.82,12.169a29.322,29.322,0,0,1-.683,3.691,10.284,10.284,0,0,0,7.246,2.051c1.443-.218,3.77-.981,3.829-2.051.04-.727-.98-1.388-1.368-1.64a10.7,10.7,0,0,0-2.735-.957,12.764,12.764,0,0,1-1.64-.547c-1.255-.907-.465-3.913.137-6.563,0,0,.1-.43.253-1.175.4-1.926,1.184-5.968,1.661-10.173.435-3.83.651-5.745.274-7.384a11.454,11.454,0,0,1-.411-3.829,13.911,13.911,0,0,1,.683-3.008c.889-3.221.505-3.688,1.231-6.426s1.222-2.7,1.778-4.786a16.194,16.194,0,0,0,.137-7.383l-13.537-2.051C1837.543,3015.625,1837.786,3019.281,1838.142,3023.076Z" transform="translate(-1837.39 -3012.123)" fill="#ffb584"/>
        <path id="路径_178980" data-name="路径 178980" d="M1830.278,3244.088a8.015,8.015,0,0,0,2.734.547c1.373.025,1.748-.34,4.375-.958a30.771,30.771,0,0,0,4.1-.957,15,15,0,0,0,2.324-1.094c.856-1.463.912-3.075.137-3.965a3.7,3.7,0,0,0-2.324-.957,5.18,5.18,0,0,0-1.761.083c1.186.144,2.1.747,2.239,1.477.184.976-1.05,2.015-2.153,2.335-1.652.48-2.733-.732-5.571-1.435a14.331,14.331,0,0,0-3.829-.41,5.578,5.578,0,0,0-.273,5.333Z" transform="translate(-1828.774 -3182.969)" fill="#000370"/>
        <path id="路径_178981" data-name="路径 178981" d="M1838.142,3023.076c.388,4.152.878,8.117,1.436,11.881a28.017,28.017,0,0,0-.809,3.317c.09-.135,1.246-1.843,2.724-1.677,1.172.132,1.827,1.361,2.325,2.325,1.036,2.01,1.115,3.89,1.094,6.974-.036,5.247-.3,5.23-.137,6.973a26.59,26.59,0,0,0,.8,4.294c.4-1.926,1.184-5.968,1.661-10.173.435-3.83.651-5.745.274-7.384a11.454,11.454,0,0,1-.411-3.829,13.911,13.911,0,0,1,.683-3.008c.889-3.221.505-3.688,1.231-6.426s1.222-2.7,1.778-4.786a16.194,16.194,0,0,0,.137-7.383l-13.537-2.051C1837.543,3015.625,1837.786,3019.281,1838.142,3023.076Z" transform="translate(-1837.39 -3012.123)" fill="#ee976e"/>
      </g>
      <path id="路径_178982" data-name="路径 178982" d="M1805.335,2921.773c3.53.609,8.909,1.6,15.508,3.061,4.247.942,5.325,1.265,7.142,1.564,4.414.726,10.936.935,19.589-1.769l-8.5-50.673a34.39,34.39,0,0,1-14.079-.952c-1.91-.579-5.317-1.65-5.538-3.6a2.049,2.049,0,0,1,.165-1.023,68.2,68.2,0,0,0-3.24,7.028,51.859,51.859,0,0,0-3.348,11.808c-.189,1.244-.284,2.191-.343,2.753C1812.1,2895.521,1810.37,2904.915,1805.335,2921.773Z" transform="translate(-1805.335 -2797.506)" fill="#0e2e7f"/>
      <g id="组_95871" data-name="组 95871" transform="translate(25.228 54.462)">
        <path id="路径_178983" data-name="路径 178983" d="M1812.216,2910.634c.458,2.487.97,4.458,1.333,5.743.815,2.884,1.4,4.163,3.692,10.87.663,1.942.994,2.912,1.025,3.077.988,5.205-1.918,8.788-.2,10.665a2.786,2.786,0,0,0,1.846.821,4.476,4.476,0,0,0,2.359-2.154,4.338,4.338,0,0,0,.41-2.256l-1.436-8.921-1.948-17.125Z" transform="translate(-1807.326 -2884.118)" fill="#ffbc92"/>
        <path id="路径_178984" data-name="路径 178984" d="M1819.894,2825.856c-.56,1.347.718,3.706,3.692,5.025a15.47,15.47,0,0,0,3.487-.307,15.626,15.626,0,0,0,5.128-2.051l-2.154-6.358-1.026-17.74a4.982,4.982,0,0,0-1.5-3.661c-1.817-1.6-4.534-1.035-6.087-.133a6.4,6.4,0,0,0-2.666,3.281c-1.825,4.677,2.115,9.627,2.461,10.05q.461,5.229.923,10.459C1821.569,2824.543,1820.29,2824.9,1819.894,2825.856Z" transform="translate(-1818.286 -2799.75)" fill="#e4f9fb"/>
      </g>
      <path id="路径_178985" data-name="路径 178985" d="M1844.772,2690.782c2.96.058,4.952,2.278,5.617,3.019,5.055,5.634,1.518,15.463,1.219,16.26l3.2,2.852a19.387,19.387,0,0,1-11.542,2.753,18.992,18.992,0,0,1-8.067-2.6l2.945-3.761a21.43,21.43,0,0,1-1.3-6.084c-.184-2.83-.4-6.125,1.713-8.948C1838.9,2693.813,1841.218,2690.713,1844.772,2690.782Z" transform="translate(-1819.714 -2662.377)" fill="#000370"/>
      <path id="路径_178986" data-name="路径 178986" d="M1892.656,2921.773c2.936.439,6,.978,9.186,1.638q3.676.762,7.07,1.627c-1.555-10.883-2.889-19.274-4.2-26.127a38.091,38.091,0,0,1-.425-11.691c.69-5.795,2.381-8.19,2.925-8.91a14.477,14.477,0,0,1,6.8-4.829,9.783,9.783,0,0,1-5.237-2.585,9.366,9.366,0,0,1-1.837-2.517c-.935,1.862-2.063,4.232-3.24,7.028,0,0-1.035,2.458-2,5.079C1900.069,2884.932,1896.331,2900.437,1892.656,2921.773Z" transform="translate(-1892.656 -2797.506)" fill="#00147a"/>
    </g>
    <g id="hand-2" data-name="hand" transform="translate(1231.45 2592.781)">
      <path id="路径_178987" data-name="路径 178987" d="M1395.875,2706.253a20.335,20.335,0,0,0-.328-4.023c-.618-3.164-.21-2.338-.918-6.123a95.48,95.48,0,0,0-2.375-9.766l-8.665,1.837c.859,4.109,1.762,7.486,2.469,9.919,2.855,9.842,4.49,11.2,5.878,11.521a3.656,3.656,0,0,0,3.445-.908C1395.645,2708.378,1395.851,2707.9,1395.875,2706.253Z" transform="translate(-1382.867 -2679.78)" fill="#fbb486"/>
      <path id="路径_178988" data-name="路径 178988" d="M1410.636,2754.446c1.073,1.556,3.774,1.233,7.259,1.037,2.647-.149,6.48-.266,11.268-.06l1.3-4.271c-8.851-2.583-12.2-3.383-13.478-3.57-.266-.039-1.693-.243-3.62-.669-1.173-.259-1.1-.359-1.3-.311-1.342.343-1.626,3.315-1.715,4.25C1410.182,2752.688,1410.09,2753.653,1410.636,2754.446Z" transform="translate(-1403.131 -2725.622)" fill="#fbb486"/>
      <g id="组_95872" data-name="组 95872" transform="translate(25.827 23.451)">
        <path id="路径_178989" data-name="路径 178989" d="M1491.18,2759.1c.6-.2.774-.661,1.268-1.07.605-.5,1.179-.376,2.473-.451,2.974-.171,3.971-1.06,4.73-.305a1.227,1.227,0,0,1,.38,1.074s-.152.471-2.976.927a4.411,4.411,0,0,0-1.207.295,6.2,6.2,0,0,1,1.146.023c.847.137,1.631.1,1.87.528.2.366-.2.632-.361,1.635-.181,1.106.229,1.268-.022,1.969-.322.9-1.04.755-1.435,1.724-.335.821-.04,1.465-.426,1.683-.244.138-.52-.064-.946-.2-.166-.052-3.456-.876-3.7-1.009a3.589,3.589,0,0,1-1.091-.858,11.417,11.417,0,0,0-.807-.882,4.794,4.794,0,0,0-1.5-1l1.172-4.217A2.039,2.039,0,0,0,1491.18,2759.1Z" transform="translate(-1488.574 -2756.97)" fill="#fbb486"/>
        <path id="路径_178990" data-name="路径 178990" d="M1526.955,2770.17l.029-.1a.618.618,0,0,1,.79-.429l5.559,1.869a.689.689,0,0,1,.427.838l-.03.1a.618.618,0,0,1-.79.429l-5.559-1.869A.689.689,0,0,1,1526.955,2770.17Z" transform="translate(-1517.756 -2766.584)" fill="#fbb486"/>
        <path id="路径_178991" data-name="路径 178991" d="M1524.8,2778.009l.009-.031a.647.647,0,0,1,.826-.449l6.221,2.091a.721.721,0,0,1,.446.877l-.009.03a.646.646,0,0,1-.826.449l-6.221-2.091A.721.721,0,0,1,1524.8,2778.009Z" transform="translate(-1516.114 -2772.587)" fill="#fbb486"/>
        <path id="路径_178992" data-name="路径 178992" d="M1520.6,2784.547l.009-.031a.646.646,0,0,1,.826-.449l6.221,2.092a.721.721,0,0,1,.446.877l-.009.031a.646.646,0,0,1-.826.449l-6.221-2.091A.721.721,0,0,1,1520.6,2784.547Z" transform="translate(-1512.923 -2777.562)" fill="#fbb486"/>
        <path id="路径_178993" data-name="路径 178993" d="M1510.877,2791.559l.008-.031a.648.648,0,0,1,.812-.477l6.277,1.887a.719.719,0,0,1,.472.862l-.008.031a.648.648,0,0,1-.812.476l-6.276-1.887A.72.72,0,0,1,1510.877,2791.559Z" transform="translate(-1505.527 -2782.881)" fill="#fbb486"/>
      </g>
      <path id="路径_178994" data-name="路径 178994" d="M1384.2,2659.137c2.244-.885,4.684.988,4.9,1.156,1.8,1.421,2.308,3.481,3.061,6.53a28.252,28.252,0,0,1,.748,4.693,13.341,13.341,0,0,1-7.5,3.173,12.616,12.616,0,0,1-3.927-.316c-.661-2.472-1.791-7.921.272-12.447C1382.657,2659.941,1383.613,2659.369,1384.2,2659.137Z" transform="translate(-1380.572 -2658.901)" fill="#b7e5f9"/>
    </g>
    <g id="fingers" transform="translate(1284.919 2609.843)">
      <rect id="矩形_108649" data-name="矩形 108649" width="1.6" height="4.54" rx="0.8" transform="translate(0 4.528) rotate(-59.583)" fill="#dd966c"/>
      <rect id="矩形_108650" data-name="矩形 108650" width="1.601" height="5.213" rx="0.801" transform="translate(0.789 2.791) rotate(-53.704)" fill="#dd966c"/>
      <path id="矩形_108651" data-name="矩形 108651" d="M.908,0h0a.908.908,0,0,1,.908.908V5.095A.908.908,0,0,1,.908,6h0A.908.908,0,0,1,0,5.095V.908A.908.908,0,0,1,.908,0Z" transform="matrix(0.676, -0.737, 0.737, 0.676, 2.281, 1.339)" fill="#dd966c"/>
      <path id="矩形_108652" data-name="矩形 108652" d="M.908,0h0a.908.908,0,0,1,.908.908V3.7a.908.908,0,0,1-.908.908h0A.908.908,0,0,1,0,3.7V.908A.908.908,0,0,1,.908,0Z" transform="matrix(0.266, -0.964, 0.964, 0.266, 6.314, 2.481)" fill="#dd966c"/>
    </g>
    <g id="girl_whith_a_ball" data-name="girl whith a ball" transform="translate(1168.583 2608.301)">
      <g id="组_95875" data-name="组 95875" transform="translate(0 10.978)">
        <path id="路径_178995" data-name="路径 178995" d="M1197.9,3096.614c1.7.336,5.029,1,7.405-.72a10.7,10.7,0,0,1,3.316-2.146,11.676,11.676,0,0,1,2.28-.463c2.32-.329,2.7-.025,4.392-.385a13.088,13.088,0,0,0,5.586-2.774,46.529,46.529,0,0,0-6.126-2.543c-14.284-4.765-29.764-2.552-30.166.347-.095.683,1.94,2.047,6.01,4.777C1194.068,3095.035,1195.845,3096.207,1197.9,3096.614Z" transform="translate(-1184.583 -3038.456)" fill="#e09485"/>
        <g id="组_95873" data-name="组 95873" transform="translate(2.556 46.699)">
          <path id="路径_178996" data-name="路径 178996" d="M1202.157,3150.053a47.555,47.555,0,0,0,.539-6.819,16.5,16.5,0,0,1,.154-3.39,10.527,10.527,0,0,1,2.889-5.24,23.622,23.622,0,0,1,.809,4.392,24.677,24.677,0,0,1-1.811,11.481,2.04,2.04,0,0,1-2.581-.424Z" transform="translate(-1200.511 -3123.046)" fill="#cf8d6a"/>
          <path id="路径_178997" data-name="路径 178997" d="M1206.7,3198.343c.19-.059,1.4-.455,1.541-1.31a1.628,1.628,0,0,0-.462-1.233,19.375,19.375,0,0,0-4.777-3.776c-2.939-1.681-5.877-1.535-6.858-.308a4.472,4.472,0,0,0-.771,3.622Z" transform="translate(-1195.272 -3165.788)" fill="#ffc9b9"/>
          <path id="路径_178998" data-name="路径 178998" d="M1209.2,3110.542c.108,1.261.228,3.125.231,5.433a3.673,3.673,0,0,0,.464.4,3.424,3.424,0,0,0,1.616.639,3.668,3.668,0,0,0,2.89-1.04,28.837,28.837,0,0,0,1.5-9.94,28.276,28.276,0,0,0-.231-2.889,18.4,18.4,0,0,0,2.659-7.05c.307-1.838,1.154-4.827,3.582-9.824l-12.713,1.618q.114,1.078.227,2.158.579,5.509,1.159,11.018a11.206,11.206,0,0,0-1.618,4.392A22.012,22.012,0,0,0,1209.2,3110.542Z" transform="translate(-1205.631 -3086.271)" fill="#fbb486"/>
          <path id="路径_178999" data-name="路径 178999" d="M1209.2,3114.931c.108,1.261.228,3.125.231,5.433a3.673,3.673,0,0,0,.464.4,45.827,45.827,0,0,0,.307-7.568c-.1-2.15-.37-4.491,1.079-6.55a6.171,6.171,0,0,1,.925-1.04q.231-.828.462-1.657-.661-5.956-1.321-11.912-.6.041-1.234.1-.472.047-.926.1.413,3.849.82,7.7.291,2.756.579,5.509a11.206,11.206,0,0,0-1.618,4.392A22.012,22.012,0,0,0,1209.2,3114.931Z" transform="translate(-1205.631 -3090.66)" fill="#fff" opacity="0.59"/>
          <path id="路径_179000" data-name="路径 179000" d="M1217.839,3213.771c-.235.793-1.54,1.119-1.7,1.156a3.7,3.7,0,0,1-2.157-.231c-1.852-.635-3.682-1.335-5.548-1.926-2.061-.652-2.749-.617-3.236-1.387a2.567,2.567,0,0,1,0-2.62,2.775,2.775,0,0,1,3.082-1.156,15.607,15.607,0,0,1,5.086,1.7C1215.051,3210.212,1218.257,3212.358,1217.839,3213.771Z" transform="translate(-1202.554 -3178.519)" fill="#ffb1a0"/>
        </g>
        <path id="路径_179001" data-name="路径 179001" d="M1220.888,3019.929q-1.7-5.427-3.814-11.211c-1.721-4.69-3.508-9.123-5.317-13.292a6.537,6.537,0,0,0-2.427-2.2c-3.574-1.818-9.007.07-13.523,4.739-.548.7-1.413,1.763-2.543,3.005-1.866,2.051-3.367,3.389-3.7,3.7-1.646,1.535-3.625,4.91-4.97,13.061a19.583,19.583,0,0,0,6.126,2.774,22.218,22.218,0,0,0,10.749-.231A55.205,55.205,0,0,1,1220.888,3019.929Z" transform="translate(-1184.593 -2968.26)" fill="#fcc9b9"/>
        <g id="组_95874" data-name="组 95874" transform="translate(3.471 0)">
          <rect id="矩形_108653" data-name="矩形 108653" width="6.582" height="14.09" transform="translate(15.398 19.178) rotate(180)" fill="#e29d74"/>
          <path id="路径_179002" data-name="路径 179002" d="M1241.544,2954.451q-.751-7.455-1.5-14.91c-4.734-1.479-7.242-.774-8.668.231-1.284.9-2.16,2.382-4.392,3.121a7.983,7.983,0,0,1-3.236.347,26.948,26.948,0,0,1,2.08,10.633,25.922,25.922,0,0,1-.231,3.121,45.668,45.668,0,0,0,8.091-2.774,8.369,8.369,0,0,1,4.161-1.04A7.536,7.536,0,0,1,1241.544,2954.451Z" transform="translate(-1217.851 -2927.285)" fill="#d3796a"/>
          <ellipse id="椭圆_1521" data-name="椭圆 1521" cx="4.45" cy="6.646" rx="4.45" ry="6.646" transform="translate(6.833 6.293) rotate(-45)" fill="#fbb486"/>
          <path id="路径_179003" data-name="路径 179003" d="M1205.222,2921.835c2.525-.382,4.687-3.414,4.508-5.895-.108-1.491-1.013-2.125-.578-3.352.407-1.147,1.477-1.378,1.567-2.372a2.659,2.659,0,0,0-1.1-2.02,2.25,2.25,0,0,0,.347-4.392,3.725,3.725,0,0,0,2.458-5.5,9.2,9.2,0,0,0-3.258-.658,9.745,9.745,0,0,0-7.869,3.958,10.479,10.479,0,0,0-1.734,4.276c-.359,1.637-.731,3.339.115,4.854a9.653,9.653,0,0,0,1.5,1.849c.916.917,1.409,1.1,1.734,1.849a3.069,3.069,0,0,1,.116,1.965c-.418,1.282-2.016,2.188-3.93,2.08a7.57,7.57,0,0,0,3,2.658A5.283,5.283,0,0,0,1205.222,2921.835Z" transform="translate(-1199.096 -2896.056)" fill="#00118c"/>
        </g>
      </g>
      <g id="组_95876" data-name="组 95876" transform="translate(18.025 0)">
        <path id="路径_179004" data-name="路径 179004" d="M1303.4,2873.12c-.822.039-1.253,1.414-2.427,3.7a39.952,39.952,0,0,1-2.311,3.93l4.276,1.734c.4-1.025.795-2.144,1.156-3.352a42.47,42.47,0,0,0,1.04-4.276C1304.344,2873.317,1303.748,2873.1,1303.4,2873.12Z" transform="translate(-1289.407 -2866.413)" fill="#ffbc92"/>
        <rect id="矩形_108654" data-name="矩形 108654" width="6.954" height="5.779" rx="2.889" transform="translate(13.647 19.943) rotate(-150)" fill="#d3796a"/>
        <path id="路径_179005" data-name="路径 179005" d="M1265.168,2924.922c-1.135.161-2.177-1.136-3.121-2.312-1.12-1.4-2.517-3.133-1.965-4.392.628-1.433,2.994-.454,4.739-2.427.926-1.047.7-1.825,1.965-3.236a8.279,8.279,0,0,1,2.2-1.734l4.392,2.543a41.313,41.313,0,0,1-2.658,4.623c-1.549,2.329-1.518,1.762-3.236,4.277C1266.21,2924.121,1265.931,2924.813,1265.168,2924.922Z" transform="translate(-1259.958 -2895.099)" fill="#e09485"/>
        <path id="路径_179006" data-name="路径 179006" d="M1315.957,2853.957a3.373,3.373,0,0,1,.628-.494,9.7,9.7,0,0,1,1.8-1.136,1.9,1.9,0,0,0,.9-.468,3.021,3.021,0,0,1,.288-.31,2.606,2.606,0,0,1,.582-.354c.307-.175.81-.588.756-.981a.518.518,0,0,0-.381-.428.511.511,0,0,0-.336.1,1.418,1.418,0,0,0-.451.451,1.343,1.343,0,0,1-.988.431,1.971,1.971,0,0,0,.6-.69,3.1,3.1,0,0,1,.254-.539c.162-.234.275-.266.413-.479a1.374,1.374,0,0,0,.2-.547l.626-.844a.482.482,0,0,0-.152-.461.5.5,0,0,0-.43-.086c-.1.025-.2.084-.414.362a5.012,5.012,0,0,0-.338.534,6.379,6.379,0,0,1-.757.864c-.1.113-.269.294-.474.521.133-.246.361-.662.569-1,.084-.138.447-1.178.493-1.292a2.512,2.512,0,0,1,.315-.464c.2-.275.246-.322.255-.422a.428.428,0,0,0-.194-.405.51.51,0,0,0-.444.049c-.18.08-.368.226-.761.831-.346.533-.335.631-.575.854a3.433,3.433,0,0,0-.367.338,1.985,1.985,0,0,0-.347.586,5.886,5.886,0,0,0,.362-1.273,7.356,7.356,0,0,0,.039-1.308.872.872,0,0,0-.153-.579c-.114-.14-.337-.29-.5-.226s-.135.255-.313.931a3.5,3.5,0,0,1-.3.88,4.367,4.367,0,0,0-.282.459c-.132.31-.073.427-.192.729a1.587,1.587,0,0,1-.338.534c-.336.341-.851.495-.927.388-.04-.056.065-.148.231-.469a3.3,3.3,0,0,0,.3-.8,1.3,1.3,0,0,0-.014-.883c-.028-.058-.2-.4-.46-.4a.526.526,0,0,0-.354.2,1.754,1.754,0,0,0-.25.455,2.771,2.771,0,0,1-.273.408,4.693,4.693,0,0,0-.56,1.853,9.118,9.118,0,0,0-.18,1.262c-.038.954.177,1.208-.018,1.789s-.5.626-.513.928c-.02.415.526,1,2.846,1.778A2.535,2.535,0,0,1,1315.957,2853.957Z" transform="translate(-1299.958 -2845.075)" fill="#ffbc92"/>
      </g>
    </g>
  </g>
</svg>
