<svg xmlns="http://www.w3.org/2000/svg" xmlns:xlink="http://www.w3.org/1999/xlink" width="218" height="216.573" viewBox="0 0 218 216.573">
  <defs>
    <linearGradient id="linear-gradient" x1="-0.12" y1="0.544" x2="0.836" y2="0.339" gradientUnits="objectBoundingBox">
      <stop offset="0" stop-color="#1d71b8"/>
      <stop offset="1" stop-color="#36a9e1"/>
    </linearGradient>
    <linearGradient id="linear-gradient-2" x1="0" y1="0.5" x2="1" y2="0.5" xlink:href="#linear-gradient"/>
  </defs>
  <g id="footer-2" transform="translate(0)" style="isolation: isolate">
    <path id="路径_178858" data-name="路径 178858" d="M2495.268,1151.78s-7.27-111.747,102.525-111.747c100.735,0,91.936,111.747,91.936,111.747Z" transform="translate(-2486.497 -1034.328)" fill="#77aad4"/>
    <path id="路径_178859" data-name="路径 178859" d="M2554.979,1101.493s-7.565,69.591,55.739,104.663H2495.17S2489.708,1124.594,2554.979,1101.493Z" transform="translate(-2486.399 -1088.704)" fill="#6083a1"/>
    <path id="路径_178860" data-name="路径 178860" d="M2575.551,2099.533l-19.041-89.972h178.339l-9.611,89.972Z" transform="translate(-2540.768 -1892.11)" fill="#87b4d6"/>
    <path id="路径_178861" data-name="路径 178861" d="M2720.141,1638.917s-97.281,4.518-185.2-.292l-.785,2.844s160.432,2.738,186.4-.825Z" transform="translate(-2520.991 -1563.927)" fill="#608cad"/>
    <path id="路径_178862" data-name="路径 178862" d="M3171.907,998.358v-7.072l52.041-.747c12.056,3.177,61.795,24.658,54.654,109.432h-58.369S3219.7,1022,3171.907,998.358Z" transform="translate(-3085.235 -990.539)" fill="#a5c6e3"/>
    <path id="路径_178863" data-name="路径 178863" d="M3171.907,991.286s57.294,75.83,106.992,81.11c0,0-4.713-68.112-54.952-81.857Z" transform="translate(-3085.235 -990.539)" fill="#b7d1e9"/>
    <path id="路径_178864" data-name="路径 178864" d="M3363.295,1041.2s44.27,32.808,41.219,93.806h35.836s5.8-78.778-50.174-94.973Z" transform="translate(-3254.564 -1034.328)" fill="#0f395c"/>
    <rect id="矩形_108619" data-name="矩形 108619" width="172.868" height="9.15" transform="translate(20.593 198.274)" fill="#5e7c96"/>
    <rect id="矩形_108620" data-name="矩形 108620" width="198.291" height="9.15" transform="translate(6.39 207.423)" fill="#2f4d66"/>
    <path id="路径_178865" data-name="路径 178865" d="M3367.613,1044.859l22.527-1.32s46.1,8.859,45.08,91.466h5.13s5.292-80.371-49.109-94.973l-27.947,1.167S3366.313,1043.694,3367.613,1044.859Z" transform="translate(-3254.564 -1034.328)" fill="#2a4b67"/>
    <path id="路径_178866" data-name="路径 178866" d="M3629.613,1253.761l34.366-18.408,14.744,33.361-40.829,9.753S3634.076,1262.314,3629.613,1253.761Z" transform="translate(-3490.186 -1207.136)" fill="#77aad4"/>
    <ellipse id="椭圆_1515" data-name="椭圆 1515" cx="13.264" cy="22.027" rx="13.264" ry="22.027" transform="translate(152.285 31.196) rotate(-22.318)" fill="#386489"/>
    <path id="路径_178867" data-name="路径 178867" d="M3858.983,1127.032l-22.9,11.125,18.061,40.056,21.138-5.335Z" transform="translate(-3672.857 -1111.3)" fill="#386489"/>
    <ellipse id="椭圆_1516" data-name="椭圆 1516" cx="14.712" cy="24.431" rx="14.712" ry="24.431" transform="translate(172.944 20.805) rotate(-21.125)" fill="#77aad4"/>
    <g id="组_95845" data-name="组 95845" transform="translate(182.646 17.302)">
      <path id="路径_178868" data-name="路径 178868" d="M4037.7,1157.449c-4.093-11.316-12.5-18.65-18.77-16.382-2.354.851-4.074,2.934-5.087,5.8a6.343,6.343,0,0,1,2.069-1.245c5.654-2.044,13.226,4.565,16.913,14.762,3.56,9.844,2.2,19.433-2.987,21.925a7.346,7.346,0,0,0,3.913-.264C4040.027,1179.779,4041.795,1168.766,4037.7,1157.449Z" transform="translate(-4012.779 -1140.656)" fill="#0f395c"/>
      <path id="路径_178869" data-name="路径 178869" d="M4024.638,1195.672c-3.688-10.2-11.26-16.807-16.914-14.762a6.339,6.339,0,0,0-2.068,1.245c-1.689,4.775-1.419,11.726,1.137,18.8,3.285,9.084,9.347,15.6,14.857,16.645C4026.835,1215.106,4028.2,1205.517,4024.638,1195.672Z" transform="translate(-4004.589 -1175.942)" fill="url(#linear-gradient)"/>
    </g>
    <rect id="矩形_108621" data-name="矩形 108621" width="208.365" height="7.364" transform="translate(0 117.452)" fill="#2f4d66"/>
    <path id="路径_178870" data-name="路径 178870" d="M3226.676,1070.459s-6.651,35.6-1.387,108.24h2.473s-5.9-70.916,0-107.981Z" transform="translate(-3130.671 -1061.247)" fill="#608cad"/>
    <path id="路径_178871" data-name="路径 178871" d="M2672.451,1348.778s42.379,5.611,88.229,0l.634,1.182s-44.857,6.082-89.714-.011C2671.6,1349.948,2672.092,1349.262,2672.451,1348.778Z" transform="translate(-2642.594 -1307.488)" fill="#608cad"/>
    <path id="路径_178872" data-name="路径 178872" d="M3518.191,2016.926h-87.108l-5.326-7.364h92.435Z" transform="translate(-3309.825 -1892.11)" fill="#3f6787"/>
    <rect id="矩形_108622" data-name="矩形 108622" width="196.033" height="7.882" transform="translate(6.39 124.816)" fill="#92bbdd"/>
    <rect id="矩形_108623" data-name="矩形 108623" width="181.002" height="8.387" transform="translate(15.548 132.698)" fill="#77aad4"/>
    <rect id="矩形_108624" data-name="矩形 108624" width="22.963" height="39.987" transform="translate(138.627 158.287)" fill="#2f4d66"/>
    <rect id="矩形_108625" data-name="矩形 108625" width="10.808" height="16.1" transform="translate(143.966 160.321)" fill="#233a4d"/>
    <rect id="矩形_108626" data-name="矩形 108626" width="8.516" height="12.685" transform="translate(145.067 161.676)" fill="url(#linear-gradient-2)"/>
    <path id="路径_178873" data-name="路径 178873" d="M2796.3,2412.321l1.212-24.236h-25.375l3.464,24.236Z" transform="translate(-2731.546 -2227.005)" fill="#59809f"/>
    <rect id="矩形_108627" data-name="矩形 108627" width="25.375" height="24.236" transform="translate(91.277 161.08)" fill="#59809f"/>
    <rect id="矩形_108628" data-name="矩形 108628" width="20.315" height="19.403" transform="translate(93.904 163.964)" fill="#2f4d66"/>
    <path id="路径_178874" data-name="路径 178874" d="M2813.925,2432.51l.482-19.4h-20.315l3.183,19.4Z" transform="translate(-2750.967 -2249.143)" fill="#2f4d66"/>
    <path id="路径_178875" data-name="路径 178875" d="M2650.3,1171.864s-4.392-89.637,60.888-109.131l.58.3s-58.926,12.737-59.053,108.835Z" transform="translate(-2623.694 -1054.412)" fill="#608cad"/>
    <path id="路径_178876" data-name="路径 178876" d="M2943.237,1070.459s-35.841,16.534-32.028,108.24h2.859s-6.673-81.412,29.62-107.947Z" transform="translate(-2854.334 -1061.247)" fill="#608cad"/>
    <path id="路径_178877" data-name="路径 178877" d="M3171.907,997.021s58.247,34.321,52.333,108.685h-5.3s3.432-71.228-47.034-101.613Z" transform="translate(-3085.235 -996.274)" fill="#386489"/>
    <path id="路径_178878" data-name="路径 178878" d="M2584.23,2214.609l3.241,14.49h55.86l-.763,42.7h7.626v-43.461h38.129V2271.8h8.007v-43.461h41.751V2271.8h8.579v-43.652h10.867l1.227-13.536Z" transform="translate(-2565.293 -2073.523)" fill="#a5c6e3"/>
    <path id="路径_178879" data-name="路径 178879" d="M3192.76,2377.169l-.629-39.478-35.594-3.983h38.129v43.461Z" transform="translate(-3071.636 -2178.895)" fill="#639ec6"/>
    <path id="路径_178880" data-name="路径 178880" d="M3321.943,2073.455l4.766,7.881H3420.4v-7.881Z" transform="translate(-3217.978 -1948.639)" fill="#adcce5"/>
    <path id="路径_178881" data-name="路径 178881" d="M3262.308,2141.839l6.032,8.388h93.427v-8.388Z" transform="translate(-3165.216 -2009.141)" fill="#92bbdd"/>
    <path id="路径_178882" data-name="路径 178882" d="M2626.509,2340.324l50.033,4.746.762,37.953h2.669l.762-42.7Z" transform="translate(-2602.699 -2184.749)" fill="#639ec6"/>
    <rect id="矩形_108629" data-name="矩形 108629" width="181.196" height="1.27" transform="translate(15.548 132.698)" fill="#2f4d66"/>
    <path id="路径_178883" data-name="路径 178883" d="M2584.23,2214.609l.718,3.209h173.516l.291-3.209Z" transform="translate(-2565.293 -2073.523)" fill="#59809f"/>
    <path id="路径_178884" data-name="路径 178884" d="M4002.237,2332.054l-.13,1.212-8.613,1.457v-2.669Z" transform="translate(-3812.127 -2177.432)" fill="#639ec6"/>
    <path id="路径_178885" data-name="路径 178885" d="M3598.572,2333.708v43.461l-4.194-40.983-37.557-2.479Z" transform="translate(-3425.784 -2178.895)" fill="#639ec6"/>
    <ellipse id="椭圆_1517" data-name="椭圆 1517" cx="4.83" cy="11.293" rx="4.83" ry="11.293" transform="translate(185.107 26.793) rotate(-30)" fill="#fff" opacity="0.36"/>
    <path id="路径_178886" data-name="路径 178886" d="M3631.429,1386.62s8.692,19.836,28.417,20.435l-21.951,5.244s-5.533-21.974-8.281-24.706Z" transform="translate(-3490.186 -1340.968)" fill="#59809f"/>
    <path id="路径_178887" data-name="路径 178887" d="M3719.082,1590.429l1.705,5.555-11.752,6.521,10.4,19.458H3714.5l-9.354-15.734s-.85-8.772-1.766-12.532Z" transform="translate(-3555.452 -1521.286)" fill="#386489"/>
    <path id="路径_178888" data-name="路径 178888" d="M3262.308,2413.107l6.97,19.4h8.764l-7.289-19.4Z" transform="translate(-3165.216 -2249.143)" fill="#d9e5f0" opacity="0.22"/>
    <path id="路径_178889" data-name="路径 178889" d="M2806.264,2413.107l8.473,19.4h8.749l-7.692-19.4Z" transform="translate(-2761.736 -2249.143)" fill="#d9e5f0" opacity="0.22"/>
    <path id="路径_178890" data-name="路径 178890" d="M2917.276,2413.107l5.845,12.075.106-5.417-3.2-6.657Z" transform="translate(-2859.953 -2249.143)" fill="#d9e5f0" opacity="0.22"/>
    <path id="路径_178891" data-name="路径 178891" d="M3360.956,2413.107l5.758,12.287v-5.678l-3.216-6.609Z" transform="translate(-3252.494 -2249.143)" fill="#d9e5f0" opacity="0.22"/>
    <path id="路径_178892" data-name="路径 178892" d="M3808.672,1169.725l16.406-7.688s-6.9,5.93-.167,25.123a48.52,48.52,0,0,1-20.312-1.659S3802.468,1174.6,3808.672,1169.725Z" transform="translate(-3644.691 -1142.27)" fill="#fff" opacity="0.07"/>
  </g>
</svg>
