<svg xmlns="http://www.w3.org/2000/svg" width="1367.66" height="53.2" viewBox="0 0 1367.66 53.2">
  <path id="footer-1" d="M-1193.94-1110.081c-.318-.712-124.336,0-124.336,0-2.5-2.98-4.615-6.242-9.725-8.92a19.854,19.854,0,0,1,17.047,1.019c-.818-4.418-1.169-8.291-2.894-12.229a43.793,43.793,0,0,1,13.64,8.958,60.651,60.651,0,0,0-3.16-9.056,60.481,60.481,0,0,1,8.857,8.512c-.8-9.233-2.542-19.416-3.862-29.928,6.328,5.489,9.975,14.605,11.939,23.388,1.84-6.933,4.7-14.034,9.149-19.166-1.1,5.885-1.326,14.354-1.958,23.245,2.064-6.138,4.072-11.669,5.328-16.856a72.167,72.167,0,0,1,3.672,9.173,37.837,37.837,0,0,1,11.173-12.786c-1.611,5.88-1.682,14.48-2.5,23.43a50.185,50.185,0,0,0,2.823-6.979,51.879,51.879,0,0,1,3.227,4.306,59.684,59.684,0,0,1,11.156-27.217c-.539,9.845.925,19.083,1.186,30.981.923-1.047,1.947-2.107,3.048-3.166-.874-9.873-1.194-20.066-2.974-24.129a25.168,25.168,0,0,1,8.978,6.854,70.165,70.165,0,0,1,8.645-19.508c-.341,10.016.828,19.5,1.472,30.865,2.725-8.542,5.552-16.645,6.178-21.651,3.705,6.544,3.882,15.746,2.835,24.3,4.146-8.617,9.2-15.623,10.231-23.483,3.2,7.5,2.939,15.25,1.419,22.222.943-.469,1.878-.913,2.806-1.346.313-.861.627-1.716.939-2.557-.175-.491-.365-.978-.579-1.466.336.147.627.3.953.453,1.733-4.687,3.27-8.936,3.549-11.843a21.183,21.183,0,0,1,4.038,10.818,18.932,18.932,0,0,0,4.594-4.129,28.144,28.144,0,0,1-2.935,10.645q1.018.786,1.912,1.577a21.021,21.021,0,0,1,4.356,1.058c-1.123-5.584-.269-12.608,3.541-20.871,1.842,8.788,6.454,16.393,12.755,23.441-.655-3.827-1.1-7.274-2.635-10.775a50.962,50.962,0,0,1,8.485,4.679c.358-8.467,2.037-16.007-.555-22.721a65.383,65.383,0,0,1,11.808,15.036c2.749-9.078,6.77-18.312,12.184-24.25a135.869,135.869,0,0,0-3.772,26.528c1.845-6.073,4.519-12.074,8.414-16.562-1.1,5.883-1.325,14.353-1.958,23.243,2.065-6.136,4.073-11.667,5.331-16.856a72.763,72.763,0,0,1,3.67,9.176,37.854,37.854,0,0,1,11.173-12.788c-1.612,5.879-1.682,14.479-2.494,23.429a50.569,50.569,0,0,0,2.821-6.977,51.436,51.436,0,0,1,3.34,4.469c1.361-8.4,3.847-18.128,8.364-24.678-.488,3.1-.784,6.93-1.045,11.157a48.975,48.975,0,0,1,10.62-11.4c-2.319,8.229-3.041,16.483-4.752,26.237a50.661,50.661,0,0,1,8.41-7.718,38.914,38.914,0,0,1,12.418-15.213c-1.62,5.9-1.682,14.554-2.505,23.543a64.135,64.135,0,0,1,6.342-10.65c.2,5.176,1.205,10.832,1.942,17.28,1.757-8.725,5.8-20.455,14.984-24.706-1.345,3.216-1.621,11.141-2.264,18.959a40.4,40.4,0,0,0,4.713-12.331,40.811,40.811,0,0,1,2.867,9.365q1.05-1.559,2.3-3.155a52.405,52.405,0,0,0,2.669,6.977c-.769-8.95-.833-17.55-2.357-23.429a37.3,37.3,0,0,1,10.56,12.788,75.6,75.6,0,0,1,3.47-9.175c1.19,5.189,3.088,10.72,5.038,16.856-.6-8.888-.809-17.36-1.85-23.243,3.6,4.387,6.091,10.224,7.83,16.157a44.918,44.918,0,0,0,4.153-11.786,48.846,48.846,0,0,1,2.9,8.7,107.094,107.094,0,0,0,1.786-20.372c3.315,5.568,5.134,12.8,6,20.009a65.894,65.894,0,0,1,10.036-13c-2.076,5.687-1.249,11.963-.743,18.893.835-.445,1.688-.887,2.6-1.313a42.615,42.615,0,0,0-2.372,10.03c-.007.212-.017.425-.027.641,5.911-7.018,10.231-14.592,11.965-23.337,3.6,8.263,4.409,15.287,3.349,20.871a18.926,18.926,0,0,1,4.117-1.059c.564-.527,1.165-1.052,1.807-1.576a29.458,29.458,0,0,1-2.774-10.645,18.27,18.27,0,0,0,4.342,4.129,21.925,21.925,0,0,1,3.817-10.818c.263,2.909,1.715,7.156,3.354,11.843.308-.149.584-.306.9-.453-.2.488-.381.977-.547,1.466.3.841.592,1.7.888,2.556.882.436,1.77.883,2.669,1.355-1.441-6.974-1.7-14.723,1.325-22.232.973,7.862,5.752,14.868,9.673,23.484-.99-8.551-.823-17.753,2.677-24.3.592,5.009,3.264,13.109,5.841,21.651.609-11.367,1.715-20.849,1.391-30.867a72.3,72.3,0,0,1,8.173,19.51,23.98,23.98,0,0,1,8.487-6.854c-1.682,4.064-1.985,14.258-2.813,24.129,1.043,1.058,2.011,2.12,2.882,3.166.247-11.9,1.632-21.136,1.124-30.982a61.691,61.691,0,0,1,10.549,27.257,51.064,51.064,0,0,1,3.045-4.344,52.245,52.245,0,0,0,2.668,6.979c-.768-8.95-.834-17.55-2.358-23.43a37.288,37.288,0,0,1,10.561,12.786,75.2,75.2,0,0,1,3.47-9.173c1.188,5.187,3.088,10.718,5.038,16.856-.6-8.891-.812-17.36-1.852-23.245,4.211,5.132,6.908,12.233,8.649,19.166,1.857-8.783,5.3-17.9,11.287-23.388-1.249,10.512-2.9,20.695-3.652,29.928a58.744,58.744,0,0,1,8.373-8.512,63.44,63.44,0,0,0-2.988,9.056,41.339,41.339,0,0,1,12.9-8.958c-1.631,3.938-1.962,7.808-2.737,12.229a21.792,21.792,0,0,1,3.982-1.686c2.71-8.836,5.733-16.4,7.417-23.347a72.882,72.882,0,0,1,3.672,9.175,37.847,37.847,0,0,1,11.173-12.786c-1.612,5.878-1.682,14.48-2.5,23.428a50.411,50.411,0,0,0,2.823-6.978,51.982,51.982,0,0,1,3.227,4.306,59.687,59.687,0,0,1,11.155-27.217c-.539,9.845.926,19.081,1.186,30.979.923-1.047,1.947-2.105,3.049-3.166-.875-9.871-1.194-20.065-2.975-24.127a25.179,25.179,0,0,1,8.979,6.852,70.059,70.059,0,0,1,8.645-19.508c-.341,10.016.827,19.5,1.472,30.867,2.725-8.542,5.552-16.645,6.178-21.653,3.7,6.544,3.882,15.748,2.834,24.3,4.146-8.618,9.2-15.625,10.232-23.485,3.2,7.5,2.938,15.252,1.419,22.224.943-.471,1.878-.914,2.805-1.346q.471-1.295.939-2.559c-.174-.489-.365-.976-.578-1.466.335.148.627.305.953.454,1.732-4.687,3.268-8.936,3.548-11.845a21.212,21.212,0,0,1,4.038,10.82,18.949,18.949,0,0,0,4.594-4.129,28.146,28.146,0,0,1-2.935,10.645q1.018.786,1.912,1.577a21.158,21.158,0,0,1,4.356,1.057c-1.123-5.582-.268-12.608,3.541-20.871,1.58,7.534,5.192,14.194,10.159,20.382a41.227,41.227,0,0,0-1.768-4.492q1.93,1.524,3.581,3.038a29.156,29.156,0,0,0-1.851-6.259,53.53,53.53,0,0,1,6.189,3.2c-.87-6.827-2-14.028-2.925-21.391a29.5,29.5,0,0,1,6.059,7.533,22.691,22.691,0,0,0-1.392-7.382,65.981,65.981,0,0,1,10.745,13.234,39.667,39.667,0,0,1,4.407-7.6c2.378-5.711,5.313-10.977,8.841-14.846a138.725,138.725,0,0,0-3.455,21.3q.418.927.8,1.85a41.824,41.824,0,0,1,7.292-13.181,114.83,114.83,0,0,0-1.321,13.055,36.489,36.489,0,0,1,4.1-4.392q.317-1.149.591-2.274.3.627.589,1.254.972-.8,2.024-1.548a36.843,36.843,0,0,0-.86,4.228c.726,1.768,1.363,3.52,1.918,5.24a37.85,37.85,0,0,1,11.173-12.786q-.091.334-.176.679,1.22-1.932,2.649-3.822c-.422,7.713.384,15.054.879,23.593q.161.236.317.471c.5-3.063,1.142-6.3,1.981-9.5-.426-4.73-.96-8.691-1.917-10.878a23.183,23.183,0,0,1,4.6,2.707,37.337,37.337,0,0,1,3.7-7.008c-.42,2.667-.7,5.876-.934,9.413q.326.326.642.662,1.019-1.429,2.16-2.82a68.26,68.26,0,0,1,7.448-15.609c-.1,2.791-.073,5.539.022,8.3l.236-.183q-.109.389-.214.777c.241,6.3.845,12.667,1.293,19.734q.572-.479,1.155-.934c2.375-7.344,4.607-14.1,5.155-18.479a25.024,25.024,0,0,1,2.675,7.62,34.862,34.862,0,0,1,6.013-5.415c-1.054,3.843-1.448,8.849-1.823,14.354,2.9-5.376,5.491-10.36,6.195-15.745,3.2,7.5,2.938,15.25,1.419,22.222.942-.468,1.877-.913,2.8-1.346q.471-1.292.939-2.557c-.175-.49-.365-.978-.578-1.466.335.147.627.3.952.453,1.732-4.687,3.269-8.935,3.547-11.843a18.187,18.187,0,0,1,2.57,4.595,18.4,18.4,0,0,1,4.738-3.2,31.9,31.9,0,0,0-1.424,8.069,17.157,17.157,0,0,0,2.744-2.778,28.172,28.172,0,0,1-2.933,10.646q.347.267.679.536a39.374,39.374,0,0,0,3.384-9.844,44.07,44.07,0,0,1,1.831,4.979,41.134,41.134,0,0,1,3.91-13.907q.146.7.316,1.386c-.165-.951-.354-1.853-.573-2.7a37.307,37.307,0,0,1,10.559,12.785,75.622,75.622,0,0,1,3.47-9.173c1.051,4.582,2.654,9.431,4.358,14.729q.236.159.466.318c.013-.3.027-.592.042-.887-.478-7.889-.744-15.261-1.679-20.548a30.7,30.7,0,0,1,2.2,3.068,20.2,20.2,0,0,0-1.121-4.354,66.775,66.775,0,0,1,9.419,11.169,42.827,42.827,0,0,0,1.479-5.511,51.52,51.52,0,0,1,2.1,5.667c.621-1.817,1.295-3.623,2.02-5.386a112.949,112.949,0,0,0,.566-11.949,35.308,35.308,0,0,1,2.553,5.3,42.577,42.577,0,0,1,5.844-8.507,140.959,140.959,0,0,0-3.164,18.184c.277,1.477.509,2.969.7,4.462a41.238,41.238,0,0,1,7.106-12.678c-.239,1.28-.437,2.683-.607,4.186q1.668-1.971,3.605-3.941c-1.355,3.712-1.473,7.675-1.251,11.907.617-1.974,1.168-3.892,1.622-5.765a72.537,72.537,0,0,1,3.668,9.175,39.91,39.91,0,0,1,7.2-9.5q.1-.448.188-.9.112.257.221.513a34.207,34.207,0,0,1,3.56-2.9,53.153,53.153,0,0,0-1.41,8.965,36.138,36.138,0,0,1,1.395,8.577q.186-.549.344-1.09a51.507,51.507,0,0,1,3.339,4.47c.176-1.09.372-2.2.588-3.327a29.713,29.713,0,0,1-1.537-7.62,16.806,16.806,0,0,0,2.592,2.775c1.478-6.027,3.62-12.015,6.716-16.507-.394,2.5-.663,5.487-.89,8.771.1.515.227,1.056.372,1.622a48.694,48.694,0,0,1,10.089-10.632c-.527,1.871-.972,3.743-1.364,5.634a67.027,67.027,0,0,0,5.287,12.338,38.636,38.636,0,0,1,12.145-14.667c-1.049,3.827-1.445,8.81-1.817,14.291.291-.214.5-.235.594.016a40.557,40.557,0,0,0,.43,5.858,66.417,66.417,0,0,1,4.628-7.271c.166,4.375.913,9.094,1.585,14.345a9.728,9.728,0,0,0,.976.152c2.024-8.281,6.122-18.111,14.358-21.924-1.345,3.216-1.621,11.142-2.264,18.96a40.428,40.428,0,0,0,4.711-12.332,40.81,40.81,0,0,1,2.867,9.365q1.05-1.559,2.3-3.155a52.55,52.55,0,0,0,2.667,6.978c-.769-8.95-.833-17.551-2.355-23.43a37.293,37.293,0,0,1,10.553,12.788,75.735,75.735,0,0,1,3.469-9.175c1.19,5.189,3.086,10.72,5.036,16.856-.6-8.888-.809-17.359-1.85-23.243,3.6,4.388,6.089,10.223,7.826,16.156a44.89,44.89,0,0,0,4.151-11.786,48.861,48.861,0,0,1,2.9,8.7,107.165,107.165,0,0,0,1.786-20.371c3.313,5.567,5.132,12.8,6,20.008a65.887,65.887,0,0,1,10.03-13c-2.074,5.687-1.248,11.963-.742,18.893.835-.445,1.688-.886,2.6-1.313a42.612,42.612,0,0,0-2.372,10.03c-.008.212-.017.426-.027.641,5.908-7.018,10.227-14.592,11.958-23.337,3.6,8.263,4.407,15.287,3.347,20.871a18.977,18.977,0,0,1,4.115-1.058c.564-.527,1.165-1.053,1.807-1.577a29.459,29.459,0,0,1-2.773-10.645,18.212,18.212,0,0,0,4.341,4.129,21.931,21.931,0,0,1,3.815-10.818c.263,2.91,1.715,7.156,3.353,11.843.308-.149.584-.306.9-.453-.2.488-.38.978-.546,1.466q.444,1.262.887,2.557c.882.435,1.769.882,2.668,1.354-1.441-6.973-1.7-14.723,1.324-22.232.972,7.862,5.75,14.868,9.669,23.485-.989-8.552-.823-17.754,2.677-24.3.592,5.009,3.262,13.109,5.837,21.651.609-11.367,1.714-20.849,1.391-30.867a72.343,72.343,0,0,1,8.169,19.51,23.968,23.968,0,0,1,8.483-6.854c-1.682,4.064-1.985,14.259-2.812,24.129,1.042,1.059,2.011,2.12,2.881,3.166.247-11.9,1.63-21.136,1.122-30.981a61.693,61.693,0,0,1,10.544,27.256,51.037,51.037,0,0,1,3.043-4.345,52.2,52.2,0,0,0,2.668,6.979c-.769-8.95-.835-17.55-2.358-23.43a37.291,37.291,0,0,1,10.556,12.786,75.386,75.386,0,0,1,3.469-9.173c1.187,5.188,3.086,10.718,5.036,16.856-.6-8.891-.812-17.36-1.852-23.245,4.209,5.133,6.906,12.233,8.645,19.166,1.856-8.783,5.3-17.9,11.281-23.388-1.248,10.512-2.9,20.695-3.651,29.929a58.675,58.675,0,0,1,8.37-8.512,63.464,63.464,0,0,0-2.987,9.055,41.35,41.35,0,0,1,12.89-8.958c-1.63,3.939-1.961,7.809-2.735,12.23a21.684,21.684,0,0,1,3.98-1.687c2.708-8.835,5.729-16.4,7.413-23.347a73.04,73.04,0,0,1,3.67,9.175,37.818,37.818,0,0,1,11.167-12.785c-1.611,5.877-1.681,14.48-2.495,23.427a50.386,50.386,0,0,0,2.822-6.977,51.576,51.576,0,0,1,3.226,4.3,59.706,59.706,0,0,1,11.15-27.217c-.539,9.845.924,19.081,1.185,30.979.922-1.047,1.946-2.105,3.047-3.166-.874-9.87-1.193-20.065-2.973-24.127a25.182,25.182,0,0,1,8.975,6.852A70.093,70.093,0,0,1-251.324-1161c-.341,10.016.827,19.5,1.472,30.867,2.724-8.542,5.549-16.644,6.175-21.653,3.7,6.544,3.88,15.748,2.833,24.3,4.145-8.618,9.2-15.625,10.227-23.485,3.2,7.5,2.938,15.252,1.419,22.224.942-.47,1.877-.914,2.8-1.346q.471-1.295.939-2.559c-.174-.488-.365-.976-.578-1.466.335.148.627.306.952.454,1.732-4.687,3.267-8.935,3.547-11.845a21.224,21.224,0,0,1,4.036,10.82,18.957,18.957,0,0,0,4.592-4.128,28.172,28.172,0,0,1-2.934,10.645q1.018.784,1.911,1.576a21.156,21.156,0,0,1,4.354,1.057c-1.123-5.582-.268-12.607,3.539-20.871,1.842,8.79,6.451,16.394,12.749,23.441-.654-3.825-1.1-7.274-2.633-10.773a50.815,50.815,0,0,1,8.481,4.68c.359-8.467,2.036-16.007-.554-22.724a65.352,65.352,0,0,1,11.8,15.039c2.747-9.079,6.766-18.313,12.178-24.253a136.026,136.026,0,0,0-3.77,26.531c1.844-6.073,4.517-12.074,8.41-16.564-1.1,5.885-1.325,14.354-1.957,23.245,2.064-6.139,4.07-11.669,5.328-16.856a72.512,72.512,0,0,1,3.668,9.173,37.861,37.861,0,0,1,11.167-12.786c-1.611,5.88-1.681,14.48-2.495,23.43a50.206,50.206,0,0,0,2.822-6.979,51.228,51.228,0,0,1,3.339,4.472c1.36-8.4,3.845-18.13,8.359-24.681-.488,3.1-.786,6.933-1.045,11.159a48.891,48.891,0,0,1,10.615-11.4c-2.318,8.228-3.039,16.484-4.75,26.237a50.445,50.445,0,0,1,8.406-7.718,38.921,38.921,0,0,1,12.412-15.215c-1.618,5.9-1.681,14.555-2.5,23.545a64.138,64.138,0,0,1,6.339-10.649c.2,5.176,1.205,10.83,1.942,17.279,1.756-8.724,5.794-20.455,14.977-24.705-1.345,3.213-1.621,11.141-2.263,18.959a40.447,40.447,0,0,0,4.711-12.332,40.835,40.835,0,0,1,2.867,9.364q1.05-1.556,2.3-3.154a52.486,52.486,0,0,0,2.667,6.979c-.769-8.95-.832-17.55-2.355-23.43a37.3,37.3,0,0,1,10.554,12.786,75.492,75.492,0,0,1,3.468-9.173c1.19,5.187,3.086,10.717,5.036,16.853-.6-8.888-.809-17.357-1.85-23.243,3.6,4.39,6.088,10.224,7.826,16.159a44.855,44.855,0,0,0,4.148-11.786,48.6,48.6,0,0,1,2.9,8.7,106.99,106.99,0,0,0,1.783-20.372c3.316,5.567,5.135,12.8,6,20.006a65.936,65.936,0,0,1,10.031-13c-2.074,5.688-1.247,11.963-.742,18.891.835-.445,1.688-.885,2.6-1.311a42.578,42.578,0,0,0-2.372,10.028c-.008.213-.017.427-.027.641,5.908-7.018,10.227-14.59,11.959-23.335,3.6,8.261,4.406,15.287,3.346,20.869a19.068,19.068,0,0,1,4.116-1.057q.842-.791,1.8-1.577a29.422,29.422,0,0,1-2.771-10.645,18.262,18.262,0,0,0,4.341,4.129,21.951,21.951,0,0,1,3.815-10.82c.263,2.909,1.715,7.158,3.353,11.845.308-.151.584-.306.9-.455-.2.49-.381.978-.547,1.466.3.843.592,1.7.887,2.559.882.435,1.769.882,2.665,1.354-1.438-6.975-1.7-14.725,1.327-22.232.968,7.832,5.707,14.825,9.61,23.406.358.787,2.024-1.516,3.685-3.818,1.679-2.327,3.353-4.652,3.672-3.793s-1.715,15,11.268,12.941c.858,2.684-14.111,7.794-13.68,10.882H-528.347a.948.948,0,0,0,.009.106Zm649.712-17.387q-.275-1.331-.488-2.7-.174,1.116-.36,2.257Q-544.653-1127.692-544.228-1127.468Z" transform="translate(1329.181 1162.779)" fill="#0d1422" stroke="rgba(0,0,0,0)" stroke-miterlimit="10" stroke-width="1"/>
</svg>
