<svg id="Logo-B" xmlns="http://www.w3.org/2000/svg" width="309" height="82" viewBox="0 0 309 82">
  <rect id="矩形_49980" data-name="矩形 49980" width="309" height="82" transform="translate(0 0)" fill="#fff" opacity="0"/>
  <g id="组_94053" data-name="组 94053" transform="translate(2 0)">
    <g id="组_88721" data-name="组 88721" transform="translate(0 0)">
      <rect id="矩形_49595" data-name="矩形 49595" width="59.23" height="59.23" fill="#fff" opacity="0"/>
      <g id="组_88720" data-name="组 88720" transform="translate(2.479 1.304)">
        <path id="路径_160354" data-name="路径 160354" d="M118.436,128.826v1.9h-4.209v1.842h3.92v1.842h-3.895a.959.959,0,0,0-.049.194c0,.561,0,1.123-.005,1.684,0,.162.033.258.225.258,1.348,0,2.7.01,4.045,0,.089,0,.219-.14.255-.241.5-1.453.992-2.909,1.482-4.365.324-.959.648-1.919.961-2.882a.315.315,0,0,1,.358-.259q4.322.011,8.642,0c.158,0,.271.01.341.2q1.753,4.67,3.519,9.333a.936.936,0,0,1,.028.153H132.6c-1.566,0-3.132,0-4.7,0-.215,0-.325-.037-.361-.285-.069-.485-.189-.96-.3-1.481-.723,0-1.44-.008-2.156.01-.07,0-.176.152-.2.249-.115.487-.209.979-.313,1.484H101.514c-.1-.494-.219-.969-.3-1.449-.037-.225-.118-.307-.35-.3q-.874.022-1.749,0c-.217-.005-.3.066-.331.28-.066.418-.154.833-.26,1.242-.026.1-.159.237-.244.237-2.1.014-4.2.01-6.359.01.136-.42.255-.806.384-1.19q1.38-4.092,2.763-8.184c.054-.161.076-.312.322-.311,2.972.009,5.944.006,8.951.006l3.441,9.108.07-.015v-9.07Zm7.676,2.312-.078-.022c-.388,1.277-.775,2.553-1.171,3.855h2.158c-.307-1.294-.608-2.563-.909-3.833m-25.182,3.833c-.312-1.315-.614-2.582-.914-3.85l-.067-.013c-.391,1.28-.782,2.559-1.179,3.863Z" transform="translate(-80.508 -81.855)" fill="#fff"/>
        <path id="路径_160355" data-name="路径 160355" d="M144.231,93.736l13.275,1.044L150.889,105.8c-2.245-4.024-4.493-7.969-6.658-12.061" transform="translate(-106.024 -64.79)" fill="#fff"/>
        <path id="路径_160356" data-name="路径 160356" d="M137.233,94.474c2.122,3.895,4.209,7.726,6.343,11.64l-13.673-.945,7.33-10.695" transform="translate(-99.035 -65.149)" fill="#fff"/>
        <path id="路径_160357" data-name="路径 160357" d="M83.537,128.859v1.907H79.769v7.718H73.408v-7.712H69.637v-1.913Z" transform="translate(-69.637 -81.885)" fill="#fff"/>
        <path id="路径_160358" data-name="路径 160358" d="M132.358,93.851,124.905,104.6l-4.636-10.157,12.089-.588" transform="translate(-94.335 -64.846)" fill="#fff"/>
        <path id="路径_160359" data-name="路径 160359" d="M113.057,95.246c1.621,3.466,3.211,6.869,4.813,10.3H106.165l6.892-10.3" transform="translate(-87.455 -65.525)" fill="#fff"/>
        <path id="路径_160360" data-name="路径 160360" d="M157.5,87.551l-12.253-.971,5.9-6.946c2.114,2.635,4.2,5.234,6.353,7.917" transform="translate(-106.52 -57.926)" fill="#fff"/>
        <path id="路径_160361" data-name="路径 160361" d="M110.007,95.078l-6.979,10.247-2.673-8.769,9.652-1.478" transform="translate(-84.621 -65.443)" fill="#fff"/>
        <path id="路径_160362" data-name="路径 160362" d="M127.216,79.46l5.084,7.085-11.93.515,6.846-7.6" transform="translate(-94.384 -57.842)" fill="#fff"/>
        <path id="路径_160363" data-name="路径 160363" d="M163.9,87.6l-6.52-8.21,11.27,1.444L163.9,87.6" transform="translate(-112.44 -57.808)" fill="#fff"/>
        <path id="路径_160364" data-name="路径 160364" d="M97.007,107.116l-8.645.6L94.4,98.528l2.606,8.588" transform="translate(-78.771 -67.122)" fill="#fff"/>
        <path id="路径_160365" data-name="路径 160365" d="M123.312,79.212l-6.835,7.707-3.461-6.257,10.251-1.523.046.073" transform="translate(-90.797 -57.685)" fill="#fff"/>
        <path id="路径_160366" data-name="路径 160366" d="M100.576,90.014l6.127-7.82,3.466,6.326-9.593,1.494" transform="translate(-84.729 -59.172)" fill="#fff"/>
        <path id="路径_160367" data-name="路径 160367" d="M168.429,76.159l-11.207-1.5,4.484-4.246,6.77,5.7-.048.05" transform="translate(-112.361 -53.437)" fill="#fff"/>
        <path id="路径_160368" data-name="路径 160368" d="M145.481,73.79l-10.6-.118c.106-.111.164-.183.233-.241,1.687-1.44,3.38-2.874,5.059-4.324.254-.219.394-.218.636.025,1.518,1.523,3.055,3.027,4.585,4.538a1.082,1.082,0,0,1,.086.12" transform="translate(-101.464 -52.724)" fill="#fff"/>
        <path id="路径_160369" data-name="路径 160369" d="M93.36,87.9c.194,1.468.393,2.881.564,4.3.088.722.067.729-.654.885-1.78.386-3.561.767-5.366,1.156a.769.769,0,0,1-.04-.2c.134-1.226.269-2.452.415-3.677a.338.338,0,0,1,.169-.223c1.617-.742,3.237-1.477,4.912-2.237" transform="translate(-78.528 -61.951)" fill="#fff"/>
        <path id="路径_160370" data-name="路径 160370" d="M87.962,107.252c-.022-.384-.057-.768-.065-1.153-.037-2.072-.06-4.144-.106-6.216-.007-.324.092-.446.415-.514,1.827-.386,3.649-.8,5.473-1.207.076-.017.157-.017.305-.032l-5.953,9.141-.07-.018" transform="translate(-78.493 -66.928)" fill="#fff"/>
        <path id="路径_160371" data-name="路径 160371" d="M119.627,70.56l3.858,4.153L113.3,76.18c-.011-.021-.021-.043-.031-.064l6.353-5.556" transform="translate(-90.923 -53.51)" fill="#fff"/>
        <path id="路径_160372" data-name="路径 160372" d="M105.252,75.219c.169.847.338,1.638.48,2.434.156.87.144.87-.68,1.215q-2.857,1.2-5.714,2.4c-.1.043-.207.079-.341.13,0-.671,0-1.307,0-1.943a5,5,0,0,0,.033-.614c-.049-.394.128-.577.469-.745,1.743-.856,3.472-1.743,5.207-2.617.161-.082.326-.158.544-.263" transform="translate(-83.958 -55.777)" fill="#fff"/>
        <path id="路径_160373" data-name="路径 160373" d="M130.052,73.657l-3.774-4.027,9.5-.988c.014.031.028.063.043.094l-5.773,4.92" transform="translate(-97.266 -52.577)" fill="#fff"/>
        <path id="路径_160374" data-name="路径 160374" d="M156.219,69.469,151.9,73.511l-5.035-4.749c.01-.024.02-.049.031-.073l9.324.78" transform="translate(-107.308 -52.599)" fill="#fff"/>
        <path id="路径_160375" data-name="路径 160375" d="M78.606,109.886c1.511-2.93,3-5.828,4.5-8.726l.069.015c0,.738-.007,1.477,0,2.215q.028,2.678.073,5.355c0,.228-.046.356-.3.4-1.357.24-2.711.493-4.067.738a1.769,1.769,0,0,1-.278,0" transform="translate(-74.012 -68.403)" fill="#fff"/>
        <path id="路径_160376" data-name="路径 160376" d="M105.7,82.3c-2.011,2.56-4.023,5.118-6.093,7.751-.074-.585-.139-1.086-.2-1.588-.126-1.055-.237-2.111-.382-3.162-.031-.225.028-.3.214-.377q3.209-1.33,6.414-2.668l.047.045" transform="translate(-83.968 -59.201)" fill="#fff"/>
        <path id="路径_160377" data-name="路径 160377" d="M111.462,72.87l6.877-2.162.038.068-6.293,5.389-.622-3.294" transform="translate(-90.039 -53.582)" fill="#fff"/>
        <path id="路径_160378" data-name="路径 160378" d="M126.7,67.216l3.99-2.263a7.738,7.738,0,0,0,.829-.48.75.75,0,0,1,.9-.038c1.218.625,2.451,1.22,3.679,1.889l-9.382.96c0-.023-.01-.046-.015-.069" transform="translate(-97.471 -50.465)" fill="#fff"/>
        <path id="路径_160379" data-name="路径 160379" d="M147.1,66.02c1.344-.681,2.687-1.364,4.034-2.039a.344.344,0,0,1,.281-.009c1.516.929,3.026,1.868,4.52,2.87l-8.835-.75V66.02" transform="translate(-107.424 -50.29)" fill="#fff"/>
        <path id="路径_160380" data-name="路径 160380" d="M82.832,101.3l-4.189,8.294-.063-.015c.078-.578.15-1.157.234-1.734q.332-2.287.678-4.573a.41.41,0,0,1,.163-.268c1.014-.574,2.033-1.137,3.053-1.7.016-.009.042,0,.124,0" transform="translate(-73.999 -68.47)" fill="#fff"/>
        <path id="路径_160381" data-name="路径 160381" d="M146.373,63.8c-.648.318-1.247.614-1.848.906-.78.38-1.557.764-2.342,1.132a.567.567,0,0,1-.41.054c-1.272-.608-2.535-1.235-3.869-1.89l8.469-.2" transform="translate(-102.937 -50.219)" fill="#fff"/>
        <path id="路径_160382" data-name="路径 160382" d="M90.875,84.613c.6-.609,1.207-1.214,1.8-1.827.427-.439.842-.89,1.324-1.4-.041,1.06-.074,2.026-.127,2.991,0,.081-.123.184-.213.227q-2.217,1.04-4.441,2.064a.827.827,0,0,1-.215.037.13.13,0,0,1,0-.034.153.153,0,0,1,.016-.028l.882-.949.935-1.007.038-.073" transform="translate(-79.084 -58.778)" fill="#fff"/>
        <path id="路径_160383" data-name="路径 160383" d="M165.1,65.807c-1.166.4-2.241.776-3.321,1.139a.377.377,0,0,1-.285-.029c-1.4-.858-2.8-1.725-4.177-2.663l7.783,1.553" transform="translate(-112.407 -50.441)" fill="#fff"/>
        <path id="路径_160384" data-name="路径 160384" d="M118.8,69.284l-6.809,2.124-.027-.046c.562-.456,1.123-.914,1.687-1.367.667-.537,1.342-1.065,2-1.608a.481.481,0,0,1,.554-.087c.73.291,1.472.55,2.209.823.1.037.2.085.381.161" transform="translate(-90.283 -52.385)" fill="#fff"/>
        <path id="路径_160385" data-name="路径 160385" d="M120.436,66.308l7.665-1.787.03.066c-.187.108-.372.219-.561.324-1.386.771-2.769,1.544-4.159,2.308a.545.545,0,0,1-.38.069c-.872-.294-1.737-.608-2.6-.916l.009-.064" transform="translate(-94.412 -50.571)" fill="#fff"/>
        <path id="路径_160386" data-name="路径 160386" d="M80.716,98.5C82,96.587,83.281,94.674,84.6,92.7c-.14,1.283-.278,2.485-.4,3.688a.435.435,0,0,1-.25.4c-1.065.574-2.124,1.162-3.185,1.745l-.055-.034" transform="translate(-75.041 -64.286)" fill="#fff"/>
        <path id="路径_160387" data-name="路径 160387" d="M77.008,105.884c-.118.854-.232,1.707-.355,2.56-.172,1.2-.348,2.392-.534,3.587a.494.494,0,0,1-.183.327c-.606.34-1.225.656-1.933,1.03,1.013-2.564,1.991-5.04,2.969-7.516l.037.011" transform="translate(-71.766 -70.697)" fill="#fff"/>
        <path id="路径_160388" data-name="路径 160388" d="M107.691,70.948c1.209-.722,2.339-1.369,3.439-2.063a8.4,8.4,0,0,1,2.271-.63l.04.08c-.19.156-.376.315-.569.469-1.047.833-2.1,1.659-3.14,2.5a.539.539,0,0,1-.59.114c-.446-.164-.9-.294-1.452-.468" transform="translate(-88.2 -52.388)" fill="#fff"/>
        <path id="路径_160389" data-name="路径 160389" d="M89.532,84.859l-.038.073-.935,1.007-.882.949q-.543.29-1.087.583c-.115.062-.227.13-.34.195l.008-.009c.015-.072.007-.165.049-.214q1.382-1.592,2.772-3.173a9.8,9.8,0,0,0,.806-.933,3.947,3.947,0,0,1,2.1-1.432.219.219,0,0,1,.185.013c-.486.524-.978,1.043-1.455,1.574-.4.448-.792.911-1.187,1.367" transform="translate(-77.741 -59.024)" fill="#fff"/>
        <path id="路径_160390" data-name="路径 160390" d="M99.632,77.286c.577-.51,1.152-1.021,1.731-1.529.686-.6,1.379-1.2,2.058-1.806a.425.425,0,0,1,.491-.1c.479.176.967.331,1.519.517l-5.771,2.959-.029-.041" transform="translate(-84.269 -55.093)" fill="#fff"/>
        <path id="路径_160391" data-name="路径 160391" d="M146.525,62.854l-7.93.176c0-.018,0-.035-.006-.052,1.219-.276,2.429-.6,3.659-.8a4.908,4.908,0,0,1,1.515.191c.9.15,1.792.317,2.763.489" transform="translate(-103.271 -49.419)" fill="#fff"/>
        <path id="路径_160392" data-name="路径 160392" d="M128.731,64.167l-7.074,1.647c-.006-.017-.012-.033-.017-.049.146-.059.291-.121.438-.178,1.086-.413,2.177-.818,3.26-1.243a3.348,3.348,0,0,1,1.364-.251c.674.025,1.348.007,2.021.007,0,.023.006.045.009.067" transform="translate(-95.004 -50.361)" fill="#fff"/>
        <path id="路径_160393" data-name="路径 160393" d="M156.967,63.468c.911,0,1.822,0,2.735,0a1.2,1.2,0,0,1,.4.058q1.793.668,3.581,1.347a1.135,1.135,0,0,1,.141.1l-6.848-1.4-.008-.111" transform="translate(-112.236 -50.058)" fill="#fff"/>
        <path id="路径_160394" data-name="路径 160394" d="M83.9,92.936l.863-.217-3.272,4.923-.06-.034q.526-1.068,1.053-2.137c.339-.687.669-1.379,1.024-2.057a2.94,2.94,0,0,1,.4-.485l-.007.007" transform="translate(-75.39 -64.295)" fill="#fff"/>
        <path id="路径_160395" data-name="路径 160395" d="M131.847,63.019l5.851-.765a13.407,13.407,0,0,1-5.851.765" transform="translate(-99.983 -49.467)" fill="#fff"/>
        <path id="路径_160396" data-name="路径 160396" d="M100.5,75.5c-1.078.934-2.134,1.9-3.244,2.788a4.126,4.126,0,0,1-1.415.61l4.627-3.446.032.048" transform="translate(-82.419 -55.893)" fill="#fff"/>
        <path id="路径_160397" data-name="路径 160397" d="M148.236,62.165l5.874.442a16.135,16.135,0,0,1-5.874-.442" transform="translate(-107.977 -49.424)" fill="#fff"/>
        <path id="路径_160398" data-name="路径 160398" d="M79.234,82.9a.592.592,0,1,1,.578-.591.583.583,0,0,1-.578.591" transform="translate(-74.023 -58.94)" fill="#fff"/>
        <path id="路径_160399" data-name="路径 160399" d="M117.648,52.245a.586.586,0,0,1,.6.571.592.592,0,1,1-1.184.017.586.586,0,0,1,.584-.589" transform="translate(-92.772 -44.596)" fill="#fff"/>
        <path id="路径_160400" data-name="路径 160400" d="M71.64,71.732a.591.591,0,0,1-.586.587.6.6,0,0,1-.6-.575.593.593,0,1,1,1.185-.012" transform="translate(-70.036 -53.789)" fill="#fff"/>
        <path id="路径_160401" data-name="路径 160401" d="M107.179,56.431a.58.58,0,0,1-.6.57.564.564,0,0,1-.577-.584.58.58,0,0,1,.608-.592.591.591,0,0,1,.564.606" transform="translate(-87.378 -46.338)" fill="#fff"/>
        <path id="路径_160402" data-name="路径 160402" d="M85.235,57.186a.562.562,0,0,1-.574.584.581.581,0,0,1-.592-.609.569.569,0,0,1,.6-.563.556.556,0,0,1,.567.589" transform="translate(-76.677 -46.714)" fill="#fff"/>
        <path id="路径_160403" data-name="路径 160403" d="M94.238,62.9a.544.544,0,0,1-.555-.6.585.585,0,0,1,.6-.571.614.614,0,0,1,.568.619.572.572,0,0,1-.617.553" transform="translate(-81.366 -49.209)" fill="#fff"/>
        <path id="路径_160404" data-name="路径 160404" d="M127.415,37.926a.573.573,0,0,1-.573.592.56.56,0,0,1-.6-.557.581.581,0,0,1,.582-.619.6.6,0,0,1,.592.584" transform="translate(-97.248 -37.342)" fill="#fff"/>
        <path id="路径_160405" data-name="路径 160405" d="M116.877,66.8l4.754-1.575a18.433,18.433,0,0,1-4.754,1.575" transform="translate(-92.681 -50.913)" fill="#fff"/>
        <path id="路径_160406" data-name="路径 160406" d="M90.758,88.824l.935-1.007-.935,1.007" transform="translate(-79.94 -61.909)" fill="#fff"/>
      </g>
    </g>
    <path id="路径_163807" data-name="路径 163807" d="M33.674-18.485H24.613v7.162H20.784v-7.162H12.02v-3.24h8.764v-3.752H12.956v-3.2h4a20.415,20.415,0,0,0-2.042-4.86l3.148-.81a19.184,19.184,0,0,1,2.3,4.945l-2.34.725h7.147a46.78,46.78,0,0,0,2.085-5.8l3.659.81q-1.234,2.942-2.212,4.988h4.169v3.2H24.613v3.752h9.062Zm8.168-24H24.527q-.213,1.705-.6,3.965H39.886v23.789q0,2.686-1.532,3.539a1.961,1.961,0,0,1-.553.256,29.834,29.834,0,0,1-7.488.6,14.774,14.774,0,0,0-1.446-3.5q3.489.171,5.914.043.893-.256.979-.938V-34.771H9.892v24.429H5.851V-38.523H19.975q.043-.512.213-1.663.213-1.535.3-2.3H3.809v-3.794h17.06q.17-2.174.255-4.05l4.467.426q-.085.767-.3,2.3-.17.9-.213,1.322H41.843Zm22.946-1.833v-.469H62.237v-2.856H73.894v-2.686h3.872v2.686H90.614v2.856H68.321v.512q0,1.194.681,1.407a4.594,4.594,0,0,0,1.4.171H83.211a34.121,34.121,0,0,0,5.743-.341q.213,1.833.383,2.814a32.574,32.574,0,0,1-5.743.3H70.15q-4,0-4.935-1.876A6.178,6.178,0,0,1,64.789-44.321Zm3.531,8.484v2.174H83.551v-2.174ZM64.7-31.147v-7.29H87.338v7.29Zm-2.978-14.2L59.344-42.36a26.324,26.324,0,0,0-5.956-4.647l2.34-2.771A24.572,24.572,0,0,1,61.6-45.472Zm-.893,11.17L58.45-31.062a25.058,25.058,0,0,0-6-4.349,2.08,2.08,0,0,0-.213-.128l2.212-2.814A26.906,26.906,0,0,1,60.833-34.174Zm-3.106,7.589,3.191,1.876q-2.255,7.674-4.595,13.771l-3.531-1.833A115.477,115.477,0,0,0,57.727-26.585Zm7.445,7.162H67.9v-2.558H65.3Q65.3-20.7,65.172-19.423Zm2.723-7.5H65.3v2.473h2.6Zm2.723-2.643v16.243q-.085,2-1.064,2.6a9.716,9.716,0,0,1-3.744.469,6.685,6.685,0,0,0-.766-2.643q1.872.043,2.425,0a.453.453,0,0,0,.425-.469V-16.95H64.832a15.2,15.2,0,0,1-2.765,6.693,7.9,7.9,0,0,0-2.255-1.492q2.85-3.709,2.85-10.914V-29.57ZM77.3-23.686H75.425q-.17.639-.468,1.961-.383,1.492-.553,2.217.553.384,1.7,1.108A27.485,27.485,0,0,0,77.3-23.686Zm2.3,8.228L78.106-13.2a8.255,8.255,0,0,0-1.234-1.151,12.409,12.409,0,0,1-3.957,4.008,8.745,8.745,0,0,0-1.489-1.876,9.927,9.927,0,0,0,3.531-3.794,3.622,3.622,0,0,0-.425-.341q-.553-.469-.808-.639l-.255.9-2.17-.9q1.149-4.434,1.617-6.693H71.3v-2.771h2.212q.425-1.961.766-4.008l2.553.3q-.34,1.791-.766,3.709h2l.468-.043,1.489.213a34.034,34.034,0,0,1-1.914,9.465A14.692,14.692,0,0,1,79.595-15.458Zm4-7.674.766-.341a19.943,19.943,0,0,1,2,2.643v-5.883H83.594ZM89.55-12.943h.511a.959.959,0,0,0,.425-.171,2.64,2.64,0,0,0,.255-.9q.043-.767.128-3.411A6.693,6.693,0,0,0,92.783-16.4a30.748,30.748,0,0,1-.3,4.135,3.087,3.087,0,0,1-.851,1.407,2.617,2.617,0,0,1-1.489.426H88.869A2.578,2.578,0,0,1,87-11.195q-.6-.6-.638-2.856v-4.263l-1.276.725a22.1,22.1,0,0,0-1.489-2.942q-.3,6.864-3.4,10.4a5.85,5.85,0,0,0-2.042-1.535,1.649,1.649,0,0,1-.213-.085q2.978-3.325,2.978-9.976V-29.57h8.254v14.794a15.28,15.28,0,0,0,.043,1.663A.4.4,0,0,0,89.55-12.943Zm50.515-16.8H125.047q4.042,11.383,14.89,14.964,1.234.384,2.468.682a15.563,15.563,0,0,0-2.723,3.88,25,25,0,0,1-15.7-11.937,32.672,32.672,0,0,1-1.574-3.155q-3.744,10.4-17.826,15.135a11.269,11.269,0,0,0-2.255-3.411l-.213-.213q13.061-4.178,16.294-13.387a24.212,24.212,0,0,0,.723-2.558h-14.72v-4.135h15.231q.043-.682.043-1.918v-7.248h-16.55v-4.135h38.034v4.135h-17.23v7.29q0,1.279-.043,1.876h16.167Zm40.219-9.507H163.1a40.23,40.23,0,0,0,8.679,13.984A38.69,38.69,0,0,0,180.284-39.247Zm11.232,0h-6.509a47.559,47.559,0,0,1-10.04,16.84,40.941,40.941,0,0,0,17.1,8.143,16.9,16.9,0,0,0-2.893,4.008,43.206,43.206,0,0,1-17.613-9,51.354,51.354,0,0,1-17.315,9.081,17.7,17.7,0,0,0-2.553-3.965,45.3,45.3,0,0,0,16.762-8.143,49.938,49.938,0,0,1-9.785-16.968h-6.339V-43.17h17.4v-7.162h4.127v7.162h17.656Zm22.776,4.391h-6.765v2.387h6.765Zm-6.765,7.418h6.765v-2.43h-6.765Zm0,8.313v2.473h10.934v3.2H207.528v3.112H204V-37.627h13.7v13H207.528v2.43h10.338v3.07ZM235.9-21.256H225.354v5.329H235.9Zm1.276-21.1h-14.21v3.666h14.21Zm-3.106,11.34V-35.41h-8.721v4.391Zm-26.037-11.6H215.1a39.258,39.258,0,0,0-4.042-4.519A37.849,37.849,0,0,1,208.038-42.615Zm29.738,14.836H225.354v3.155h14.295V-10.47H235.9v-2H225.354v2.217h-3.659V-38.1h-2.468v-4.349l-2.212,2.473q-1.021-1.535-1.659-2.345v2.558h-8.168V-41.55a33.3,33.3,0,0,1-4,4.008,10.012,10.012,0,0,0-2.553-2.43,26.421,26.421,0,0,0,7.786-9.976q.085-.213.17-.384h3.872a45.841,45.841,0,0,1,6.679,7.077.5.5,0,0,0,.085.128V-45.6h8.509v-4.69h4.042v4.69h9.275v7.5h-3.276Z" transform="translate(62.077 65.521)" fill="#fff"/>
    <path id="路径_163808" data-name="路径 163808" d="M.32-11.578v2.319H4.5V-.873H6.818V-9.258H11v-2.319ZM18.628-9.5H12.055v2.275h6.454v.892H12.055v3.3A2.165,2.165,0,0,0,14.207-.873h6.572V-7.341A2.165,2.165,0,0,0,18.628-9.5Zm-.119,6.348H14.325V-4.337h4.184ZM22.352-.873h2.27V-9.5h-2.27Zm0-11.448v2.29h2.27v-2.29ZM32.944-9.5H26.372V-.873h2.27V-7.222h4.184V-.873H35.1V-7.341A2.165,2.165,0,0,0,32.944-9.5Zm10.3,0H36.668v2.275h6.454v.892H36.668v3.3A2.165,2.165,0,0,0,38.82-.873h6.572V-7.341A2.165,2.165,0,0,0,43.241-9.5Zm-.119,6.348H38.938V-4.337h4.184ZM53.433-9.5H46.861V-.873h2.27V-7.222h4.184V-.873h2.27V-7.341A2.165,2.165,0,0,0,53.433-9.5Zm10.786-2.081a2.193,2.193,0,0,0-2.2,2.2v8.5h2.3V-4.323h6.053V-.873h2.329v-8.5a2.206,2.206,0,0,0-2.211-2.2Zm.1,4.936V-9.258h6.053v2.617Zm18.693-.7A2.168,2.168,0,0,0,80.85-9.5H76.429a2.174,2.174,0,0,0-2.151,2.156V-6.2A2.174,2.174,0,0,0,76.429-4.04h4.3v.892H76.548V-3.46h-2.27v.431A2.174,2.174,0,0,0,76.429-.873H80.85a2.168,2.168,0,0,0,2.166-2.156V-4.174A2.168,2.168,0,0,0,80.85-6.33h-4.3v-.892h4.184v.312h2.285Zm6.973.119V-9.5H86.8v-2.557h-2.27v9.024A2.168,2.168,0,0,0,86.7-.873h3.294V-3.148H86.8V-7.222ZM93.52-9.5a2.177,2.177,0,0,0-2.166,2.156V-.873h2.27V-7.222h4.644V-9.5Zm7.848,0a2.174,2.174,0,0,0-2.151,2.156v4.311a2.174,2.174,0,0,0,2.151,2.156h4.421a2.165,2.165,0,0,0,2.151-2.156V-7.341A2.165,2.165,0,0,0,105.79-9.5Zm.119,2.275h4.184v4.074h-4.184ZM115.67-9.5H109.1V-.873h2.27V-7.222h4.184V-.873h2.27V-7.341A2.165,2.165,0,0,0,115.67-9.5Zm5.489,0a2.174,2.174,0,0,0-2.151,2.156v4.311A2.174,2.174,0,0,0,121.16-.873h4.421a2.165,2.165,0,0,0,2.151-2.156V-7.341A2.165,2.165,0,0,0,125.581-9.5Zm.119,2.275h4.184v4.074h-4.184Zm18.4-2.275H129.32V-.873h2.27V-7.222h2.849V-.873h2.285V-7.222h2.849V-.873h2.255V-7.341A2.165,2.165,0,0,0,139.675-9.5ZM143.8-.873h2.27V-9.5H143.8Zm0-11.448v2.29h2.27v-2.29Zm12.24,5.1V-9.5h-6.558a2.174,2.174,0,0,0-2.151,2.156v4.311a2.174,2.174,0,0,0,2.151,2.156h6.572V-3.148H149.6V-7.222ZM164.08-9.5h-6.572v2.275h6.454v.892h-6.454v3.3a2.165,2.165,0,0,0,2.151,2.156h6.572V-7.341A2.165,2.165,0,0,0,164.08-9.5Zm-.119,6.348h-4.184V-4.337h4.184Zm3.442-9.188v9.307a2.174,2.174,0,0,0,2.151,2.156h1.869V-3.148h-1.736v-9.188Zm19.732.758H177.27v10.7h9.866V-3.193H179.6V-5.066h6.068V-7.385H179.6V-9.258h7.537Zm7.448-.743V-9.5h-4.317a2.165,2.165,0,0,0-2.151,2.156v4.311a2.165,2.165,0,0,0,2.151,2.156h6.587V-12.321Zm-4.184,5.1h4.184v4.074H190.4ZM204.538-9.5v6.348h-4.184V-9.5h-2.27v6.467a2.165,2.165,0,0,0,2.151,2.156h4.421a2.165,2.165,0,0,0,2.151-2.156V-9.5ZM216.7-7.222V-9.5h-6.558A2.174,2.174,0,0,0,208-7.341v4.311a2.174,2.174,0,0,0,2.151,2.156h6.572V-3.148h-6.454V-7.222ZM224.745-9.5h-6.572v2.275h6.454v.892h-6.454v3.3a2.165,2.165,0,0,0,2.151,2.156H226.9V-7.341A2.165,2.165,0,0,0,224.745-9.5Zm-.119,6.348h-4.184V-4.337h4.184Zm9.317-4.074V-9.5h-3.19v-2.557h-2.27v9.024A2.168,2.168,0,0,0,230.65-.873h3.294V-3.148h-3.19V-7.222ZM235.16-.873h2.27V-9.5h-2.27Zm0-11.448v2.29h2.27v-2.29ZM240.694-9.5a2.174,2.174,0,0,0-2.151,2.156v4.311a2.174,2.174,0,0,0,2.151,2.156h4.421a2.165,2.165,0,0,0,2.151-2.156V-7.341A2.165,2.165,0,0,0,245.115-9.5Zm.119,2.275H245v4.074h-4.184ZM255-9.5h-6.572V-.873h2.27V-7.222h4.184V-.873h2.27V-7.341A2.165,2.165,0,0,0,255-9.5Zm10.786-2.081a2.193,2.193,0,0,0-2.2,2.2v8.5h2.3V-4.323h6.053V-.873h2.329v-8.5a2.206,2.206,0,0,0-2.211-2.2Zm.1,4.936V-9.258h6.053v2.617ZM278.066-9.5A2.177,2.177,0,0,0,275.9-7.341V-.873h2.27V-7.222h4.644V-9.5Zm12.344,0h-4.421a2.174,2.174,0,0,0-2.151,2.156v4.311a2.174,2.174,0,0,0,2.151,2.156h6.572V-3.148h-6.454V-4.04h6.454v-3.3A2.165,2.165,0,0,0,290.409-9.5Zm-4.3,3.464V-7.222h4.184v1.189ZM300.691-9.5h-6.572v2.275h6.454v.892h-6.454v3.3A2.165,2.165,0,0,0,296.27-.873h6.572V-7.341A2.165,2.165,0,0,0,300.691-9.5Zm-.119,6.348h-4.184V-4.337h4.184Z" transform="translate(0.288 77.905)" fill="#3fedec"/>
  </g>
</svg>
