<svg xmlns="http://www.w3.org/2000/svg" width="160" height="42" viewBox="0 0 160 42">
  <g id="组_94054" data-name="组 94054" transform="translate(3535 -756)">
    <rect id="矩形_49980" data-name="矩形 49980" width="160" height="42" transform="translate(-3535 756)" fill="#fff" opacity="0"/>
    <g id="组_94053" data-name="组 94053" transform="translate(-3531.973 757.68)">
      <g id="组_88721" data-name="组 88721" transform="translate(0.333 0)">
        <rect id="矩形_49595" data-name="矩形 49595" width="31" height="30" transform="translate(-0.36 0.32)" fill="#19282b" opacity="0"/>
        <g id="组_88720" data-name="组 88720" transform="translate(0.625 0.787)">
          <path id="路径_160354" data-name="路径 160354" d="M105.5,128.812v.958h-2.155v.927h2.007v.927h-1.994a.474.474,0,0,0-.025.1c0,.282,0,.565,0,.848,0,.082.017.13.115.13.69,0,1.381.005,2.071,0,.045,0,.112-.07.13-.121.257-.731.508-1.464.759-2.2.166-.483.332-.966.492-1.45a.161.161,0,0,1,.183-.13q2.213.006,4.425,0c.081,0,.139.005.175.1q.9,2.35,1.8,4.7a.463.463,0,0,1,.014.077h-.744c-.8,0-1.6,0-2.405,0-.11,0-.166-.019-.185-.144-.035-.244-.1-.483-.152-.746-.37,0-.737,0-1.1.005-.036,0-.09.076-.1.126-.059.245-.107.493-.16.747H96.833c-.053-.249-.112-.488-.153-.73-.019-.113-.061-.154-.179-.152q-.448.011-.9,0c-.111,0-.152.033-.169.141-.034.211-.079.419-.133.625-.013.049-.082.119-.125.119-1.076.007-2.153.005-3.256.005.069-.211.131-.406.2-.6q.706-2.06,1.414-4.119c.028-.081.039-.157.165-.157,1.522,0,3.043,0,4.583,0l1.762,4.584.036-.007v-4.565Zm3.93,1.164-.04-.011-.6,1.94h1.1l-.465-1.929m-12.892,1.929-.468-1.938-.034-.006-.6,1.944Z" transform="translate(-86.078 -105.171)" fill="#19282b"/>
          <path id="路径_160355" data-name="路径 160355" d="M144.231,93.736l6.8.525-3.388,5.545c-1.149-2.025-2.3-4.011-3.409-6.07" transform="translate(-124.67 -79.167)" fill="#19282b"/>
          <path id="路径_160356" data-name="路径 160356" d="M133.656,94.474l3.247,5.859-7-.476,3.753-5.383" transform="translate(-114.099 -79.715)" fill="#19282b"/>
          <path id="路径_160357" data-name="路径 160357" d="M76.753,128.859v.96H74.824V133.7H71.568v-3.881h-1.93v-.963Z" transform="translate(-69.637 -105.216)" fill="#19282b"/>
          <path id="路径_160358" data-name="路径 160358" d="M126.458,93.851l-3.815,5.408-2.374-5.112,6.189-.3" transform="translate(-106.992 -79.252)" fill="#19282b"/>
          <path id="路径_160359" data-name="路径 160359" d="M109.694,95.246l2.464,5.183h-5.993l3.529-5.183" transform="translate(-96.586 -80.287)" fill="#19282b"/>
          <path id="路径_160360" data-name="路径 160360" d="M151.522,83.619l-6.273-.489,3.02-3.5,3.252,3.985" transform="translate(-125.421 -68.708)" fill="#19282b"/>
          <path id="路径_160361" data-name="路径 160361" d="M105.3,95.078l-3.573,5.158-1.368-4.414,4.941-.744" transform="translate(-92.3 -80.162)" fill="#19282b"/>
          <path id="路径_160362" data-name="路径 160362" d="M123.875,79.46l2.6,3.566-6.108.259,3.5-3.825" transform="translate(-107.066 -68.579)" fill="#19282b"/>
          <path id="路径_160363" data-name="路径 160363" d="M160.723,83.522l-3.338-4.132,5.77.727-2.432,3.405" transform="translate(-134.375 -68.527)" fill="#19282b"/>
          <path id="路径_160364" data-name="路径 160364" d="M92.788,102.85l-4.426.3,3.092-4.624,1.334,4.322" transform="translate(-83.452 -82.721)" fill="#19282b"/>
          <path id="路径_160365" data-name="路径 160365" d="M118.287,79.176l-3.5,3.879-1.772-3.149,5.248-.766.024.037" transform="translate(-101.64 -68.341)" fill="#19282b"/>
          <path id="路径_160366" data-name="路径 160366" d="M100.576,86.13l3.137-3.936,1.775,3.184-4.911.752" transform="translate(-92.463 -70.607)" fill="#19282b"/>
          <path id="路径_160367" data-name="路径 160367" d="M162.96,73.3l-5.738-.756,2.3-2.137,3.466,2.868-.024.025" transform="translate(-134.255 -61.868)" fill="#19282b"/>
          <path id="路径_160368" data-name="路径 160368" d="M140.309,71.384l-5.426-.059c.054-.056.084-.092.119-.121.864-.725,1.73-1.447,2.59-2.177.13-.11.2-.11.325.013.777.767,1.564,1.524,2.347,2.284a.545.545,0,0,1,.044.06" transform="translate(-117.774 -60.781)" fill="#19282b"/>
          <path id="路径_160369" data-name="路径 160369" d="M90.678,87.9c.1.739.2,1.45.289,2.163.045.363.034.367-.335.445-.911.195-1.823.386-2.747.582a.382.382,0,0,1-.02-.1c.068-.617.138-1.234.213-1.851a.17.17,0,0,1,.087-.112c.828-.374,1.657-.743,2.515-1.126" transform="translate(-83.084 -74.841)" fill="#19282b"/>
          <path id="路径_160370" data-name="路径 160370" d="M87.879,102.72c-.011-.193-.029-.387-.033-.58-.019-1.043-.031-2.086-.054-3.128,0-.163.047-.224.212-.259.935-.195,1.868-.4,2.8-.608.039-.009.08-.009.156-.016l-3.048,4.6-.036-.009" transform="translate(-83.031 -82.425)" fill="#19282b"/>
          <path id="路径_160371" data-name="路径 160371" d="M116.527,70.56l1.975,2.09-5.212.738-.016-.032,3.253-2.8" transform="translate(-101.831 -61.978)" fill="#19282b"/>
          <path id="路径_160372" data-name="路径 160372" d="M102.2,75.219c.087.427.173.825.246,1.225.08.438.074.438-.348.612l-2.925,1.209c-.052.022-.106.04-.175.066,0-.338,0-.658,0-.978a2.472,2.472,0,0,0,.017-.309c-.025-.2.065-.29.24-.375.892-.431,1.777-.877,2.666-1.317.083-.041.167-.08.278-.133" transform="translate(-91.297 -65.434)" fill="#19282b"/>
          <path id="路径_160373" data-name="路径 160373" d="M128.21,71.167l-1.932-2.027,4.865-.5.022.047-2.955,2.476" transform="translate(-111.425 -60.557)" fill="#19282b"/>
          <path id="路径_160374" data-name="路径 160374" d="M151.654,69.081l-2.211,2.035-2.578-2.39.016-.037,4.773.392" transform="translate(-126.613 -60.591)" fill="#19282b"/>
          <path id="路径_160375" data-name="路径 160375" d="M78.606,105.552l2.3-4.392.035.008c0,.371,0,.743,0,1.115q.015,1.348.037,2.7c0,.115-.024.179-.151.2-.695.121-1.388.248-2.082.371a.922.922,0,0,1-.142,0" transform="translate(-76.254 -84.673)" fill="#19282b"/>
          <path id="路径_160376" data-name="路径 160376" d="M102.437,82.276l-3.119,3.9c-.038-.294-.071-.546-.1-.8-.065-.531-.121-1.063-.2-1.592a.145.145,0,0,1,.109-.19q1.643-.669,3.284-1.343l.024.023" transform="translate(-91.312 -70.651)" fill="#19282b"/>
          <path id="路径_160377" data-name="路径 160377" d="M111.462,71.8l3.521-1.088.019.034-3.222,2.712-.318-1.658" transform="translate(-100.494 -62.088)" fill="#19282b"/>
          <path id="路径_160378" data-name="路径 160378" d="M126.7,65.77l2.043-1.139a3.979,3.979,0,0,0,.425-.242.389.389,0,0,1,.46-.019c.623.315,1.255.614,1.884.951l-4.8.483c0-.012,0-.023-.008-.035" transform="translate(-111.735 -57.339)" fill="#19282b"/>
          <path id="路径_160379" data-name="路径 160379" d="M147.1,64.989c.688-.343,1.375-.687,2.065-1.026a.179.179,0,0,1,.144,0c.776.468,1.549.94,2.314,1.445l-4.523-.377v-.036" transform="translate(-126.788 -57.072)" fill="#19282b"/>
          <path id="路径_160380" data-name="路径 160380" d="M80.757,101.3l-2.145,4.174-.032-.008c.04-.291.077-.582.12-.873q.17-1.151.347-2.3a.206.206,0,0,1,.083-.135c.519-.289,1.041-.572,1.563-.856.008,0,.022,0,.063,0" transform="translate(-76.235 -84.774)" fill="#19282b"/>
          <path id="路径_160381" data-name="路径 160381" d="M142.24,63.8l-.946.456c-.4.191-.8.384-1.2.57a.3.3,0,0,1-.21.027c-.651-.306-1.3-.622-1.981-.951l4.336-.1" transform="translate(-120.002 -56.964)" fill="#19282b"/>
          <path id="路径_160382" data-name="路径 160382" d="M89.961,83.009c.308-.306.618-.611.923-.92.219-.221.431-.448.678-.705-.021.534-.038,1.02-.065,1.506,0,.041-.063.093-.109.114q-1.135.524-2.274,1.039a.43.43,0,0,1-.11.019.064.064,0,0,1,0-.017.077.077,0,0,1,.008-.014l.452-.477.479-.507.019-.037" transform="translate(-83.925 -70.006)" fill="#19282b"/>
          <path id="路径_160383" data-name="路径 160383" d="M161.3,65.035c-.6.2-1.147.391-1.7.573a.2.2,0,0,1-.146-.014c-.718-.432-1.433-.868-2.139-1.34l3.985.781" transform="translate(-134.325 -57.302)" fill="#19282b"/>
          <path id="路径_160384" data-name="路径 160384" d="M115.462,68.77l-3.486,1.069-.014-.023c.288-.229.575-.46.864-.688.342-.27.687-.536,1.026-.809a.249.249,0,0,1,.283-.044c.374.146.754.277,1.131.414.052.019.1.043.195.081" transform="translate(-100.864 -60.265)" fill="#19282b"/>
          <path id="路径_160385" data-name="路径 160385" d="M120.432,65.421l3.924-.9.015.033c-.1.055-.191.11-.287.163-.709.388-1.418.777-2.129,1.161a.283.283,0,0,1-.195.035c-.446-.148-.889-.306-1.333-.461l0-.032" transform="translate(-107.108 -57.5)" fill="#19282b"/>
          <path id="路径_160386" data-name="路径 160386" d="M80.716,95.619l1.99-2.918c-.072.646-.142,1.251-.2,1.856a.219.219,0,0,1-.128.2c-.545.289-1.087.585-1.631.878l-.028-.017" transform="translate(-77.811 -78.4)" fill="#19282b"/>
          <path id="路径_160387" data-name="路径 160387" d="M75.541,105.879c-.06.43-.119.859-.182,1.289-.088.6-.178,1.2-.273,1.806a.248.248,0,0,1-.094.165c-.31.171-.627.33-.99.518l1.52-3.783.019.006" transform="translate(-72.857 -88.169)" fill="#19282b"/>
          <path id="路径_160388" data-name="路径 160388" d="M107.691,69.611c.619-.363,1.2-.689,1.761-1.039a4.358,4.358,0,0,1,1.162-.317l.02.04c-.1.079-.192.159-.291.236-.536.419-1.074.835-1.608,1.258a.28.28,0,0,1-.3.057c-.228-.083-.463-.148-.743-.236" transform="translate(-97.712 -60.269)" fill="#19282b"/>
          <path id="路径_160389" data-name="路径 160389" d="M87.931,83.384l-.019.037-.479.507-.452.477-.556.293c-.059.031-.116.065-.174.1l0,0c.008-.036,0-.083.025-.107q.708-.8,1.419-1.6a4.958,4.958,0,0,0,.412-.47,2.022,2.022,0,0,1,1.077-.721.114.114,0,0,1,.095.006c-.249.264-.5.525-.745.792-.207.226-.406.459-.608.688" transform="translate(-81.894 -70.382)" fill="#19282b"/>
          <path id="路径_160390" data-name="路径 160390" d="M99.632,75.561c.3-.257.59-.514.886-.77.351-.3.706-.6,1.054-.909a.22.22,0,0,1,.251-.051c.245.089.495.167.778.26l-2.954,1.489-.015-.02" transform="translate(-91.766 -64.391)" fill="#19282b"/>
          <path id="路径_160391" data-name="路径 160391" d="M142.651,62.507l-4.06.089c0-.009,0-.018,0-.026.624-.139,1.243-.3,1.873-.4a2.554,2.554,0,0,1,.776.1c.459.076.917.159,1.414.246" transform="translate(-120.507 -55.745)" fill="#19282b"/>
          <path id="路径_160392" data-name="路径 160392" d="M125.27,64.129l-3.621.829-.009-.025c.074-.03.149-.061.224-.09.556-.208,1.114-.412,1.669-.626a1.74,1.74,0,0,1,.7-.126c.345.012.69,0,1.035,0,0,.011,0,.023,0,.034" transform="translate(-108.003 -57.181)" fill="#19282b"/>
          <path id="路径_160393" data-name="路径 160393" d="M156.967,63.468c.467,0,.933,0,1.4,0a.622.622,0,0,1,.2.029q.918.336,1.834.678a.584.584,0,0,1,.072.053l-3.506-.705,0-.056" transform="translate(-134.066 -56.718)" fill="#19282b"/>
          <path id="路径_160394" data-name="路径 160394" d="M82.695,92.828l.442-.109L81.462,95.2l-.031-.017q.269-.537.539-1.075c.173-.346.343-.694.524-1.035a1.486,1.486,0,0,1,.2-.244l0,0" transform="translate(-78.338 -78.413)" fill="#19282b"/>
          <path id="路径_160395" data-name="路径 160395" d="M131.847,62.639l3-.385a6.973,6.973,0,0,1-3,.385" transform="translate(-115.534 -55.818)" fill="#19282b"/>
          <path id="路径_160396" data-name="路径 160396" d="M98.226,75.48c-.552.47-1.093.954-1.661,1.4a2.132,2.132,0,0,1-.725.307l2.369-1.734.016.024" transform="translate(-88.97 -65.61)" fill="#19282b"/>
          <path id="路径_160397" data-name="路径 160397" d="M148.236,62.165l3.007.222a8.4,8.4,0,0,1-3.007-.222" transform="translate(-127.625 -55.752)" fill="#19282b"/>
          <path id="路径_160398" data-name="路径 160398" d="M78.939,82.313a.3.3,0,1,1,.3-.3.3.3,0,0,1-.3.3" transform="translate(-76.271 -70.253)" fill="#19282b"/>
          <path id="路径_160399" data-name="路径 160399" d="M117.363,52.245a.3.3,0,0,1,.307.288.3.3,0,1,1-.606.009.3.3,0,0,1,.3-.3" transform="translate(-104.627 -48.395)" fill="#19282b"/>
          <path id="路径_160400" data-name="路径 160400" d="M71.062,71.434a.3.3,0,0,1-.3.3.3.3,0,0,1-.307-.289.3.3,0,1,1,.607-.006" transform="translate(-70.24 -62.403)" fill="#19282b"/>
          <path id="路径_160401" data-name="路径 160401" d="M106.607,56.13a.3.3,0,0,1-.3.287.286.286,0,0,1-.3-.294.3.3,0,0,1,.311-.3.3.3,0,0,1,.289.3" transform="translate(-96.47 -51.05)" fill="#19282b"/>
          <path id="路径_160402" data-name="路径 160402" d="M84.666,56.893a.285.285,0,0,1-.294.294.3.3,0,0,1-.3-.307.289.289,0,0,1,.306-.283.282.282,0,0,1,.29.3" transform="translate(-80.285 -51.623)" fill="#19282b"/>
          <path id="路径_160403" data-name="路径 160403" d="M93.967,62.314a.276.276,0,0,1-.284-.3.3.3,0,0,1,.309-.287.311.311,0,0,1,.291.312.291.291,0,0,1-.316.278" transform="translate(-87.377 -55.425)" fill="#19282b"/>
          <path id="路径_160404" data-name="路径 160404" d="M126.842,37.636a.29.29,0,0,1-.293.3.285.285,0,0,1-.308-.281.3.3,0,0,1,.3-.312.306.306,0,0,1,.3.294" transform="translate(-111.398 -37.342)" fill="#19282b"/>
          <path id="路径_160405" data-name="路径 160405" d="M116.877,66.018l2.434-.793a9.551,9.551,0,0,1-2.434.793" transform="translate(-104.489 -58.022)" fill="#19282b"/>
          <path id="路径_160406" data-name="路径 160406" d="M90.758,88.324l.479-.507-.479.507" transform="translate(-85.219 -74.777)" fill="#19282b"/>
        </g>
      </g>
      <path id="路径_163807" data-name="路径 163807" d="M19.1-34.3H14.459v3.6H12.5v-3.6H8.012v-1.631H12.5v-1.888H8.491v-1.609h2.047a10.18,10.18,0,0,0-1.045-2.446l1.612-.408A9.58,9.58,0,0,1,12.281-39.8l-1.2.365h3.659A23.282,23.282,0,0,0,15.81-42.35l1.873.408q-.632,1.481-1.133,2.511h2.135v1.609H14.459v1.888H19.1Zm4.182-12.081H14.416q-.109.858-.3,2h8.168v11.973a1.847,1.847,0,0,1-.784,1.781,1.012,1.012,0,0,1-.283.129,15.529,15.529,0,0,1-3.833.3,7.366,7.366,0,0,0-.741-1.76q1.786.086,3.028.021.457-.129.5-.472V-42.5H6.923v12.3H4.854V-44.388h7.231q.022-.257.109-.837.109-.772.152-1.159H3.809v-1.91h8.734q.087-1.094.131-2.038l2.287.215q-.044.386-.152,1.159-.087.451-.109.665h8.582Zm11.748-.923v-.236H33.722V-48.98H39.69v-1.352h1.982v1.352H48.25v1.438H36.836v.257q0,.6.348.708a2.39,2.39,0,0,0,.719.086H44.46a17.764,17.764,0,0,0,2.94-.172q.109.923.2,1.416a16.96,16.96,0,0,1-2.94.15H37.773q-2.047,0-2.527-.944A3.063,3.063,0,0,1,35.029-47.306Zm1.808,4.27v1.094h7.8v-1.094Zm-1.851,2.36v-3.669H46.572v3.669ZM33.46-47.821l-1.22,1.5a13.444,13.444,0,0,0-3.049-2.339l1.2-1.395a12.568,12.568,0,0,1,3.006,2.167ZM33-42.2l-1.22,1.566a12.819,12.819,0,0,0-3.071-2.189,1.069,1.069,0,0,0-.109-.064L29.736-44.3A13.8,13.8,0,0,1,33-42.2Zm-1.59,3.819,1.634.944q-1.154,3.862-2.352,6.931l-1.808-.923A57.479,57.479,0,0,0,31.413-38.38Zm3.812,3.6h1.394v-1.287H35.29A12.74,12.74,0,0,1,35.225-34.775Zm1.394-3.777H35.29v1.245h1.329Zm1.394-1.33v8.175a1.5,1.5,0,0,1-.545,1.309,5.053,5.053,0,0,1-1.917.236,3.322,3.322,0,0,0-.392-1.33q.958.021,1.242,0,.218-.043.218-.236v-1.8H35.05a7.582,7.582,0,0,1-1.416,3.369,4.051,4.051,0,0,0-1.154-.751,8.8,8.8,0,0,0,1.459-5.493v-3.476Zm3.42,2.961h-.958q-.087.322-.24.987-.2.751-.283,1.116.283.193.871.558A13.635,13.635,0,0,0,41.432-36.921Zm1.176,4.141-.762,1.137a4.2,4.2,0,0,0-.632-.579A6.3,6.3,0,0,1,39.189-30.2a4.416,4.416,0,0,0-.762-.944,5.032,5.032,0,0,0,1.808-1.91,1.848,1.848,0,0,0-.218-.172q-.283-.236-.414-.322l-.131.451-1.111-.451q.588-2.232.828-3.369h-.828v-1.395h1.133q.218-.987.392-2.017l1.307.15q-.174.9-.392,1.867h1.024l.24-.021.762.107a16.879,16.879,0,0,1-.98,4.764A7.475,7.475,0,0,1,42.608-32.78Zm2.047-3.862.392-.172a10.057,10.057,0,0,1,1.024,1.33v-2.961H44.656Zm3.049,5.128h.261a.5.5,0,0,0,.218-.086,1.312,1.312,0,0,0,.131-.451q.022-.386.065-1.717a3.447,3.447,0,0,0,.98.515,15.22,15.22,0,0,1-.152,2.081,1.549,1.549,0,0,1-.436.708,1.357,1.357,0,0,1-.762.215h-.653a1.331,1.331,0,0,1-.958-.386,2.266,2.266,0,0,1-.327-1.438v-2.146l-.653.365a11.049,11.049,0,0,0-.762-1.481A8.2,8.2,0,0,1,42.913-30.1a2.99,2.99,0,0,0-1.045-.772.853.853,0,0,1-.109-.043,7.241,7.241,0,0,0,1.525-5.021v-3.948h4.226v7.446a7.56,7.56,0,0,0,.022.837A.208.208,0,0,0,47.705-31.514Zm25.862-8.454H65.878A11.606,11.606,0,0,0,73.5-32.436q.632.193,1.263.343a7.834,7.834,0,0,0-1.394,1.953,12.775,12.775,0,0,1-8.037-6.008,16.337,16.337,0,0,1-.806-1.588Q62.611-32.5,55.4-30.119a5.664,5.664,0,0,0-1.154-1.717l-.109-.107q6.687-2.1,8.342-6.738a12.028,12.028,0,0,0,.37-1.287H55.314v-2.081h7.8q.022-.343.022-.966v-3.648H54.661v-2.081H74.133v2.081H65.312v3.669q0,.644-.022.944h8.277Zm20.591-4.785h-8.8A20.2,20.2,0,0,0,89.8-37.715,19.419,19.419,0,0,0,94.158-44.753Zm5.75,0H96.575a23.861,23.861,0,0,1-5.14,8.476,21.115,21.115,0,0,0,8.756,4.1,8.515,8.515,0,0,0-1.481,2.017,22.258,22.258,0,0,1-9.017-4.528,26.446,26.446,0,0,1-8.865,4.571,8.887,8.887,0,0,0-1.307-2,23.355,23.355,0,0,0,8.582-4.1,25.038,25.038,0,0,1-5.01-8.54H79.848v-1.974h8.908v-3.6h2.113v3.6h9.039Zm11.661,2.21h-3.463v1.2h3.463Zm-3.463,3.734h3.463v-1.223h-3.463Zm0,4.184v1.245h5.6v1.609h-5.6V-30.2H106.3V-43.938h7.013v6.545h-5.206v1.223H113.4v1.545ZM122.633-35.7h-5.4v2.682h5.4Zm.653-10.622h-7.275v1.845h7.275Zm-1.59,5.708v-2.21h-4.465v2.21Zm-13.33-5.837h3.616a19.875,19.875,0,0,0-2.069-2.275A19.027,19.027,0,0,1,108.367-46.448Zm15.225,7.467h-6.36v1.588h7.318v7.124h-1.917v-1.009h-5.4v1.116h-1.873V-44.174H114.1v-2.189l-1.133,1.245q-.523-.772-.849-1.18v1.287h-4.182v-.9a16.91,16.91,0,0,1-2.047,2.017,5.089,5.089,0,0,0-1.307-1.223,13.334,13.334,0,0,0,3.986-5.021q.044-.107.087-.193h1.982a23.237,23.237,0,0,1,3.42,3.562.249.249,0,0,0,.044.064V-47.95h4.356v-2.36h2.069v2.36h4.748v3.777h-1.677Z" transform="translate(29.612 58.108)" fill="#19282b" stroke="#19282b" stroke-width="0.25"/>
      <path id="路径_163808" data-name="路径 163808" d="M.32-11.954v1.167H2.462v4.22H3.647v-4.22H5.789v-1.167Zm9.373,1.048H6.328v1.145h3.3v.449h-3.3v1.661a1.1,1.1,0,0,0,1.1,1.085h3.365V-9.822A1.1,1.1,0,0,0,9.693-10.907Zm-.061,3.2H7.49v-.6H9.632ZM11.6-6.567h1.162v-4.34H11.6Zm0-5.762v1.152h1.162v-1.152Zm5.423,1.422H13.658v4.34H14.82v-3.2h2.142v3.2h1.162V-9.822A1.1,1.1,0,0,0,17.023-10.907Zm5.271,0H18.929v1.145h3.3v.449h-3.3v1.661a1.1,1.1,0,0,0,1.1,1.085H23.4V-9.822A1.1,1.1,0,0,0,22.294-10.907Zm-.061,3.2H20.091v-.6h2.142Zm5.279-3.2H24.147v4.34h1.162v-3.2h2.142v3.2h1.162V-9.822A1.1,1.1,0,0,0,27.512-10.907Zm5.522-1.048a1.113,1.113,0,0,0-1.124,1.107v4.28h1.177V-8.3h3.1v1.736h1.192v-4.28a1.12,1.12,0,0,0-1.132-1.107Zm.053,2.484v-1.317h3.1V-9.47Zm9.57-.352a1.1,1.1,0,0,0-1.109-1.085H39.285a1.1,1.1,0,0,0-1.1,1.085v.576a1.1,1.1,0,0,0,1.1,1.085h2.2v.449H39.346v-.157H38.184v.217a1.1,1.1,0,0,0,1.1,1.085h2.263a1.1,1.1,0,0,0,1.109-1.085v-.576a1.1,1.1,0,0,0-1.109-1.085h-2.2v-.449h2.142V-9.6h1.17Zm3.57.06v-1.145H44.594v-1.287H43.432v4.542a1.1,1.1,0,0,0,1.109,1.085h1.686V-7.712H44.594v-2.05Zm1.808-1.145a1.106,1.106,0,0,0-1.109,1.085v3.255h1.162v-3.2h2.377v-1.145Zm4.018,0a1.1,1.1,0,0,0-1.1,1.085v2.17a1.1,1.1,0,0,0,1.1,1.085h2.263a1.1,1.1,0,0,0,1.1-1.085v-2.17a1.1,1.1,0,0,0-1.1-1.085Zm.061,1.145h2.142v2.05H52.114Zm7.261-1.145H56.01v4.34h1.162v-3.2h2.142v3.2h1.162V-9.822A1.1,1.1,0,0,0,59.375-10.907Zm2.81,0a1.1,1.1,0,0,0-1.1,1.085v2.17a1.1,1.1,0,0,0,1.1,1.085h2.263a1.1,1.1,0,0,0,1.1-1.085v-2.17a1.1,1.1,0,0,0-1.1-1.085Zm.061,1.145h2.142v2.05H62.246Zm9.418-1.145h-5.3v4.34h1.162v-3.2h1.458v3.2h1.17v-3.2h1.458v3.2h1.155V-9.822A1.1,1.1,0,0,0,71.665-10.907Zm2.112,4.34h1.162v-4.34H73.776Zm0-5.762v1.152h1.162v-1.152Zm6.266,2.567v-1.145H76.685a1.1,1.1,0,0,0-1.1,1.085v2.17a1.1,1.1,0,0,0,1.1,1.085H80.05V-7.712h-3.3v-2.05Zm4.117-1.145H80.795v1.145h3.3v.449h-3.3v1.661a1.1,1.1,0,0,0,1.1,1.085h3.365V-9.822A1.1,1.1,0,0,0,84.159-10.907Zm-.061,3.2H81.957v-.6H84.1Zm1.762-4.624v4.684a1.1,1.1,0,0,0,1.1,1.085h.957V-7.712h-.889v-4.624Zm10.1.382H90.912v5.388h5.051V-7.734H92.1v-.943h3.107V-9.844H92.1v-.943h3.859Zm3.813-.374v1.422h-2.21a1.1,1.1,0,0,0-1.1,1.085v2.17a1.1,1.1,0,0,0,1.1,1.085h3.372v-5.762ZM97.634-9.762h2.142v2.05H97.634Zm7.239-1.145v3.2H102.73v-3.2h-1.162v3.255a1.1,1.1,0,0,0,1.1,1.085h2.263a1.1,1.1,0,0,0,1.1-1.085v-3.255ZM111.1-9.762v-1.145h-3.357a1.1,1.1,0,0,0-1.1,1.085v2.17a1.1,1.1,0,0,0,1.1,1.085h3.365V-7.712h-3.3v-2.05Zm4.117-1.145h-3.365v1.145h3.3v.449h-3.3v1.661a1.1,1.1,0,0,0,1.1,1.085h3.365V-9.822A1.1,1.1,0,0,0,115.218-10.907Zm-.061,3.2h-2.142v-.6h2.142Zm4.77-2.05v-1.145h-1.633v-1.287h-1.162v4.542a1.1,1.1,0,0,0,1.109,1.085h1.686V-7.712h-1.633v-2.05Zm.623,3.2h1.162v-4.34H120.55Zm0-5.762v1.152h1.162v-1.152Zm2.833,1.422a1.1,1.1,0,0,0-1.1,1.085v2.17a1.1,1.1,0,0,0,1.1,1.085h2.263a1.1,1.1,0,0,0,1.1-1.085v-2.17a1.1,1.1,0,0,0-1.1-1.085Zm.061,1.145h2.142v2.05h-2.142Zm7.261-1.145H127.34v4.34H128.5v-3.2h2.142v3.2h1.162V-9.822A1.1,1.1,0,0,0,130.7-10.907Zm5.522-1.048a1.113,1.113,0,0,0-1.124,1.107v4.28h1.177V-8.3h3.1v1.736h1.193v-4.28a1.12,1.12,0,0,0-1.132-1.107Zm.053,2.484v-1.317h3.1V-9.47Zm6.236-1.437a1.106,1.106,0,0,0-1.109,1.085v3.255h1.162v-3.2h2.377v-1.145Zm6.319,0h-2.263a1.1,1.1,0,0,0-1.1,1.085v2.17a1.1,1.1,0,0,0,1.1,1.085h3.365V-7.712h-3.3v-.449h3.3V-9.822A1.1,1.1,0,0,0,148.835-10.907Zm-2.2,1.744v-.6h2.142v.6Zm7.466-1.744h-3.365v1.145h3.3v.449h-3.3v1.661a1.1,1.1,0,0,0,1.1,1.085H155.2V-9.822A1.1,1.1,0,0,0,154.1-10.907Zm-.061,3.2H151.9v-.6h2.142Z" transform="translate(-0.32 45.468)" fill="#3bc9db"/>
    </g>
  </g>
</svg>
