<svg id="LoGo_1" data-name="LoGo 1" xmlns="http://www.w3.org/2000/svg" width="192" height="192" viewBox="0 0 192 192">
  <rect id="矩形_49595" data-name="矩形 49595" width="192" height="192" fill="#c3cdcd" opacity="0"/>
  <g id="组_88720" data-name="组 88720" transform="translate(4.966 4.965)">
    <path id="路径_160354" data-name="路径 160354" d="M177.6,128.889v6.136H164v5.939h12.669V146.9H164.083a3.079,3.079,0,0,0-.157.624c-.012,1.809,0,3.62-.017,5.431-.007.523.108.831.727.831,4.356,0,8.716.033,13.071,0,.286,0,.708-.45.823-.778,1.622-4.684,3.2-9.382,4.788-14.077,1.046-3.094,2.1-6.187,3.105-9.292a1.016,1.016,0,0,1,1.155-.836q13.966.037,27.928.008c.51,0,.877.033,1.1.631q5.663,15.058,11.373,30.1a3.014,3.014,0,0,1,.089.493h-4.7c-5.06,0-10.12-.008-15.181.01-.7,0-1.049-.121-1.167-.92-.223-1.562-.609-3.1-.96-4.777-2.337,0-4.653-.025-6.968.033-.227.008-.569.49-.644.8-.372,1.571-.675,3.158-1.013,4.787H122.917c-.336-1.594-.707-3.123-.965-4.674-.119-.725-.382-.99-1.132-.972q-2.825.072-5.651,0c-.7-.017-.96.212-1.069.9-.212,1.349-.5,2.685-.839,4-.083.313-.515.765-.79.765-6.793.045-13.587.033-20.549.033.439-1.354.824-2.6,1.241-3.837q4.459-13.2,8.928-26.392c.174-.518.245-1.006,1.041-1,9.6.03,19.207.018,28.926.018q5.556,14.681,11.119,29.369c.076-.017.151-.03.227-.048V128.889Zm24.8,7.457c-.084-.025-.17-.048-.253-.071-1.255,4.116-2.506,8.233-3.784,12.43h6.973c-.991-4.171-1.965-8.266-2.936-12.359M121.03,148.7c-1.008-4.241-1.983-8.327-2.954-12.414-.071-.015-.146-.028-.217-.041-1.263,4.126-2.526,8.251-3.81,12.455Z" transform="translate(-55.037 22.577)" fill="#c3cdcd"/>
    <path id="路径_160355" data-name="路径 160355" d="M144.231,93.736c14.514,1.137,28.58,2.241,42.9,3.367-7.145,11.869-14.2,23.6-21.383,35.527-7.255-12.975-14.518-25.7-21.516-38.893" transform="translate(-20.765 -0.394)" fill="#c3cdcd"/>
    <path id="路径_160356" data-name="路径 160356" d="M153.59,94.474c6.856,12.559,13.6,24.915,20.5,37.536-14.82-1.021-29.346-2.026-44.183-3.049,7.955-11.585,15.756-22.941,23.687-34.487" transform="translate(-30.153 0.089)" fill="#c3cdcd"/>
    <path id="路径_160357" data-name="路径 160357" d="M114.554,128.859v6.149H102.378V159.9H81.822V135.027H69.637v-6.168Z" transform="translate(-69.637 22.617)" fill="#c3cdcd"/>
    <path id="路径_160358" data-name="路径 160358" d="M159.334,93.851,135.252,128.5c-5.035-11.009-9.977-21.812-14.983-32.754,13.013-.631,25.849-1.255,39.065-1.9" transform="translate(-36.465 -0.319)" fill="#c3cdcd"/>
    <path id="路径_160359" data-name="路径 160359" d="M128.437,95.246c5.237,11.177,10.376,22.151,15.554,33.208H106.165l22.272-33.208" transform="translate(-45.705 0.595)" fill="#c3cdcd"/>
    <path id="路径_160360" data-name="路径 160360" d="M184.842,105.163c-13.321-1.053-26.306-2.077-39.593-3.13,6.447-7.574,12.718-14.941,19.064-22.4,6.831,8.5,13.571,16.879,20.529,25.529" transform="translate(-20.098 -9.633)" fill="#c3cdcd"/>
    <path id="路径_160361" data-name="路径 160361" d="M131.545,95.078c-7.564,11.085-14.978,21.943-22.553,33.044-2.916-9.55-5.762-18.867-8.637-28.279,10.451-1.6,20.685-3.161,31.19-4.765" transform="translate(-49.512 0.485)" fill="#c3cdcd"/>
    <path id="路径_160362" data-name="路径 160362" d="M142.493,79.46c5.505,7.657,10.9,15.16,16.428,22.846l-38.551,1.66c7.486-8.294,14.739-16.328,22.123-24.506" transform="translate(-36.398 -9.747)" fill="#c3cdcd"/>
    <path id="路径_160363" data-name="路径 160363" d="M178.454,105.866c-7.041-8.845-13.946-17.525-21.069-26.476L193.8,84.048c-5.166,7.346-10.211,14.514-15.348,21.818" transform="translate(-12.147 -9.793)" fill="#c3cdcd"/>
    <path id="路径_160364" data-name="路径 160364" d="M116.3,126.221l-27.936,1.93c6.511-9.883,12.924-19.617,19.514-29.623,2.857,9.391,5.613,18.454,8.422,27.693" transform="translate(-57.369 2.745)" fill="#c3cdcd"/>
    <path id="路径_160365" data-name="路径 160365" d="M146.289,79.376c-7.322,8.236-14.643,16.474-22.088,24.852-3.746-6.756-7.418-13.384-11.186-20.178,11.162-1.654,22.143-3.282,33.125-4.911.05.078.1.157.149.237" transform="translate(-41.217 -9.958)" fill="#c3cdcd"/>
    <path id="路径_160366" data-name="路径 160366" d="M100.576,107.411c6.66-8.486,13.175-16.778,19.8-25.217,3.752,6.831,7.43,13.531,11.2,20.4-10.366,1.609-20.537,3.191-31,4.817" transform="translate(-49.367 -7.956)" fill="#c3cdcd"/>
    <path id="路径_160367" data-name="路径 160367" d="M193.437,88.947c-11.992-1.6-23.982-3.209-36.215-4.845,4.929-4.654,9.666-9.132,14.491-13.692q10.981,9.226,21.878,18.374c-.051.053-.1.109-.154.162" transform="translate(-12.254 -15.676)" fill="#c3cdcd"/>
    <path id="路径_160368" data-name="路径 160368" d="M169.129,84.566c-11.421-.126-22.707-.25-34.246-.379.343-.358.531-.589.753-.778,5.45-4.644,10.921-9.269,16.346-13.945.821-.705,1.273-.7,2.054.081,4.906,4.913,9.871,9.762,14.815,14.633a3.517,3.517,0,0,1,.276.387" transform="translate(-26.89 -16.636)" fill="#c3cdcd"/>
    <path id="路径_160369" data-name="路径 160369" d="M105.626,87.9c.627,4.734,1.27,9.289,1.824,13.857.283,2.329.215,2.352-2.114,2.854C99.585,105.86,93.83,107.088,88,108.341a2.472,2.472,0,0,1-.129-.649c.432-3.954.871-7.907,1.342-11.856a1.089,1.089,0,0,1,.546-.72c5.224-2.393,10.461-4.762,15.871-7.213" transform="translate(-57.696 -4.216)" fill="#c3cdcd"/>
    <path id="路径_160370" data-name="路径 160370" d="M88.342,127.546c-.071-1.24-.185-2.478-.209-3.719-.119-6.68-.2-13.362-.341-20.044-.023-1.044.3-1.437,1.341-1.658,5.9-1.246,11.791-2.589,17.686-3.893.245-.055.506-.055.986-.1-6.48,9.926-12.859,19.7-19.238,29.475-.073-.021-.151-.036-.225-.058" transform="translate(-57.743 2.484)" fill="#c3cdcd"/>
    <path id="路径_160371" data-name="路径 160371" d="M133.8,70.56c4.126,4.434,8.215,8.827,12.468,13.394-11.116,1.6-22.009,3.165-32.9,4.73-.035-.068-.066-.137-.1-.207Q123.508,79.549,133.8,70.56" transform="translate(-41.048 -15.578)" fill="#c3cdcd"/>
    <path id="路径_160372" data-name="路径 160372" d="M119.212,75.219c.546,2.733,1.092,5.283,1.551,7.85.5,2.806.465,2.8-2.2,3.919q-9.233,3.866-18.463,7.745c-.329.139-.669.255-1.1.42,0-2.163-.012-4.214.007-6.265a16.071,16.071,0,0,0,.108-1.981c-.157-1.27.412-1.86,1.516-2.4,5.633-2.761,11.219-5.619,16.825-8.438.521-.263,1.053-.51,1.758-.849" transform="translate(-50.402 -12.526)" fill="#c3cdcd"/>
    <path id="路径_160373" data-name="路径 160373" d="M138.473,84.812c-4.045-4.308-8.028-8.549-12.2-12.985,10.4-1.078,20.556-2.13,30.71-3.185.046.1.091.2.139.3-6.189,5.262-12.379,10.529-18.654,15.866" transform="translate(-32.528 -16.834)" fill="#c3cdcd"/>
    <path id="路径_160374" data-name="路径 160374" d="M177.093,71.2,163.137,84.239q-8.181-7.7-16.272-15.315c.033-.078.065-.157.1-.235,9.929.829,19.862,1.66,30.129,2.514" transform="translate(-19.04 -16.804)" fill="#c3cdcd"/>
    <path id="路径_160375" data-name="路径 160375" d="M78.606,129.3c4.883-9.449,9.708-18.793,14.534-28.138.074.015.149.033.222.05,0,2.38-.022,4.762,0,7.142q.092,8.635.235,17.268c.015.735-.149,1.149-.955,1.291-4.385.773-8.761,1.589-13.144,2.38a5.739,5.739,0,0,1-.9.007" transform="translate(-63.761 4.47)" fill="#c3cdcd"/>
    <path id="路径_160376" data-name="路径 160376" d="M120.608,82.4c-6.5,8.256-13,16.505-19.688,24.993-.238-1.885-.45-3.5-.644-5.121-.407-3.4-.765-6.808-1.235-10.2-.1-.725.091-.97.69-1.217q10.37-4.288,20.726-8.6c.05.05.1.1.151.146" transform="translate(-50.389 -7.918)" fill="#c3cdcd"/>
    <path id="路径_160377" data-name="路径 160377" d="M111.462,77.681l22.222-6.973.122.218L113.471,88.3c-.687-3.63-1.339-7.079-2.009-10.623" transform="translate(-42.235 -15.482)" fill="#c3cdcd"/>
    <path id="路径_160378" data-name="路径 160378" d="M126.7,73.694l12.892-7.3a25.008,25.008,0,0,0,2.68-1.548,2.426,2.426,0,0,1,2.9-.122c3.934,2.016,7.92,3.934,11.889,6.093l-30.318,3.1c-.013-.074-.031-.149-.048-.222" transform="translate(-32.253 -19.677)" fill="#c3cdcd"/>
    <path id="路径_160379" data-name="路径 160379" d="M147.1,70.635c4.342-2.195,8.681-4.4,13.034-6.576a1.113,1.113,0,0,1,.909-.03c4.9,3,9.779,6.023,14.607,9.256L147.1,70.867v-.232" transform="translate(-18.885 -19.912)" fill="#c3cdcd"/>
    <path id="路径_160380" data-name="路径 160380" d="M92.32,101.306c-4.552,8.993-9.044,17.868-13.536,26.744l-.2-.05c.252-1.864.485-3.731.756-5.591q1.073-7.376,2.19-14.748a1.323,1.323,0,0,1,.526-.864c3.276-1.852,6.571-3.666,9.866-5.487.051-.03.136,0,.4,0" transform="translate(-63.778 4.559)" fill="#c3cdcd"/>
    <path id="路径_160381" data-name="路径 160381" d="M165.271,63.8c-2.1,1.026-4.03,1.98-5.97,2.923-2.519,1.226-5.032,2.463-7.569,3.651a1.835,1.835,0,0,1-1.326.174c-4.11-1.961-8.193-3.982-12.5-6.094,9.226-.22,18.2-.434,27.367-.654" transform="translate(-24.911 -20.008)" fill="#c3cdcd"/>
    <path id="路径_160382" data-name="路径 160382" d="M95.051,91.8c1.943-1.963,3.9-3.914,5.826-5.892,1.38-1.417,2.719-2.868,4.277-4.519-.134,3.42-.24,6.535-.409,9.646-.013.262-.4.594-.687.732q-7.163,3.354-14.35,6.655a2.68,2.68,0,0,1-.694.119.42.42,0,0,1-.01-.109.487.487,0,0,1,.053-.091l2.85-3.059q1.509-1.624,3.021-3.246c.041-.078.081-.157.122-.237" transform="translate(-56.949 -8.487)" fill="#c3cdcd"/>
    <path id="路径_160383" data-name="路径 160383" d="M182.47,69.261c-3.767,1.3-7.241,2.5-10.732,3.673a1.222,1.222,0,0,1-.922-.093c-4.534-2.767-9.047-5.561-13.5-8.587,8.291,1.652,16.582,3.3,25.152,5.007" transform="translate(-12.191 -19.71)" fill="#c3cdcd"/>
    <path id="路径_160384" data-name="路径 160384" d="M134.051,71.584l-22,6.851c-.03-.05-.058-.1-.086-.147,1.816-1.47,3.63-2.946,5.452-4.409,2.157-1.731,4.338-3.433,6.478-5.186a1.555,1.555,0,0,1,1.789-.28c2.359.937,4.757,1.773,7.139,2.653.329.121.647.273,1.23.518" transform="translate(-41.907 -17.092)" fill="#c3cdcd"/>
    <path id="路径_160385" data-name="路径 160385" d="M120.457,70.284l24.768-5.763c.031.071.065.142.1.212-.6.349-1.2.705-1.812,1.044-4.477,2.488-8.95,4.98-13.438,7.442a1.764,1.764,0,0,1-1.228.223c-2.817-.948-5.613-1.961-8.415-2.953.01-.07.02-.136.03-.205" transform="translate(-36.361 -19.535)" fill="#c3cdcd"/>
    <path id="路径_160386" data-name="路径 160386" d="M80.716,111.4C84.862,105.231,89,99.063,93.277,92.7c-.454,4.136-.9,8.013-1.283,11.894a1.4,1.4,0,0,1-.808,1.286c-3.443,1.852-6.864,3.746-10.294,5.628l-.177-.111" transform="translate(-62.379 -1.072)" fill="#c3cdcd"/>
    <path id="路径_160387" data-name="路径 160387" d="M83.715,105.909c-.381,2.753-.75,5.505-1.149,8.256-.556,3.857-1.124,7.715-1.726,11.568a1.593,1.593,0,0,1-.591,1.056c-1.96,1.1-3.958,2.115-6.247,3.32,3.274-8.269,6.435-16.252,9.593-24.237l.119.036" transform="translate(-66.778 7.558)" fill="#c3cdcd"/>
    <path id="路径_160388" data-name="路径 160388" d="M107.691,76.94c3.906-2.329,7.558-4.416,11.114-6.654,2.291-1.443,4.911-1.291,7.337-2.031l.129.258c-.612.5-1.215,1.016-1.837,1.511-3.383,2.685-6.781,5.35-10.148,8.057a1.746,1.746,0,0,1-1.905.367c-1.44-.53-2.92-.948-4.691-1.51" transform="translate(-44.705 -17.089)" fill="#c3cdcd"/>
    <path id="路径_160389" data-name="路径 160389" d="M96.854,91.463c-.041.079-.081.159-.122.237l-3.021,3.246L90.861,98q-1.755.936-3.512,1.88c-.371.2-.733.419-1.1.627l.025-.028c.05-.233.023-.533.159-.689q4.466-5.134,8.958-10.232A31.628,31.628,0,0,0,98,86.554c1.662-2.471,4.136-3.658,6.8-4.616a.709.709,0,0,1,.6.041c-1.571,1.69-3.16,3.363-4.7,5.076-1.308,1.445-2.561,2.938-3.837,4.408" transform="translate(-58.752 -8.155)" fill="#c3cdcd"/>
    <path id="路径_160390" data-name="路径 160390" d="M99.632,85.014c1.865-1.645,3.724-3.294,5.594-4.931,2.218-1.945,4.456-3.86,6.65-5.823a1.375,1.375,0,0,1,1.586-.326c1.549.568,3.123,1.068,4.909,1.668-6.338,3.242-12.493,6.391-18.647,9.542-.03-.045-.061-.089-.093-.131" transform="translate(-49.985 -13.447)" fill="#c3cdcd"/>
    <path id="路径_160391" data-name="路径 160391" d="M164.235,64.409c-8.706.192-17.166.379-25.627.568-.008-.058-.013-.113-.02-.169,3.938-.89,7.849-1.94,11.823-2.592,1.559-.253,3.267.343,4.9.616,2.9.485,5.79,1.021,8.928,1.577" transform="translate(-24.463 -21.085)" fill="#c3cdcd"/>
    <path id="路径_160392" data-name="路径 160392" d="M144.554,64.336Q133.129,66.99,121.7,69.647c-.018-.055-.038-.106-.056-.157.47-.19.94-.391,1.417-.574,3.511-1.331,7.034-2.638,10.534-4.009A10.839,10.839,0,0,1,138,64.1c2.177.079,4.355.022,6.53.022.012.073.02.146.028.217" transform="translate(-35.566 -19.817)" fill="#c3cdcd"/>
    <path id="路径_160393" data-name="路径 160393" d="M156.967,63.468c2.945,0,5.889,0,8.839.01a3.872,3.872,0,0,1,1.288.185q5.795,2.153,11.573,4.343a3.685,3.685,0,0,1,.455.338c-7.529-1.534-14.827-3.027-22.13-4.517l-.025-.359" transform="translate(-12.421 -20.225)" fill="#c3cdcd"/>
    <path id="路径_160394" data-name="路径 160394" d="M89.409,93.417c.856-.214,1.713-.43,2.789-.7-3.583,5.381-7.077,10.628-10.573,15.875l-.194-.111q1.7-3.444,3.4-6.89c1.094-2.215,2.163-4.446,3.309-6.634a9.49,9.49,0,0,1,1.291-1.564l-.023.023" transform="translate(-61.91 -1.061)" fill="#c3cdcd"/>
    <path id="路径_160395" data-name="路径 160395" d="M131.847,64.722c6.086-.8,12.5-1.632,18.909-2.468-6.24,2.009-12.578,3.3-18.909,2.468" transform="translate(-28.879 -21.02)" fill="#c3cdcd"/>
    <path id="路径_160396" data-name="路径 160396" d="M110.9,75.612c-3.484,3.012-6.9,6.111-10.482,8.989a13.35,13.35,0,0,1-4.573,1.966l14.953-11.111c.035.05.068.1.1.156" transform="translate(-52.469 -12.371)" fill="#c3cdcd"/>
    <path id="路径_160397" data-name="路径 160397" d="M148.236,62.165l18.982,1.425c-6.449,1.217-12.718-.318-18.982-1.425" transform="translate(-18.141 -21.079)" fill="#c3cdcd"/>
    <path id="路径_160398" data-name="路径 160398" d="M80.585,85.537a1.91,1.91,0,1,1,1.869-1.907,1.881,1.881,0,0,1-1.869,1.907" transform="translate(-63.746 -8.269)" fill="#c3cdcd"/>
    <path id="路径_160399" data-name="路径 160399" d="M118.951,52.245a1.893,1.893,0,0,1,1.938,1.842,1.913,1.913,0,1,1-3.825.056,1.891,1.891,0,0,1,1.887-1.9" transform="translate(-38.564 -27.578)" fill="#c3cdcd"/>
    <path id="路径_160400" data-name="路径 160400" d="M74.285,73.065a1.907,1.907,0,0,1-1.894,1.894A1.93,1.93,0,0,1,70.455,73.1a1.915,1.915,0,1,1,3.83-.04" transform="translate(-69.101 -15.203)" fill="#c3cdcd"/>
    <path id="路径_160401" data-name="路径 160401" d="M109.794,57.78a1.872,1.872,0,0,1-1.923,1.839,1.819,1.819,0,0,1-1.864-1.882,1.872,1.872,0,0,1,1.965-1.91,1.907,1.907,0,0,1,1.822,1.953" transform="translate(-45.809 -25.233)" fill="#c3cdcd"/>
    <path id="路径_160402" data-name="路径 160402" d="M87.836,58.5a1.815,1.815,0,0,1-1.854,1.882,1.874,1.874,0,0,1-1.912-1.965A1.836,1.836,0,0,1,86,56.6a1.8,1.8,0,0,1,1.832,1.9" transform="translate(-60.181 -24.727)" fill="#c3cdcd"/>
    <path id="路径_160403" data-name="路径 160403" d="M95.478,65.506a1.755,1.755,0,0,1-1.794-1.94,1.887,1.887,0,0,1,1.953-1.841,1.981,1.981,0,0,1,1.836,2,1.848,1.848,0,0,1-1.994,1.784" transform="translate(-53.884 -21.368)" fill="#c3cdcd"/>
    <path id="路径_160404" data-name="路径 160404" d="M130.035,39.226a1.848,1.848,0,0,1-1.85,1.91,1.808,1.808,0,0,1-1.942-1.8,1.875,1.875,0,0,1,1.88-2,1.944,1.944,0,0,1,1.912,1.884" transform="translate(-32.552 -37.342)" fill="#c3cdcd"/>
    <path id="路径_160405" data-name="路径 160405" d="M116.877,70.3q7.682-2.54,15.363-5.078c-5.063,1.9-9.863,4.585-15.363,5.078" transform="translate(-38.687 -19.074)" fill="#c3cdcd"/>
    <path id="路径_160406" data-name="路径 160406" d="M90.758,91.063l3.021-3.246q-1.512,1.626-3.021,3.246" transform="translate(-55.799 -4.272)" fill="#c3cdcd"/>
  </g>
</svg>
