<svg xmlns="http://www.w3.org/2000/svg" xmlns:xlink="http://www.w3.org/1999/xlink" width="55" height="55" viewBox="0 0 55 55">
  <defs>
    <clipPath id="clip-path">
      <rect id="_002-communication" data-name="002-communication" width="50" height="50" rx="25" fill="#fff" stroke="#fff" stroke-width="2"/>
    </clipPath>
  </defs>
  <g id="side-icons" transform="translate(-142 -1703)">
    <g id="组_95513" data-name="组 95513" transform="translate(-342 1308)">
      <g id="组_95512" data-name="组 95512" transform="translate(489 395)">
        <g id="组_95501" data-name="组 95501" transform="translate(2.642 8.695)">
          <path id="路径_178173" data-name="路径 178173" d="M514.276,452.308a20.6,20.6,0,0,1-20.571-20.592c0-.362.011-.739.033-1.152a.409.409,0,0,1,.471-.384,2.245,2.245,0,0,0,.339.023,2.671,2.671,0,0,0,.75-5.233.4.4,0,0,1-.251-.21.41.41,0,0,1-.017-.327,20.577,20.577,0,1,1,33.519,22.11.4.4,0,0,1-.308.114.407.407,0,0,1-.294-.148,2.667,2.667,0,0,0-4.342,3.07.412.412,0,0,1-.169.577A20.378,20.378,0,0,1,514.276,452.308Zm-19.738-21.283c-.009.24-.012.469-.012.691a19.783,19.783,0,0,0,19.75,19.771A19.551,19.551,0,0,0,522.7,449.6a3.486,3.486,0,0,1,5.577-3.941,19.774,19.774,0,0,0-14-33.717,19.864,19.864,0,0,0-18.328,12.392,3.491,3.491,0,0,1-1.4,6.688Z" transform="translate(-493.706 -411.125)" fill="#fff"/>
        </g>
        <g id="组_95502" data-name="组 95502" transform="translate(9.594 15.655)">
          <path id="路径_178174" data-name="路径 178174" d="M519.682,450.761A13.633,13.633,0,1,1,533.3,437.128,13.641,13.641,0,0,1,519.682,450.761Zm0-26.446a12.813,12.813,0,1,0,12.8,12.813A12.82,12.82,0,0,0,519.682,424.316Z" transform="translate(-506.063 -423.496)" fill="#fff"/>
        </g>
        <g id="组_95503" data-name="组 95503" transform="translate(27.721 29.624)">
          <path id="路径_178175" data-name="路径 178175" d="M541.079,453.919a2.8,2.8,0,1,1,2.792-2.794A2.8,2.8,0,0,1,541.079,453.919Zm0-4.771a1.975,1.975,0,1,0,1.971,1.977A1.977,1.977,0,0,0,541.079,449.148Z" transform="translate(-538.285 -448.327)" fill="#fff"/>
        </g>
        <g id="组_95504" data-name="组 95504" transform="translate(16.134 22.55)">
          <path id="路径_178176" data-name="路径 178176" d="M520.481,441.339a2.793,2.793,0,1,1,2.792-2.793A2.8,2.8,0,0,1,520.481,441.339Zm0-4.767a1.973,1.973,0,1,0,1.971,1.973A1.976,1.976,0,0,0,520.481,436.572Z" transform="translate(-517.688 -435.752)" fill="#fff"/>
        </g>
        <g id="组_95505" data-name="组 95505" transform="translate(16.598 30.438)">
          <path id="路径_178177" data-name="路径 178177" d="M522,456.752a3.489,3.489,0,1,1,3.485-3.488A3.493,3.493,0,0,1,522,456.752Zm0-6.157a2.668,2.668,0,1,0,2.665,2.669A2.671,2.671,0,0,0,522,450.6Z" transform="translate(-518.514 -449.775)" fill="#fff"/>
        </g>
        <g id="组_95506" data-name="组 95506" transform="translate(0 21.615)">
          <path id="路径_178178" data-name="路径 178178" d="M492.493,441.072a3.49,3.49,0,1,1,3.488-3.488A3.49,3.49,0,0,1,492.493,441.072Zm0-6.16a2.67,2.67,0,1,0,2.668,2.672A2.671,2.671,0,0,0,492.493,434.912Z" transform="translate(-489.009 -434.091)" fill="#fff"/>
        </g>
        <g id="组_95507" data-name="组 95507" transform="translate(31.346 42.292)">
          <path id="路径_178179" data-name="路径 178179" d="M548.216,477.827a3.49,3.49,0,1,1,3.487-3.488A3.492,3.492,0,0,1,548.216,477.827Zm0-6.16a2.67,2.67,0,1,0,2.667,2.672A2.671,2.671,0,0,0,548.216,471.667Z" transform="translate(-544.729 -470.846)" fill="#fff"/>
        </g>
        <g id="组_95508" data-name="组 95508" transform="translate(22.803)">
          <path id="路径_178180" data-name="路径 178180" d="M529.953,415.625a.411.411,0,0,1-.41-.411V396.079a.41.41,0,1,1,.821,0v19.135A.411.411,0,0,1,529.953,415.625Z" transform="translate(-529.543 -395.668)" fill="#fff"/>
        </g>
        <g id="组_95509" data-name="组 95509" transform="translate(22.803)">
          <path id="路径_178181" data-name="路径 178181" d="M539.4,402.4h-9.445a.41.41,0,0,1-.41-.41v-5.913a.41.41,0,0,1,.41-.411H539.4a.41.41,0,0,1,.41.411v5.913A.41.41,0,0,1,539.4,402.4Zm-9.034-.82h8.625v-5.092h-8.625Z" transform="translate(-529.543 -395.668)" fill="#fff"/>
        </g>
        <g id="组_95510" data-name="组 95510" transform="translate(7.033 2.296)">
          <path id="路径_178182" data-name="路径 178182" d="M505.559,407.851h0a.411.411,0,0,1-.392-.289l-.79-2.575-2.577-.795a.41.41,0,0,1,0-.784l2.576-.79.79-2.579a.41.41,0,0,1,.392-.29h0a.41.41,0,0,1,.392.29l.792,2.579,2.575.79a.41.41,0,0,1,0,.784l-2.575.795-.792,2.575A.411.411,0,0,1,505.559,407.851Zm-2.242-4.05,1.509.465a.41.41,0,0,1,.271.272l.462,1.506.463-1.506a.41.41,0,0,1,.271-.272l1.508-.465-1.507-.463a.41.41,0,0,1-.272-.272l-.463-1.508-.461,1.508a.414.414,0,0,1-.273.272Z" transform="translate(-501.511 -399.749)" fill="#fff"/>
        </g>
        <g id="组_95511" data-name="组 95511" transform="translate(41.904 13.387)">
          <path id="路径_178183" data-name="路径 178183" d="M567.545,427.566a.408.408,0,0,1-.391-.289l-.792-2.579-2.574-.791a.41.41,0,0,1,0-.784l2.574-.79.792-2.579a.41.41,0,0,1,.784,0l.792,2.579,2.574.79a.41.41,0,0,1,0,.784l-2.573.791-.792,2.579A.41.41,0,0,1,567.545,427.566Zm-2.24-4.051,1.505.462a.41.41,0,0,1,.271.272l.464,1.509.464-1.509a.409.409,0,0,1,.271-.272l1.505-.462-1.505-.462a.408.408,0,0,1-.271-.272l-.464-1.509-.464,1.509a.409.409,0,0,1-.271.272Z" transform="translate(-563.498 -419.464)" fill="#fff"/>
        </g>
      </g>
    </g>
  </g>
</svg>
